<svg xmlns="http://www.w3.org/2000/svg" xml:space="preserve" viewBox="0 0 60 60"><circle cx="23" cy="54" r="1"/><path d="M27 55h6a1 1 0 1 0 0-2h-6a1 1 0 1 0 0 2zM37 55h1a1 1 0 1 0 0-2h-1a1 1 0 1 0 0 2z"/><path d="M12 0v60h36V0H12zm16.293 4.293 1-1a.999.999 0 1 1 1.414 1.414l-1 1a.997.997 0 0 1-1.414 0 .999.999 0 0 1 0-1.414zM27.71 6.29c.18.189.29.45.29.71s-.11.52-.29.71c-.19.18-.45.29-.71.29s-.521-.11-.71-.29C26.109 7.52 26 7.27 26 7c0-.271.109-.521.29-.71.37-.37 1.05-.37 1.42 0zm-3.417-2.997a.999.999 0 1 1 1.414 1.414l-3 3a.997.997 0 0 1-1.414 0 .999.999 0 0 1 0-1.414l3-3zm-9 4 4-4a.999.999 0 1 1 1.414 1.414l-4 4a.997.997 0 0 1-1.414 0 .999.999 0 0 1 0-1.414zM21 9c0 .26-.11.52-.29.71-.19.18-.45.29-.71.29-.271 0-.521-.11-.71-.29-.181-.19-.29-.45-.29-.71s.109-.521.29-.71c.37-.37 1.05-.37 1.42 0 .18.189.29.45.29.71zm-5.707 3.293 2-2a.999.999 0 1 1 1.414 1.414l-2 2a.997.997 0 0 1-1.414 0 .999.999 0 0 1 0-1.414zm0 5 9-9a.999.999 0 1 1 1.414 1.414l-9 9a.997.997 0 0 1-1.414 0 .999.999 0 0 1 0-1.414zM46 58H14v-8h32v8z"/></svg>