<svg width="608" height="264" version="1.1" viewBox="0 0 160.9 69.85" xmlns="http://www.w3.org/2000/svg"><g transform="translate(-148.7 -124.8)" fill="#111"><path d="m274.6 133.7c-1.184-0.6001-0.0418-2.699 1.722-3.17 1.805-0.4786 2.355 0.485 1.149 2.011-1.014 1.28-1.907 1.64-2.868 1.158z"/><path d="m295.1 155c-1.069-0.3286-2.675-1.88-2.945-2.839-0.5567-2.004 0.3199-4.723 2.55-7.898 1.315-1.87 2.381-2.807 4.128-3.649 1.357-0.6511 1.578-0.7022 2.847-0.7022 1.248 0 1.437 0.0383 2.102 0.5011 0.9279 0.6382 1.654 2.004 1.654 3.096-5e-3 2.712-2.125 7.03-4.678 9.541-1.248 1.222-2.246 1.787-3.651 2.043-1.162 0.217-0.9729 0.2234-2.01-0.0893zm3.059-1.998c0.3424-0.1436 0.8064-0.4276 1.024-0.6318 1.299-1.2 3.037-4.149 3.397-5.776 0.224-0.9766-0.0544-2.905-0.5215-3.678-0.544-0.8935-1.494-1.13-2.627-0.6575-0.8768 0.3638-2.977 2.563-3.559 3.725-0.7903 1.573-0.9377 2.202-0.8959 3.81 0.0381 1.73 0.3937 2.617 1.248 3.138 0.6527 0.3958 1.11 0.4149 1.936 0.0638z"/><path d="m223.7 152.8c1.856-0.8935 3.821-4.842 3.839-7.713 6e-3 -1.024-0.0736-1.436-0.4384-2.212-0.2464-0.5233-0.6464-1.082-0.8864-1.238-1.027-0.6702-3.101 0.1851-4.048 1.672-1.638 2.569-2.406 6.797-1.539 8.456 0.6816 1.308 1.754 1.672 3.074 1.034zm-2.381 2.585c-3.014-1.177-4.38-3.416-3.99-6.028 0.5215-3.323 3.326-8.128 5.482-9.39 0.8321-0.4882 2.57-0.9223 3.694-0.9255 2.249-6e-3 3.834 2.17 3.596 4.932-0.1813 1.812-0.7058 3.574-1.546 5.191-1.872 3.686-3.609 5.53-5.741 6.083-0.561 0.1669-0.9455 0.2646-1.495 0.1381z"/><path d="m251 152.4c3.09-1.548 6.644-5.802 6.644-7.945 0-1.232-0.4609-1.682-2.096-2.049-1.501-0.335-2.662 0.3384-4.442 2.566-0.8673 1.091-2.24 4.008-2.566 5.466-0.1824 0.8138-0.0832 1.806 0.2176 2.17 0.2815 0.3416 1.35 0.2425 2.246-0.2074zm6.003 4.453c-1.088-0.4916-1.459-1.414-1.482-3.688-0.01-0.967-0.0864-1.774-0.1696-1.8-0.0832-0.0255-0.8033 0.5011-1.603 1.165-2.982 2.489-5.114 3.291-6.641 2.509-1.216-0.6191-1.757-1.475-1.757-2.77v-0.7022l-0.7681 0.8744c-1.677 1.915-5.773 3.236-10.02 3.236-2.176 0-3.709-0.335-5.382-1.181-1.482-0.7466-1.677-1.328-0.8385-2.483 1.059-1.458 1.696-1.487 2.048-0.0893 0.3455 1.366 1.744 1.947 4.688 1.953 3.347 6e-3 6.292-0.7787 6.644-1.781 0.256-0.7212-0.4929-1.334-3.273-2.68-2.786-1.347-5.363-3.045-5.876-3.879-0.2186-0.3795-0.3395-0.8071-0.3519-1.245 0-0.6223 0.0864-0.766 0.9665-1.541 1.472-1.302 3.233-2.097 6.186-2.781 1.837-0.4276 2.918-0.5839 3.958-0.5839 1.725 0 2.253 0.2138 2.323 0.9414 0.096 0.9798-1.334 1.749-2.783 1.5-1.856-0.3191-3.085-0.3-4.596 0.0734-2.208 0.5427-2.879 1.072-2.624 2.084 0.1792 0.7117 0.9631 1.251 4.196 2.873 4.691 2.346 5.326 2.836 5.345 4.138 0.01 0.5106 0.0481 0.4659 0.3905-0.4628 0.6464-1.739 2.775-5.517 3.67-6.519 1.709-1.912 4.765-3.649 6.63-3.765 0.8512-0.0574 1.216 0.0159 2.109 0.4053 0.7077 0.3396 1.487 0.5038 2.272 0.4786 1.373 0.01 1.837 0.2553 1.677 0.884-0.096 0.3829-0.336 0.9414-1.549 3.575-0.6112 1.334-1.568 4.408-1.914 6.181-0.256 1.302-0.1216 2.807 0.2881 3.265 1.152 1.27 6.231-2.011 7.313-4.723 0.208-0.517 1.04-2.282 1.85-3.918 0.8064-1.637 1.715-3.717 2.016-4.622 0.6337-1.912 1.146-2.512 2.509-2.95 1.107-0.3574 1.511-0.3606 2.006-0.01 0.608 0.4212 0.3969 1.264-0.8033 3.249-0.5665 0.935-1.027 1.755-1.027 1.825 0 0.0638-0.3519 0.6861-0.7744 1.376-0.4225 0.6892-1.277 2.307-1.888 3.601-1.296 2.736-1.533 3.966-0.8959 4.606 0.48 0.4755 0.9184 0.4469 2.166-0.1436 0.7392-0.3479 1.536-0.9607 2.664-2.052 0.8895-0.8586 1.85-1.634 2.138-1.73 0.4673-0.1532 0.5887-0.3479 1.126-1.768 0.7583-2.001 1.606-3.241 3.397-4.969 2.413-2.33 4.101-3.077 6.966-3.09 1.507-6e-3 2.618 1.162 2.873 3.032 0.1472 1.063-0.2496 1.513-1.411 1.628-1.05 0.0958-1.264-0.0479-1.622-1.088-0.3937-1.162-0.6752-1.391-1.68-1.388-0.9279 0-1.949 0.3926-2.863 1.088-0.8128 0.6191-2.189 2.675-2.826 4.225-1.267 3.069-0.2977 5.776 2.336 6.543 2.362 0.6829 5.006-0.5808 6.697-3.207 0.8959-1.391 1.466-1.739 1.898-1.158 0.3519 0.4723 0.1408 1.171-0.672 2.234-1.482 1.94-3.019 3.117-4.961 3.813-1.162 0.4149-4.038 0.4212-5.239 0-1.286-0.4437-2.775-1.889-3.31-3.209-0.224-0.5554-0.4768-1.009-0.5633-1.009-0.0865 0-1.024 0.7945-2.083 1.765-2.272 2.081-3.606 2.858-4.916 2.852-1.12 0-2.4-0.5969-3.019-1.398-0.256-0.3416-0.5728-0.616-0.704-0.616-0.128 0-0.6977 0.3958-1.264 0.8808-1.693 1.449-2.218 1.787-3.342 2.138-1.376 0.4371-2.905 0.4405-3.863 3e-3z"/><path d="m267.9 177.6c-0.287-0.1195-0.5352-0.3162-0.7168-0.5681-0.3519-0.6543-0.2016-2.55 0.4-4.964 0.6207-2.499 0.5985-2.955-0.1344-2.955-0.88 0-2.307 2.058-3.572 5.151-0.4096 1.002-0.7456 1.944-0.7488 2.093 0 0.3828-0.2656 0.5522-1.504 0.9607-1.19 0.3958-1.622 0.4469-1.773 0.2011-0.0544-0.0862 0.3265-1.653 0.8448-3.482 0.5183-1.832 1.018-3.725 1.107-4.207 0.192-1.021-5e-3 -1.561-0.5633-1.561-0.5056 0-1.44 0.6734-1.635 1.178l-0.9279 2.393c-0.8639 2.234-1.315 3.016-2.432 4.212-0.9279 0.9924-1.84 1.449-2.918 1.452-0.6527 3e-3 -0.8993-0.0893-1.398-0.5233-0.3329-0.2916-0.6199-0.6317-0.8512-1.009-0.1344-0.2617-0.3072-0.4786-0.3839-0.4786-0.0704 0-0.4768 0.3286-0.8959 0.734-1.245 1.184-3.26 1.634-4.564 1.012-0.7744-0.367-0.9919-0.7818-0.9856-1.896l5e-3 -0.9509-0.7392 0.6924c-1.872 1.736-5.686 2.775-8.837 2.403-2.547-0.2969-3.815-0.3511-4.419-0.1819-0.9152 0.2553-1.546 0.0383-1.613-0.5424-0.0329-0.2831-0.02-0.5697 0.0381-0.8488 0.1184-0.4691 1.034-0.9255 1.856-0.9255 0.5921 0 0.64-0.0415 1.107-1.053 1.05-2.243 1.798-6.53 1.584-9.036l-0.1056-1.27 1.389-1.037c1.078-0.8012 1.446-0.9956 1.622-0.852 0.1632 0.1372 0.224 0.7467 0.224 2.333 0 3.051-0.6847 5.744-2.253 8.869-0.7361 1.468-1.043 2.243-0.9057 2.279 2.672 0.7022 4.098 0.8618 5.517 0.6064 2.358-0.4244 3.712-1.462 4.289-3.286 0.2624-0.8297 0.272-1.095 0.0896-2.231-0.4159-2.575-1.296-4.315-3.191-6.297-1.482-1.545-2.093-1.931-4.159-2.62-1.424-0.4786-1.715-0.517-3.895-0.517-3.712 0-6.112 0.5202-9.073 1.969-1.872 0.916-3.051 2.007-3.744 3.458-1.478 3.101-1.242 5.839 0.5953 6.998 0.7424 0.4691 0.912 0.5106 2.368 0.5106 1.021 0 1.792-0.0926 2.179-0.2553 0.784-0.3254 0.8993-0.3191 0.8993 0.0638 0 0.4723-1.453 1.331-2.605 1.545-2.932 0.5424-5.596-0.7467-6.742-3.254-0.672-1.462-0.8575-3.032-0.5024-4.257 0.6657-2.298 2.413-4.307 5.133-5.913 3.577-2.106 5.44-2.582 10.19-2.611 3.588-0.0255 4.344 0.0989 6.4 0.9893 1.466 0.6382 4.694 2.873 5.662 3.911 1.037 1.117 2.035 3.014 2.534 4.807 0.1824 0.6575 0.3519 1.213 0.3839 1.245 0.0254 0.0255 0.256-0.2969 0.5024-0.7212 0.7072-1.206 1.45-1.953 2.365-2.378 1.024-0.4786 2.138-0.5106 2.752-0.0862 0.7649 0.5265 1.037 0.5554 1.715 0.1723l0.64-0.3606 0.6496 0.335c0.8033 0.4149 0.8768 0.8234 0.3199 1.777-0.544 0.9255-1.027 2.317-1.357 3.911-0.2368 1.127-0.2336 1.302 0.0159 1.918 0.3392 0.8424 0.8737 1.028 1.696 0.5839 1.286-0.6892 2.01-1.851 3.342-5.353 0.8959-2.368 1.734-3.225 3.532-3.627 0.6847-0.1532 0.8927-0.1308 1.491 0.1596 0.944 0.4596 1.168 0.8776 1.277 2.422l0.0896 1.321 0.7424-1.021c1.181-1.628 2.48-2.355 4.241-2.371 0.7808-6e-3 1.002 0.0638 1.322 0.4022 0.4895 0.5202 0.4511 0.817-0.5567 4.548-0.4225 1.57-0.7744 3.022-0.7744 3.225 0.0102 0.2275 0.134 0.4348 0.3297 0.5522 0.272 0.1468 0.576 0.0319 1.696-0.6128 1.216-0.7054 1.511-0.8043 2.662-0.8903 1.485-0.1053 1.673-0.2074 3.22-1.723 1.11-1.085 2.042-2.521 1.792-2.77-0.0736-0.0702-0.8321-0.1308-1.677-0.1277-1.306 0-1.706 0.0702-2.592 0.4596-1.197 0.5233-1.862 0.5839-2.016 0.1787-0.16-0.4053 0.88-1.28 2.067-1.743 0.8736-0.3416 1.408-0.4022 4.366-0.498 3.101-0.1021 3.455-0.1468 4.522-0.5585 1.456-0.5649 2.346-0.5903 2.707-0.0734 0.336 0.4786 0.336 1.044 0 1.379-0.2847 0.2807-0.3649 0.3032-2.163 0.5744-1.523 0.2266-3.061 0.9988-4.342 2.18-0.9792 0.9065-1.815 2.243-1.818 2.913-5e-3 0.5233 3.313 1.49 4.281 1.251 0.7776-0.1979 1.472-1.009 1.411-1.656-0.0481-0.4979-0.1088-0.5522-0.6847-0.6001-0.7681-0.0638-0.7871-0.2074-0.1216-0.766 1.488-1.248 3.294-0.2937 2.592 1.372-0.3135 0.7501-1.517 2.237-2.185 2.699-0.6559 0.4564-2.272 0.7564-3.36 0.6286-0.848-0.1345-1.689-0.3124-2.518-0.5329-1.67-0.4339-2.112-0.45-4.069-0.15-0.4159 0.0638-0.8416 0.0319-1.062-0.0862-0.3199-0.1755-0.4543-0.1181-1.097 0.4723-1.062 0.9798-2.432 1.283-3.569 0.7882zm-19.16-2.119c0.9887-0.5234 1.568-1.127 2.122-2.208 0.5247-1.031 0.9919-2.601 0.9919-3.331 0-0.8488-1.082-1.605-1.99-1.395-1.293 0.3032-2.611 1.886-3.228 3.879-0.848 2.744 0.096 4.114 2.109 3.059zm38.71 1.755c-0.7456-0.3926-0.9247-0.7022-0.9247-1.647 0-2.464 1.239-5.887 2.746-7.601 1.072-1.219 3.265-1.787 4.18-1.085 0.6847 0.5234 0.9824 0.5554 1.667 0.1723l0.6432-0.3606 0.64 0.3318c0.3585 0.1851 0.6752 0.4723 0.7104 0.6382 0.0318 0.166-0.2112 0.8393-0.5376 1.497-0.8575 1.711-1.408 3.905-1.315 5.233 0.0317 0.4882 0.64 1.082 1.101 1.082 0.544 0 1.702-0.8808 2.336-1.784 0.2976-0.4149 0.7297-1.245 0.9665-1.835 0.5472-1.372 0.7776-1.621 1.104-1.181 0.3297 0.45 0.3072 0.7596-0.1664 2.004-0.4529 1.252-1.167 2.394-2.096 3.35-0.9279 0.9956-1.84 1.452-2.921 1.455-0.6527 3e-3 -0.8993-0.0894-1.395-0.5234-0.3342-0.2913-0.6222-0.6313-0.8543-1.009-0.1344-0.2617-0.3104-0.4786-0.3839-0.4786-0.0704 0-0.48 0.3286-0.8959 0.734-1.239 1.181-3.371 1.647-4.598 1.002zm3.543-1.755c0.368-0.1947 0.8864-0.5554 1.149-0.7977 1.011-0.9414 2.298-4.27 1.977-5.112-0.3871-1.015-1.824-1.328-2.945-0.6382-1.232 0.7628-2.627 3.575-2.627 5.297 0 1.468 1.024 1.995 2.445 1.248z"/><path d="m241.8 194.5c-4.615-0.2803-11.27-1.759-15.04-3.344-10.36-4.346-17.02-14.42-19.45-29.38-0.6409-3.952-0.4326-15.13 0.3653-19.8 0.2307-1.348 0.4933-2.687 0.5863-2.972 0.1795-0.5545 0.0641-1.074-0.2307-1.074-0.1922 0-1.945 1.087-4.332 2.689-0.7882 0.5257-2.192 1.396-3.118 1.928-4.557 2.61-6.472 4.541-8.195 8.239-0.6888 1.482-1.516 4.62-1.759 6.681-0.1923 1.609-0.439 2.046-1.285 2.272-0.8812 0.2326-2.374 0.137-2.758-0.1784-0.3203-0.2613-0.314-0.3601 0.2371-4.441 0.737-5.452 0.314-11.15-1.109-14.97-0.2885-0.7774-0.6666-0.924-1.096-0.4206-0.141 0.1593-0.6536 0.9719-1.144 1.803-2.137 3.627-2.611 4.388-3.039 4.863-0.2531 0.2771-1.057 1.37-1.788 2.428-1.041 1.507-2.028 2.613-4.538 5.085-3.595 3.55-5.222 4.763-8.693 6.501-4.703 2.345-7.731 2.721-11.45 1.415-1.538-0.5384-3.661-2.371-4.39-3.783-0.3844-0.7489-0.833-2.466-0.833-3.178 0-0.905 0.4933-2.524 1.266-4.124 0.6025-1.255 1.019-1.822 2.307-3.162 1.355-1.415 1.647-1.638 2.147-1.66 0.4228-0.0159 0.6025 0.0478 0.6472 0.2454 0.0323 0.1498-0.4485 1.036-1.057 1.969-1.83 2.776-2.397 4.56-2.125 6.694 0.1282 1.007 0.2787 1.415 0.8555 2.294 0.8685 1.329 1.955 2.09 3.881 2.721 2.551 0.8379 4.877 0.5545 8.03-0.9687 2.064-0.9972 4.043-2.501 6.653-5.043 3.11-3.027 4.878-5.421 6.978-9.452 0.8171-1.564 1.679-3.154 1.916-3.521 0.7593-1.192 2.339-5.608 2.503-6.979 0.0833-0.6501 0.01-0.9304-0.3844-1.663-0.9132-1.657-3.291-3.627-5.49-4.541-4.16-1.721-8.502-1.169-12.92 1.635-1.897 1.204-2.105 0.4525-0.3365-1.22 2.032-1.918 3.839-2.755 6.851-3.173 2.057-0.2901 4.901-0.1944 6.512 0.2135 1.762 0.4525 4.334 1.966 6.247 3.688 1.455 1.3 1.903 1.835 2.904 3.453 1.666 2.687 2.041 3.466 2.686 5.569 0.9837 3.188 1.41 5.481 1.516 8.094 0.0577 1.319 0.1538 2.431 0.2243 2.473 0.0641 0.0414 0.865-0.7201 1.778-1.692 2.076-2.234 5.063-4.557 7.318-5.685 2.025-1.013 7.002-4.517 8.277-5.825 1.718-1.762 3.5-5.003 4.207-7.65 0.439-1.641 0.6504-1.791 2.298-1.647 1.327 0.1211 2.195 0.4779 2.438 1.013 0.1698 0.3727 0.0577 0.6786-0.9869 2.734-0.7409 1.489-1.399 3.017-1.971 4.578-0.4162 1.187-0.8478 2.369-1.294 3.545-1.314 3.368-1.98 7.531-2.125 13.22-0.1538 6.108 0.3333 10.4 1.881 16.6 1.08 4.324 2.422 7.119 5.874 12.24 1.375 2.043 2.451 3.167 4.417 4.61 2.333 1.714 2.512 1.816 5.479 3.154 2.166 0.975 4.562 1.762 8.184 2.695 3.264 0.8379 15.33 2.071 18.12 1.845 0.5126-0.0414 3.012-0.223 5.564-0.3984 9.715-0.6818 12.12-1.061 20.16-3.202 4.13-1.096 12.62-4.433 14.74-5.791 4.308-2.761 7.156-5.434 8.383-7.864 1.311-2.6 1.596-5.051 0.8139-6.969-0.7209-1.759-2.551-3.762-4.737-5.18-1.327-0.8667-2.589-1.351-4.549-1.756-2.486-0.5162-2.358-0.8189 0.5927-1.373 3.638-0.6818 8.92 0.5767 11.54 2.753 0.8364 0.6945 1.753 1.944 2.233 3.046 0.7977 1.822 0.4422 4.647-0.9291 7.465-1.218 2.488-3.712 5.45-6.523 7.74-1.987 1.619-6.194 4.264-8.377 5.265-8.094 3.712-18.04 6.702-25.34 7.616-6.496 0.8158-20.38 1.338-26.21 0.9814z"/></g></svg>
