<svg width="279.9" height="325.4" version="1.1" viewBox="0 0 74.07 86.11" xmlns="http://www.w3.org/2000/svg"><g transform="translate(99.04 -96.44)"><path fill="#111" d="m-66.51 116.6c-0.8353-0.6096-1.094-1.066-1.558-2.725-0.5024-1.813-0.4704-4.22 0.0832-5.776 0.5919-1.672 0.8448-1.944 2.342-2.492 1.478-0.5424 1.913-0.5043 2.314 0.2106a1.158 1.155 0 0 0 0.8895 0.6096c0.7041 0.134 0.9345 0.4691 0.9345 1.372 0 0.399 0.1472 0.8617 0.4 1.229 0.2336 0.3479 0.5183 1.184 0.6879 2.039 0.2432 1.229 0.256 1.605 0.0864 2.435-0.5024 2.432-1.568 3.331-4.172 3.527-1.248 0.0893-1.322 0.0798-2.003-0.4244z"/><path fill="#111" d="m-48.62 138.7c-2.01-1.969-2.602-2.844-3.328-4.924-1.613-4.628-2.234-6.273-2.547-6.763-0.6943-1.088-4.244-3.368-4.871-3.127-0.1184 0.0415-0.256 0.3828-0.3072 0.7596-0.048 0.3702-0.1408 0.7212-0.1952 0.7787-0.0576 0.0574-0.7583 0.1181-1.546 0.134-1.382 0.0255-1.478 0-2.298-0.549-1.219-0.8202-3.146-1.675-5.03-2.234-0.8959-0.2648-1.766-0.5744-1.936-0.6797-0.4929-0.3127-2.541-3.514-3.122-4.882-1.344-3.167-2.342-6.329-2.754-8.76-0.3008-1.758-0.3008-1.797 0.0256-2.157 0.4511-0.5106 4.106-3.54 5.016-4.167 0.6847-0.4723 1.456-1.618 1.456-2.173 0-0.3574 1.043-2.953 1.312-3.26 0.3199-0.3702 1.101-0.3828 1.402-0.0159 0.1536 0.1819 0.2304 0.7117 0.2272 1.554-0.01 2.279-1.075 4.262-3.821 7.107-1.645 1.707-1.815 1.94-1.815 2.509 0 0.8744 0.6847 2.68 2.054 5.424 1.405 2.807 1.952 3.551 2.797 3.778 2.112 0.5744 3.085 0.7466 5.419 0.9607 1.437 0.1277 3.215 0.3 3.958 0.367 1.616 0.1596 2.131 0.4053 3.119 1.503 1.45 1.615 1.994 2.339 2.99 3.993 1.002 1.666 1.654 3.426 3.815 10.28 0.4257 1.347 0.7903 2.161 1.271 2.807 0.5345 0.7213 1.347 2.336 1.347 2.68 0 0.1755-0.5601 0.5935-0.7903 0.5935-0.1472 0-0.9729-0.6956-1.843-1.545z"/><path fill="#111" d="m-63.22 170.1c-0.9665-0.3-1.222-0.6575-1.478-2.084-0.2144-1.206-0.3519-1.366-1.03-1.232-0.256 0.0511-0.8321 3e-3 -1.28-0.1053-0.9919-0.233-1.472-0.083-2.464 0.766l-0.6943 0.6064-1.514-0.0893c-2.802-0.1596-5.255-1.315-8.575-4.053-1.296-1.072-6.04-5.63-6.369-6.12-0.336-0.5075-0.3839-1.206-0.096-1.494 0.272-0.2744-6.591-7.064-7.858-7.781a7.62 7.599 0 0 1-1.322-0.9287l-0.4289-0.4276-0.5567 0.4085c-1.776 1.318-3.027 0.5617-1.392-0.8361l0.7681-0.6543-0.608-0.7977c-0.704-0.9128-0.9536-1.605-0.7263-2.011 0.256-0.4564 0.5665-0.3318 1.466 0.6001l0.8512 0.8808 0.64-0.5969c0.5247-0.4818 1.069-0.9509 1.619-1.407 0.9631-0.8012 0.9792-0.8297 0.8832-1.503l-0.1024-0.6924 2.863-2.937a377.6 376.8 0 0 0 6.887-7.226c0.64-0.6924 1.347-1.573 1.568-1.956 0.2432-0.4276 1.174-1.344 2.413-2.371 1.107-0.9192 2.278-2.026 2.602-2.457 0.8385-1.133 1.558-1.628 2.579-1.765 0.48-0.0638 1.072-0.2489 1.312-0.4053 0.5345-0.3511 0.9599-0.2234 1.101 0.335 0.1472 0.5808-0.128 1.085-1.331 2.451a29.4 29.32 0 0 1-3.672 3.604l-2.144 1.838c-0.4032 0.3416-1.344 1.423-2.099 2.4-2.061 2.672-4.112 4.834-5.366 5.662-1.094 0.7244-6.535 5.935-7.422 7.117l-0.4416 0.5839 1.126 0.967c0.6175 0.5329 1.898 1.663 2.842 2.518 0.944 0.852 2.648 2.384 3.789 3.4 4.852 4.329 7.459 6.961 8.628 8.713 0.3167 0.4755 0.8864 1.165 1.261 1.532 0.5567 0.5392 0.6847 0.7787 0.6847 1.286 0 0.7022 0.1344 1.155 0.3424 1.155 0.2304 0 2.022-2.844 2.699-4.284 0.7231-1.538 1.139-2.913 1.67-5.543 0.7136-3.519 1.056-4.876 1.392-5.535 0.3199-0.6382 0.3233-0.7818 0.128-3.27-0.2208-2.85-0.1056-10.26 0.192-12.03 0.096-0.6001 0.3712-1.328 0.672-1.8 1.155-1.806 4.186-3.982 6.04-4.331 1.472-0.2776 3.098-0.2138 3.535 0.1404 0.3519 0.2842 0.3776 0.4308 0.3519 1.972a25.9 25.83 0 0 1-0.1184 2.349c-0.1216 0.8297 0.1824 4.207 0.5345 6.003 0.4863 2.444 1.363 4.72 3.342 8.662 2.82 5.625 3.458 7.302 4.387 11.47 0.3424 1.554 0.5887 3.112 0.5887 3.76 0 1.146-0.0416 1.229-1.078 2.062-0.16 0.134-0.2688 0.4786-0.2688 0.8776 0 1.34-0.3905 1.701-2.802 2.607a11.22 11.19 0 0 0-1.994 1.009c-1.51 1.04-4.755 1.529-6.525 0.9861z"/><path fill="#111" d="m-64.85 182.4c-0.2977-0.3574-0.1248-0.7022 0.8641-1.739l0.784-0.8234-2.77-2.585c-1.523-1.42-2.881-2.646-3.022-2.723a3.117 3.109 0 0 1-0.6657-0.7914 4.961 4.948 0 0 0-1.168-1.171c-1.222-0.8393-4-3.654-3.937-3.99 0.0864-0.4469 0.8512-0.4564 1.683-0.0255a5.993 5.977 0 0 0 1.6 0.498c1.002 0.1404 2.592 1.219 3.027 2.049 0.2624 0.5075 1.302 1.838 2.4 3.067 0.3328 0.3733 1.248 1.181 2.035 1.787 0.7871 0.6128 1.638 1.344 1.894 1.628 0.256 0.2905 0.5215 0.5234 0.5887 0.5234 0.2879-0.01 1.094-1.41 1.181-2.052 0.0736-0.5554 0.2656-0.8618 0.976-1.541 0.4863-0.4691 1.037-1.162 1.222-1.538 0.3519-0.7022 1.082-1.376 3.596-3.318a19.39 19.34 0 0 0 2.544-2.429c0.5919-0.7149 4.008-4.207 7.599-7.766 3.585-3.556 6.813-6.855 7.17-7.334 0.4575-0.6032 0.8192-0.8998 1.184-0.9829 0.4479-0.0958 2.144-1.513 4.924-4.106 0.2881-0.2712 0.2368-0.3543-1.149-1.781a46.22 46.09 0 0 1-2.528-2.858c-0.5887-0.7467-1.36-1.557-1.712-1.8-0.3519-0.2458-1.382-1.238-2.294-2.215-1.968-2.106-9.676-9.197-10.76-9.903a1.312 1.308 0 0 1-0.5696-0.9096 4.68 4.67 0 0 0-0.3199-1.034 7.226 7.207 0 0 1-0.4032-1.35c-0.1728-0.8297-0.3199-1.053-1.366-2.074-1.146-1.117-1.478-1.688-1.28-2.202 0.0544-0.1404 0.2879-0.2553 0.5247-0.2553 0.3424 0 1.613 1.181 6.122 5.675a809.9 807.8 0 0 0 7.141 7.054c1.024 0.9766 1.504 1.564 1.619 1.985 0.16 0.5744 0.8959 1.701 1.274 1.956 0.4895 0.3286 4.397 3.958 5.887 5.464 1.933 1.963 2.23 2.071 3.36 1.222 0.8832-0.6702 1.619-0.8967 2.182-0.6861 0.7297 0.2776 0.5728 0.7977-0.5919 1.972l-1.04 1.047 0.7871 0.8393c0.8512 0.9096 0.9377 1.187 0.5088 1.615-0.3424 0.3416-0.8705 0.2553-2.086-0.3254l-0.8768-0.4244-0.8639 0.5744c-1.709 1.133-3.596 3.035-6.668 6.731a12.63 12.6 0 0 1-1.664 1.605c-1.472 1.133-3.392 3.032-3.725 3.683-0.3104 0.6001-0.9536 1.353-3.937 4.614-2.958 3.236-7.041 7.107-8.186 7.768-0.9983 0.5744-1.517 1.047-1.517 1.388 0 0.5424-1.069 1.876-2.839 3.532l-1.792 1.679 0.4641 0.8392c0.576 1.037 0.6305 2.011 0.112 2.011-0.192 0-0.6848-0.1978-1.101-0.4405l-0.7488-0.4405-0.9631 0.4276c-1.309 0.5808-2.426 0.734-2.72 0.3797z"/></g></svg>
