<svg width="278" height="282.8" version="1.1" viewBox="0 0 73.55 74.83" xmlns="http://www.w3.org/2000/svg"><g transform="translate(52.37 -147.2)"><path fill="#111" d="m-16.47 168.8a8.025 8.004 0 0 1-1.539-1.245 4.736 4.723 0 0 1-1.446-3.524c0.0159-1.883 1.293-5.712 2.032-6.104 0.2464-0.134 0.5728-0.1372 1.123-0.0159 0.5535 0.1245 1.171 0.1181 2.154-0.0255 1.232-0.1787 1.446-0.166 2.01 0.0989 0.5183 0.2458 0.672 0.4405 0.8575 1.072 0.192 0.6511 0.3104 0.7914 0.7649 0.9096 0.7329 0.1915 0.8639 0.6255 0.8607 2.865-5e-3 2.828-0.4479 4.122-1.843 5.382-0.8001 0.7181-1.568 0.9509-3.122 0.9446-0.8641-3e-3 -1.36-0.1053-1.847-0.3606z"/><path fill="#111" d="m-29.07 185.2c-1.83-0.2457-3.744-0.6956-4.093-0.9607-0.1184-0.0958-0.192-0.3638-0.1664-0.6064 0.0832-0.6829 0.9216-0.9766 3.651-1.264 1.331-0.1404 2.544-0.3511 2.691-0.4659 0.6784-0.5329 1.139-1.299 3.564-5.985 1.12-2.164 2.579-4.024 3.442-4.411 0.3744-0.1628 1.641-0.4307 2.815-0.5903 2.016-0.2776 2.285-0.2776 4.879-0.01 4.479 0.4596 4.585 0.5392 8.617 6.501 0.5953 0.8776 1.6 2.094 2.24 2.707 1.165 1.123 1.248 1.168 3.588 1.822 0.8353 0.233 0.5953 0.9607-0.4929 1.506-0.608 0.3032-3.119 0.6032-4.524 0.5424-1.2-0.0511-3.149-1.187-5.083-2.955-1.28-1.165-1.514-1.554-1.517-2.483 0-0.7818-0.01-0.7914-1.248-1.723a15.11 15.06 0 0 0-2.317-1.417c-1.344-0.6064-3.839-1.398-4.096-1.299-0.1216 0.0479-0.1664 0.2905-0.1216 0.6064 0.064 0.4212-0.08 0.7564-0.6784 1.653-2.141 3.17-2.799 4.278-3.392 5.712-0.4064 0.9829-0.8768 1.809-1.258 2.202-0.5535 0.5744-0.7551 0.6575-2.15 0.9096-1.754 0.3191-2.038 0.3191-4.352 6e-3z"/><path fill="#111" d="m-33.12 201.5c-2.224-2.151-6.175-6.511-6.668-7.353-0.5313-0.9192-3.244-3.704-4.458-4.585a7.975 7.953 0 0 1-1.462-1.423c-0.9215-1.257-2.547-2.72-3.019-2.72-0.224 0-0.7392 0.2489-1.146 0.5617-0.8737 0.6607-1.482 0.8424-2.08 0.616-0.6943-0.2617-0.544-0.7914 0.4961-1.758 0.5601-0.5234 0.9279-1.002 0.9279-1.219 0-0.1915-0.2656-0.6702-0.5887-1.06-0.672-0.7977-0.7424-1.245-0.2432-1.513 0.2815-0.15 0.5056-0.1053 1.178 0.2425 1.6 0.8361 2.227 0.5297 5.292-2.614 1.299-1.328 2.646-2.77 2.995-3.207 0.3519-0.4371 1.488-1.5 2.528-2.368 2.086-1.736 2.768-2.438 3.789-3.911 1.379-1.979 8.98-9.382 11.51-11.2 1.401-1.015 1.872-1.455 2.144-2.02 0.192-0.399 0.3519-0.8075 0.3519-0.903 0-0.1883 2.618-2.617 3.823-3.551 0.9279-0.7181 1.027-1.072 0.48-1.663-0.5887-0.6255-0.8927-1.621-0.6017-1.969 0.2977-0.3638 0.3744-0.3416 1.337 0.418l0.8641 0.6829 0.7104-0.5043c0.3905-0.2776 1.267-0.7022 1.942-0.9446 2.128-0.7596 2.285-0.2362 0.48 1.618l-1.239 1.27 1.194 1.111c3.183 2.955 12.24 12.17 12.61 12.82 0.0736 0.1277 0.5696 0.5329 1.097 0.8935 0.5281 0.3638 2.102 1.743 3.498 3.067 1.395 1.324 2.768 2.534 3.053 2.688 0.672 0.3575 1.594 2.208 1.536 3.08-0.0418 0.5424 0.0864 0.7276 1.312 1.979 0.7424 0.7596 1.651 1.733 2.016 2.161 0.6271 0.734 2.582 2.572 4.707 4.424 0.8192 0.7086 0.9856 0.7914 1.146 0.5744 0.512-0.6924 1.962-1.257 2.486-0.9766 0.4993 0.268 0.3744 0.7276-0.4479 1.644-0.7519 0.8297-0.7615 0.8618-0.4961 1.267a1.744 1.739 0 0 1 0.2208 0.9734c-0.0513 0.4691-0.128 0.5649-0.5313 0.6096a1.581 1.577 0 0 1-0.8959-0.2202c-0.512-0.3384-0.6368-0.268-2.31 1.302-1.024 0.9639-1.133 1.127-0.9665 1.436a1.606 1.602 0 0 1 0.1856 0.6001c0 0.1404-1.037 1.257-2.304 2.489-3.146 3.045-3.207 3.114-3.924 4.165-0.816 1.19-4.895 5.167-5.453 5.3-0.576 0.1436-0.8255-0.0479-0.7041-0.5329 0.0864-0.3511 0.0317-0.4212-0.4064-0.5106-1.043-0.2042-0.7361-0.7022 2.31-3.744 1.514-1.509 3.014-3.032 4.503-4.564 0.9279-0.9607 2.102-2.138 2.614-2.617 0.5056-0.4723 1.699-1.695 2.648-2.709l1.728-1.848-1.728-1.586a126 125.7 0 0 0-2.921-2.604 25.48 25.42 0 0 1-2.185-2.151c-1.344-1.529-2.183-2.342-3.188-3.09-1.478-1.104-4.458-4.355-5.604-6.128-0.9665-1.494-4.223-5.204-5.673-6.464-1.856-1.612-3.707-3.561-4.08-4.292-0.7072-1.379-2.451-3.416-3.498-4.077a28.15 28.07 0 0 1-1.923-1.436l-1.248-1.009-0.48 0.5329c-0.2624 0.2937-0.4736 0.7149-0.4736 0.9414 0 0.7435-0.368 1.235-1.75 2.339-0.7488 0.5969-2.122 1.924-3.051 2.945-2.326 2.569-6.427 6.715-7.239 7.321-1.107 0.8234-4.768 4.239-6.567 6.128-3.68 3.855-5.755 5.847-6.477 6.212-0.8416 0.4244-3.037 2.119-3.037 2.342 0 0.0798-0.4223 0.5649-0.9409 1.082l-0.944 0.9382 1.322 1.532c0.704 0.8202 1.398 1.65 2.08 2.489 0.4159 0.5265 2.102 2.298 3.749 3.934 1.648 1.64 3.257 3.389 3.575 3.887 0.3202 0.498 1.024 1.251 1.575 1.669 1.312 1.005 4.231 4.104 4.231 4.49 0 0.1692-0.1792 0.4212-0.3937 0.5649a1.904 1.899 0 0 0-0.5855 0.6734c-0.3201 0.7022-0.7903 0.5106-2.32-0.967z"/><path fill="#111" d="m-30.91 204.6c-0.5345-0.5935-0.0928-1.117 1.856-2.186 2.815-1.548 4.487-2.627 5.689-3.672 0.6305-0.5522 1.363-1.088 1.626-1.2 0.5183-0.2138 0.7681-0.5969 0.4961-0.7628a4.458 4.445 0 0 0-1.043-0.1915c-0.816-0.083-0.9216-0.0479-1.427 0.4339-0.704 0.6765-1.373 0.6829-4.114 0.0255-2.368-0.5681-3.252-0.8872-5.612-2.02-3.379-1.624-4.823-3.874-4.114-6.414 0.2368-0.8424 1.75-2.208 2.855-2.572 1.629-0.5424 7.011-0.3223 10.28 0.4149 4.826 1.088 7.144 1.803 8.94 2.752 1.008 0.5329 2.01 0.9477 2.288 0.9477 0.6432 0 2.217-0.6445 4.053-1.659 3.088-1.704 6.496-3.051 9.213-3.638 2.477-0.5297 6.075-0.5969 6.935-0.1213 0.6464 0.3606 1.693 1.596 1.862 2.202 0.224 0.7945 0.1344 2.601-0.1728 3.389-0.704 1.845-3.911 3.958-7.641 5.043-1.718 0.4979-1.875 0.517-2.725 0.3127-0.7583-0.1819-1.014-0.1787-1.6 0.0255-1.184 0.4085-1.024 0.9319 0.6879 2.202 0.4831 0.3543 1.386 1.117 2 1.691 0.6144 0.5744 1.696 1.385 2.4 1.803 1.36 0.8075 1.802 1.359 1.517 1.889-0.2783 0.517-0.8768 0.6445-1.866 0.3895-0.4895-0.1277-1.76-0.3511-2.826-0.5011-2.791-0.4022-3.056-0.498-4.479-1.64-1.907-1.532-4.696-3.281-5.424-3.403-0.7361-0.1277-3.524 0.4307-4.704 0.935-0.8543 0.367-4.762 2.659-5.445 3.199-0.2432 0.1883-1.264 0.5585-2.272 0.8202-1.011 0.2648-2.63 0.7533-3.606 1.088-2.314 0.8075-3.178 0.903-3.617 0.4212z"/><path fill="#111" d="m-13.19 220.8c-0.7199-0.6924-1.401-1.257-1.514-1.257-0.1152 0-0.6945 0.233-1.286 0.5106-0.9504 0.4469-1.114 0.4786-1.328 0.2648-0.3519-0.3511-0.1536-0.9255 0.6271-1.813l0.6657-0.7564-0.8416-0.8234a9.409 9.382 0 0 1-1.248-1.522c-0.6496-1.107-2.371-2.566-3.178-2.693-0.576-0.0926-1.005-0.4212-2.937-2.269-2.573-2.461-4.064-4.077-4.064-4.405 0-0.3254 0.304-0.5106 1.248-0.7435 0.7681-0.1915 0.8832-0.1787 1.69 0.2138 0.4736 0.233 1.165 0.734 1.53 1.111 0.3649 0.3797 2.067 2.017 3.778 3.638 1.715 1.621 3.276 3.188 3.471 3.471 0.1984 0.2873 0.8255 0.9287 1.398 1.427l1.04 0.8967 0.5887-0.6064a14.85 14.81 0 0 1 1.498-1.277c0.4993-0.367 1.197-1.028 1.549-1.468s1.514-1.64 2.579-2.667a68.61 68.42 0 0 0 3.366-3.519c0.7871-0.903 1.552-1.771 1.696-1.924 0.3617-0.3702 3.088-0.6191 3.458-0.3127 0.4895 0.4053 0.2048 1.04-0.6625 1.494-0.5215 0.2776-2.288 1.893-5.048 4.625a410.6 409.6 0 0 1-5.167 5.056 23.71 23.65 0 0 0-1.549 1.576l-0.6207 0.7213 0.9409 0.884c0.7903 0.7501 0.9215 0.9477 0.8128 1.277l-0.3167 1.066c-0.24 0.8234-0.4064 1.091-0.6657 1.085-0.112 0-0.7903-0.5681-1.511-1.257z"/></g></svg>
