<svg xmlns="http://www.w3.org/2000/svg" viewBox="0 0 508 285.75"><path fill="#fff" d="M200.57 183.87c-.336-.324-.655-.588-.708-.588-.053 0-.324.108-.601.239-.443.21-.52.225-.62.124-.165-.164-.071-.435.293-.849l.312-.355-.393-.386a4.394 4.394 0 0 1-.584-.713c-.304-.518-1.108-1.201-1.484-1.261-.27-.043-.47-.198-1.372-1.063-1.203-1.153-1.9-1.91-1.9-2.063 0-.152.143-.238.583-.349.359-.09.414-.084.79.1.222.11.544.343.715.52.171.178.966.945 1.766 1.705.8.76 1.53 1.493 1.622 1.627.092.135.385.435.652.667l.486.421.276-.285a6.94 6.94 0 0 1 .7-.597c.233-.172.558-.482.723-.688.165-.206.707-.769 1.204-1.25a32.045 32.045 0 0 0 1.573-1.648c.368-.424.725-.83.794-.902.168-.174 1.442-.29 1.615-.146.228.189.096.486-.309.699-.245.13-1.07.886-2.36 2.166a191.874 191.874 0 0 1-2.414 2.368c-.238.22-.563.553-.723.739l-.29.337.439.415c.369.35.43.444.38.598-.03.101-.098.326-.148.498-.112.386-.19.512-.312.51-.051-.001-.369-.267-.705-.59zm-8.276-7.59c-.25-.277-.043-.522.867-1.024 1.316-.725 2.096-1.23 2.658-1.72.295-.258.637-.51.76-.562.242-.1.358-.28.231-.357-.042-.027-.262-.067-.488-.09-.38-.039-.43-.023-.666.203-.33.318-.641.32-1.922.011-1.108-.266-1.52-.415-2.623-.946-1.578-.76-2.253-1.814-1.922-3.005.11-.394.817-1.034 1.334-1.205.76-.253 3.275-.151 4.8.194 2.254.511 3.337.845 4.177 1.29.47.249.938.443 1.068.443.301 0 1.037-.301 1.895-.777 1.442-.798 3.035-1.429 4.303-1.703 1.157-.25 2.838-.28 3.239-.057.302.168.791.747.87 1.03.105.373.063 1.219-.08 1.588-.33.864-1.827 1.854-3.57 2.362-.803.234-.876.242-1.273.147-.354-.085-.474-.083-.747.012-.555.192-.479.436.321 1.03.226.168.647.525.934.794.287.269.791.649 1.12.844.636.379.843.637.71.886-.13.242-.41.301-.872.182-.229-.059-.823-.165-1.32-.236-1.303-.187-1.428-.233-2.094-.768-.89-.716-2.193-1.537-2.533-1.594-.342-.058-1.646.202-2.196.438-.4.172-2.226 1.246-2.546 1.498-.113.088-.59.262-1.062.385-.471.124-1.228.353-1.683.51-1.082.377-1.485.423-1.69.197zm-1.031-1.437c-1.04-1.008-2.887-3.05-3.116-3.445-.248-.43-1.516-1.736-2.083-2.148a3.726 3.726 0 0 1-.682-.667c-.431-.589-1.19-1.274-1.41-1.274-.104 0-.346.118-.536.263-.408.31-.692.395-.97.29-.325-.124-.256-.371.231-.825.262-.244.433-.469.433-.57 0-.091-.124-.314-.275-.496-.314-.375-.347-.585-.113-.71.131-.07.236-.049.55.115.748.391 1.04.247 2.473-1.225.606-.622 1.235-1.298 1.399-1.503.163-.204.694-.703 1.18-1.108.975-.814 1.294-1.143 1.771-1.832.644-.928 4.195-4.395 5.376-5.248.656-.474.875-.68 1.003-.946.09-.186.164-.377.164-.423 0-.087 1.223-1.226 1.786-1.663.433-.336.48-.502.223-.779-.274-.293-.415-.76-.28-.923.14-.17.175-.16.626.197l.402.319.333-.236c.182-.13.592-.33.908-.443.994-.355 1.066-.11.223.759l-.578.595.558.52c1.487 1.384 5.719 5.698 5.89 6.003.035.061.265.25.512.42.247.169.982.815 1.634 1.436.652.62 1.294 1.186 1.427 1.258.313.167.744 1.035.717 1.443-.017.253.04.34.613.927.347.356.771.811.941 1.011.293.344 1.207 1.205 2.2 2.072.382.332.46.372.535.269.24-.323.916-.588 1.161-.457.234.125.175.341-.21.77-.35.388-.355.403-.23.593.071.11.116.308.102.456-.022.22-.06.265-.247.286a.739.739 0 0 1-.418-.103c-.241-.158-.298-.126-1.08.61-.478.452-.529.527-.452.672a.75.75 0 0 1 .087.281c0 .066-.485.59-1.077 1.166-1.469 1.427-1.498 1.459-1.833 1.951-.38.558-2.288 2.42-2.547 2.484-.268.067-.386-.022-.328-.25.04-.164.014-.197-.19-.238-.487-.097-.344-.33 1.079-1.754.707-.708 1.408-1.42 2.104-2.139.432-.45.981-1.001 1.22-1.224.237-.223.795-.795 1.238-1.27l.807-.866-.807-.743a58.888 58.888 0 0 0-1.364-1.22 11.906 11.906 0 0 1-1.022-1.007c-.627-.716-1.019-1.097-1.488-1.448-.691-.516-2.082-2.04-2.618-2.87-.452-.7-1.974-2.438-2.65-3.027-.866-.755-1.732-1.668-1.907-2.011-.33-.646-1.145-1.6-1.634-1.91-.173-.11-.577-.413-.898-.673l-.584-.472-.223.25c-.122.137-.222.335-.222.44 0 .349-.172.579-.817 1.096-.35.28-.992.902-1.425 1.38-1.087 1.204-3.002 3.145-3.382 3.429-.517.386-2.226 1.986-3.067 2.87-1.718 1.807-2.688 2.74-3.026 2.912-.392.198-1.418.992-1.418 1.096 0 .037-.198.265-.44.507l-.44.44.617.718c.33.384.653.773.97 1.166.195.246.984 1.075 1.753 1.843.77.768 1.522 1.588 1.67 1.82.15.234.48.586.735.782.614.472 1.977 1.923 1.977 2.104 0 .079-.083.197-.184.264a.889.889 0 0 0-.274.316c-.15.33-.369.239-1.083-.453zm64.15-.744c-2.153-.131-5.256-.825-7.016-1.568-4.833-2.04-7.943-6.765-9.074-13.782-.299-1.855-.203-7.1.17-9.291.108-.633.23-1.261.274-1.395.083-.261.031-.504-.108-.504-.09 0-.907.51-2.021 1.261-.368.248-1.023.655-1.455.905-2.125 1.224-3.02 2.13-3.823 3.866-.32.695-.706 2.168-.82 3.135-.09.754-.205.959-.6 1.065-.41.11-1.108.065-1.287-.083-.148-.123-.146-.169.111-2.084.344-2.558.146-5.23-.518-7.022-.135-.364-.31-.432-.51-.197-.066.075-.306.456-.534.846-.997 1.702-1.219 2.059-1.418 2.281-.117.13-.492.643-.834 1.14-.486.707-.946 1.225-2.116 2.386-1.678 1.664-2.438 2.235-4.056 3.048-2.195 1.102-3.607 1.278-5.343.665-.717-.253-1.708-1.112-2.047-1.775-.18-.351-.39-1.157-.39-1.49 0-.425.231-1.184.591-1.935.281-.588.475-.855 1.075-1.483.633-.663.769-.768 1.004-.779.196-.009.28.024.3.116.014.07-.208.486-.494.923-.853 1.303-1.117 2.14-.99 3.142.06.472.13.663.4 1.076.405.623.91.98 1.81 1.277 1.19.393 2.275.26 3.746-.455.962-.468 1.886-1.173 3.103-2.366 1.452-1.422 2.275-2.544 3.256-4.434.382-.735.784-1.479.894-1.652.354-.56 1.092-2.63 1.168-3.274.036-.305.005-.436-.181-.78-.424-.779-1.534-1.702-2.56-2.13-1.94-.808-3.966-.55-6.026.766-.885.565-.982.212-.156-.572.947-.9 1.79-1.293 3.196-1.49.96-.136 2.287-.091 3.038.101.822.212 2.022.923 2.915 1.729.678.611.887.862 1.354 1.621.776 1.26.952 1.627 1.253 2.613.458 1.497.658 2.571.707 3.798.025.618.072 1.14.104 1.16.032.02.405-.338.83-.795.969-1.048 2.362-2.136 3.415-2.666.944-.476 3.266-2.12 3.861-2.733.802-.827 1.633-2.346 1.963-3.59.205-.77.304-.84 1.072-.772.618.056 1.023.225 1.138.475.079.175.028.318-.461 1.283a21.201 21.201 0 0 0-.92 2.148 68.946 68.946 0 0 1-.604 1.664c-.612 1.58-.924 3.533-.99 6.204-.072 2.866.155 4.879.877 7.79.503 2.028 1.13 3.34 2.74 5.744.641.959 1.143 1.486 2.06 2.164 1.088.804 1.172.853 2.557 1.48 1.01.457 2.128.827 3.818 1.265 1.522.393 7.154.97 8.452.865.238-.02 1.406-.104 2.595-.187 4.533-.32 5.653-.498 9.407-1.502 1.927-.515 5.887-2.08 6.875-2.716 2.01-1.295 3.339-2.549 3.911-3.69.611-1.22.745-2.37.38-3.27-.336-.825-1.19-1.765-2.209-2.43-.62-.406-1.209-.634-2.122-.824-1.162-.242-1.101-.384.275-.644 1.697-.32 4.162.271 5.385 1.292.39.325.818.912 1.042 1.428.371.856.206 2.181-.435 3.504-.567 1.167-1.73 2.555-3.042 3.63-.928.76-2.89 2-3.908 2.47-3.776 1.742-8.416 3.144-11.823 3.574-3.03.382-9.511.626-12.23.46zm-62.253-6.917c-.855-.114-1.75-.325-1.912-.45-.056-.043-.091-.17-.078-.282.037-.322.43-.459 1.706-.593.621-.066 1.187-.164 1.257-.219.317-.249.531-.608 1.665-2.803.524-1.014 1.204-1.885 1.609-2.065.175-.077.767-.203 1.315-.278.942-.13 1.068-.13 2.28-.005 2.093.216 2.142.253 4.026 3.045.277.411.748.982 1.045 1.269.545.526.585.546 1.677.853.39.109.278.45-.23.705-.284.143-1.458.283-2.115.254-.56-.024-1.47-.555-2.374-1.383-.596-.546-.707-.728-.708-1.163 0-.367-.004-.372-.583-.808a7.057 7.057 0 0 0-1.082-.664c-.628-.284-1.794-.654-1.915-.608-.055.021-.077.136-.055.283.029.198-.036.355-.318.775-.999 1.485-1.307 2.005-1.584 2.677-.19.46-.41.846-.588 1.031-.259.268-.352.308-1.005.426-.819.148-.951.148-2.033.003zm74.549-1.09c-.137-.059-.288-.18-.334-.267-.165-.307-.094-1.194.186-2.325.29-1.17.28-1.384-.063-1.384-.41 0-1.077.965-1.668 2.413-.191.469-.348.91-.349.98 0 .18-.124.259-.704.451-.555.185-.757.208-.827.094-.025-.04.152-.775.394-1.632.242-.857.475-1.744.517-1.97.089-.479-.001-.73-.263-.73-.236 0-.672.315-.764.551l-.433 1.122c-.403 1.046-.615 1.412-1.135 1.972-.434.466-.86.679-1.364.681-.305.002-.421-.042-.653-.246a2.06 2.06 0 0 1-.398-.472c-.064-.123-.144-.224-.179-.224-.034 0-.223.154-.42.343-.58.556-1.522.766-2.131.475-.362-.172-.463-.367-.46-.888l.002-.445-.346.323c-.874.814-2.656 1.3-4.129 1.127-1.19-.14-1.781-.165-2.064-.086-.427.119-.722.02-.754-.254-.014-.121-.006-.3.019-.398.055-.22.483-.433.868-.433.276 0 .297-.02.516-.492.49-1.052.84-3.06.74-4.234l-.05-.595.65-.486c.503-.375.675-.466.757-.399.077.065.105.35.105 1.094 0 1.428-.32 2.691-1.052 4.153-.345.688-.488 1.051-.423 1.068 1.247.33 1.915.405 2.576.285 1.103-.2 1.735-.686 2.004-1.54.122-.39.127-.513.042-1.045-.194-1.207-.606-2.022-1.491-2.95-.692-.724-.978-.905-1.943-1.228-.666-.223-.802-.241-1.819-.241-1.735 0-2.855.243-4.238.922-.875.429-1.426.94-1.75 1.621-.69 1.452-.58 2.734.278 3.278.347.22.427.238 1.108.238.475 0 .835-.042 1.017-.118.366-.153.42-.15.42.031 0 .22-.679.623-1.217.723-1.369.253-2.614-.35-3.15-1.524-.313-.686-.4-1.422-.234-1.995.311-1.078 1.126-2.02 2.397-2.77 1.672-.987 2.541-1.21 4.76-1.223 1.676-.01 2.03.046 2.99.464.684.298 2.193 1.343 2.644 1.83.485.523.951 1.411 1.184 2.252.085.307.166.568.179.582.013.013.12-.139.236-.337.33-.565.677-.915 1.104-1.114.48-.223.999-.24 1.287-.04.356.247.483.26.8.081l.3-.169.302.156c.376.195.41.387.15.833-.255.433-.48 1.086-.634 1.832-.11.527-.109.61.007.898.158.395.408.481.793.274.6-.323.939-.868 1.56-2.507.419-1.109.81-1.512 1.65-1.7.32-.072.417-.062.697.074.442.215.546.412.596 1.135l.043.619.347-.479c.551-.763 1.158-1.103 1.98-1.11.365-.003.468.029.618.188.228.244.211.383-.26 2.13-.198.736-.362 1.416-.362 1.512a.319.319 0 0 0 .153.258c.128.069.27.017.794-.287.567-.33.704-.376 1.243-.416.693-.05.782-.098 1.504-.807.518-.509.953-1.183.837-1.298-.035-.035-.388-.062-.784-.061-.61.002-.796.034-1.21.216-.56.245-.87.273-.942.084-.074-.19.411-.6.966-.817.408-.16.657-.188 2.038-.233 1.449-.048 1.615-.069 2.113-.262.68-.264 1.096-.276 1.265-.035.156.224.156.488-.001.646-.132.131-.17.141-1.01.268-.712.107-1.43.468-2.028 1.022-.458.424-.848 1.05-.85 1.365-.002.245 1.548.698 2 .585.364-.092.688-.472.66-.775-.023-.234-.051-.259-.32-.281-.358-.03-.368-.097-.057-.359.695-.585 1.538-.138 1.212.643-.147.352-.71 1.048-1.022 1.265-.307.213-1.06.354-1.569.295a11.715 11.715 0 0 1-1.177-.251c-.78-.203-.988-.21-1.901-.07-.195.03-.394.014-.497-.04-.15-.082-.212-.055-.512.222-.497.458-1.136.6-1.668.368zm-8.952-.994c.461-.244.733-.527.99-1.034.245-.482.464-1.218.464-1.56 0-.398-.505-.753-.93-.654-.604.143-1.22.884-1.508 1.816-.397 1.285.045 1.927.984 1.432zm18.089.823c-.35-.184-.433-.33-.433-.771 0-1.155.578-2.758 1.283-3.562.5-.57 1.524-.837 1.951-.509.32.246.46.261.78.082l.3-.169.3.156c.166.087.315.22.33.299.015.078-.098.393-.251.7-.4.802-.658 1.83-.614 2.452.016.229.298.507.514.507.255 0 .796-.413 1.093-.835.138-.196.34-.583.45-.86.256-.644.363-.76.516-.552.154.21.143.354-.077.937a4.401 4.401 0 0 1-.98 1.57c-.434.467-.86.68-1.364.682-.305.002-.421-.042-.653-.246a2.054 2.054 0 0 1-.398-.472c-.064-.123-.145-.224-.179-.224s-.224.154-.42.343c-.578.553-1.573.772-2.148.471zm1.653-.823c.172-.091.414-.26.537-.374.472-.44 1.074-1.999.924-2.393-.181-.476-.853-.622-1.374-.3-.577.357-1.229 1.674-1.229 2.482 0 .688.48.934 1.142.585zm-102.05.76c-.139-.167-.058-.33.403-.814l.367-.386-1.294-1.21c-.712-.666-1.347-1.24-1.412-1.277-.065-.036-.204-.203-.31-.37a2.318 2.318 0 0 0-.546-.548c-.572-.394-1.868-1.713-1.839-1.87.04-.208.397-.213.786-.012a2.8 2.8 0 0 0 .747.233c.469.066 1.213.572 1.415.961.122.237.608.86 1.12 1.436.156.175.584.552.952.838s.766.629.885.763c.12.135.244.244.275.243.135-.004.511-.66.551-.96.035-.26.125-.403.456-.723.227-.22.485-.544.572-.72.165-.33.504-.645 1.68-1.556.377-.291.91-.803 1.188-1.137.277-.334 1.874-1.97 3.55-3.636s3.183-3.212 3.351-3.436c.214-.282.382-.422.553-.46.208-.046 1-.709 2.3-1.925.136-.126.111-.165-.536-.834a21.593 21.593 0 0 1-1.18-1.337c-.276-.35-.636-.73-.801-.844-.164-.114-.646-.58-1.072-1.037-.919-.986-4.52-4.309-5.025-4.638a.614.614 0 0 1-.267-.427 2.187 2.187 0 0 0-.15-.484 3.376 3.376 0 0 1-.188-.632c-.08-.388-.15-.494-.639-.973-.535-.523-.69-.79-.598-1.03.025-.066.136-.119.246-.119.16 0 .753.551 2.859 2.656a378.391 378.391 0 0 0 3.337 3.304c.48.458.702.732.757.93.074.269.417.797.594.916.229.154 2.054 1.853 2.75 2.56.905.92 1.044.97 1.571.572.412-.313.757-.42 1.02-.32.34.13.267.374-.277.923l-.486.49.368.394c.398.426.438.555.237.756-.16.16-.406.12-.974-.153l-.41-.198-.403.268c-.799.532-1.68 1.423-3.116 3.153a5.902 5.902 0 0 1-.777.752c-.689.532-1.586 1.42-1.741 1.726-.144.281-.444.634-1.837 2.162-1.382 1.515-3.29 3.329-3.825 3.638-.467.269-.708.49-.708.65 0 .254-.5.879-1.326 1.655l-.837.787.216.392c.269.487.295.943.053.943-.09 0-.32-.093-.514-.207l-.351-.206-.45.2c-.61.272-1.132.345-1.27.178zm.762-5.756c-.451-.14-.57-.307-.69-.976-.1-.564-.164-.64-.481-.576-.119.024-.388.002-.598-.049-.464-.11-.688-.04-1.15.359l-.326.282-.707-.04c-1.309-.074-2.455-.617-4.005-1.9-.607-.501-2.823-2.636-2.975-2.866-.158-.238-.18-.566-.046-.7.127-.128-3.079-3.31-3.672-3.645a3.56 3.56 0 0 1-.617-.435l-.2-.2-.26.192c-.83.617-1.415.262-.65-.393l.358-.306-.285-.373c-.327-.428-.444-.753-.338-.943.12-.213.264-.154.684.282l.398.412.298-.279c.247-.226.5-.446.758-.66.45-.375.458-.389.412-.704l-.047-.323 1.338-1.377a176.43 176.43 0 0 0 3.216-3.383c.3-.325.63-.738.732-.917.114-.2.55-.63 1.128-1.11.518-.431 1.065-.95 1.215-1.153.392-.53.728-.76 1.205-.825.225-.03.501-.117.614-.191.249-.164.448-.103.514.158.068.272-.06.509-.623 1.148-.637.725-.917 1-1.716 1.687l-1.002.861c-.187.161-.628.667-.98 1.124-.963 1.252-1.92 2.265-2.507 2.653-.511.339-3.052 2.781-3.466 3.332l-.207.275.526.452c.289.25.887.78 1.328 1.18.441.4 1.238 1.117 1.77 1.593 2.267 2.027 3.485 3.26 4.03 4.08.148.223.414.546.59.717.26.253.319.365.319.603 0 .328.063.541.16.541.108 0 .945-1.332 1.261-2.006.338-.72.532-1.365.78-2.597.334-1.648.493-2.283.65-2.592.15-.297.152-.365.061-1.532-.104-1.335-.05-4.808.088-5.633.047-.28.175-.621.315-.842.54-.847 1.956-1.866 2.822-2.03.688-.13 1.447-.1 1.652.066.165.133.177.202.166.924a12.1 12.1 0 0 1-.057 1.1c-.056.388.085 1.97.251 2.813.226 1.144.636 2.21 1.56 4.057 1.317 2.635 1.616 3.42 2.05 5.371.16.727.274 1.457.274 1.76 0 .537-.02.576-.503.967-.076.062-.126.223-.126.41 0 .627-.183.797-1.31 1.222a5.24 5.24 0 0 0-.931.473c-.706.486-2.222.715-3.048.461zm21.848-.597c-.172-.09-.495-.352-.72-.582-.467-.48-.68-1.002-.675-1.652.008-.881.603-2.675.949-2.86.115-.062.267-.063.525-.006.258.058.547.055 1.006-.012.575-.083.675-.078.939.047.241.115.314.206.4.502.09.305.145.371.357.427.342.088.403.292.402 1.342-.002 1.324-.21 1.931-.86 2.52-.373.337-.734.446-1.46.442-.402-.002-.635-.048-.863-.168zm63.526-3.132c-.508-.231-.682-.663-.693-1.728-.004-.453-.04-.832-.078-.844-.039-.011-.376.235-.75.547-1.393 1.165-2.388 1.541-3.102 1.175-.568-.291-.82-.691-.82-1.299v-.328l-.359.41c-.783.896-2.697 1.515-4.681 1.515-1.016 0-1.732-.157-2.514-.552-.692-.35-.784-.623-.392-1.164.495-.683.792-.696.957-.041.161.639.815.912 2.19.915 1.563.003 2.939-.366 3.103-.834.12-.338-.23-.625-1.529-1.255-1.302-.632-2.505-1.428-2.745-1.818a1.242 1.242 0 0 1-.165-.584c0-.29.042-.357.452-.721.687-.61 1.51-.982 2.891-1.302.857-.2 1.362-.274 1.848-.274.806 0 1.053.1 1.086.441.045.46-.623.82-1.302.703-.867-.15-1.44-.14-2.146.035-1.032.255-1.344.503-1.225.976.083.334.45.586 1.96 1.345 2.191 1.1 2.487 1.33 2.496 1.94.004.238.021.218.182-.216.303-.815 1.297-2.585 1.715-3.054.798-.896 2.226-1.71 3.098-1.765.398-.025.568.008.985.19a2.28 2.28 0 0 0 1.062.225c.64.004.857.12.783.413-.045.18-.158.441-.724 1.676-.286.623-.731 2.064-.894 2.894-.12.61-.057 1.315.136 1.53.537.594 2.91-.943 3.415-2.212.097-.243.485-1.07.863-1.837.378-.767.802-1.741.942-2.164.297-.895.536-1.176 1.173-1.382.516-.167.705-.168.937-.005.283.198.185.592-.376 1.523-.264.437-.48.821-.48.854 0 .032-.163.322-.361.645s-.596 1.081-.881 1.686c-.606 1.281-.717 1.858-.419 2.157.223.223.428.21 1.012-.067.345-.163.717-.45 1.245-.961.415-.402.864-.766.998-.81.218-.072.276-.163.527-.828.354-.938.75-1.52 1.587-2.328 1.127-1.092 1.916-1.442 3.254-1.448.705-.003 1.223.545 1.343 1.42.068.498-.116.71-.66.763-.49.046-.59-.022-.757-.51-.185-.544-.316-.652-.785-.65-.433.002-.91.184-1.338.51-.38.29-1.023 1.253-1.32 1.979-.592 1.438-.14 2.706 1.09 3.064 1.104.321 2.339-.271 3.13-1.501.42-.653.685-.815.886-.544.164.222.066.55-.313 1.046-.693.91-1.41 1.462-2.317 1.788-.543.195-1.887.196-2.448 0-.601-.208-1.296-.885-1.545-1.505-.104-.259-.223-.472-.264-.472-.04 0-.479.372-.973.827-1.062.975-1.684 1.338-2.295 1.337-.523-.001-1.123-.28-1.41-.656-.12-.159-.268-.288-.329-.288-.06 0-.326.186-.591.413-.79.678-1.036.836-1.56 1.002-.643.204-1.358.205-1.805.002zm-2.804-2.085c1.443-.726 3.103-2.718 3.103-3.724 0-.576-.216-.787-.98-.958-.7-.157-1.243.158-2.074 1.202-.406.51-1.046 1.877-1.2 2.56-.085.382-.039.847.102 1.017.132.16.631.113 1.05-.097zm-13.847 1.4c-.906-.203-1.53-.82-1.814-1.798-.115-.397-.122-.552-.049-1.025.243-1.557 1.552-3.808 2.56-4.398.39-.229 1.2-.432 1.725-.434 1.052-.003 1.792 1.015 1.68 2.31-.069.796-.317 1.632-.722 2.432-.874 1.727-1.686 2.59-2.682 2.849-.25.065-.475.114-.498.11zm1.113-1.21c.867-.42 1.785-2.269 1.793-3.614.003-.48-.035-.673-.205-1.036-.115-.245-.301-.506-.414-.58-.48-.315-1.448.087-1.891.783-.765 1.204-1.124 3.184-.719 3.963.319.613.82.782 1.437.484zm33.345 1.056c-.499-.153-1.25-.88-1.375-1.331-.26-.938.15-2.213 1.192-3.699.614-.876 1.112-1.317 1.927-1.709.634-.305.737-.33 1.33-.33.585 0 .672.02.983.236.433.3.773.939.773 1.45-.002 1.27-.992 3.294-2.185 4.47-.582.573-1.05.836-1.706.958-.543.1-.455.104-.939-.044zm1.43-.936c.16-.067.376-.2.478-.295.607-.563 1.418-1.945 1.588-2.706.103-.458-.025-1.36-.245-1.722-.253-.418-.698-.53-1.227-.308-.41.171-1.39 1.2-1.662 1.744-.369.737-.438 1.033-.42 1.785.02.81.185 1.225.585 1.47.305.185.518.193.903.032zm-82.333-6.336c-1.172-.148-2.465-.575-3.137-1.037-.638-.439-1.866-1.61-2.172-2.07-.618-.931-.94-2.793-.465-2.696.07.015.217.267.344.592.12.312.316.731.434.933.267.455 1.221 1.47 1.604 1.704.22.14.432.288.64.445.194.149.566.37.825.49.587.275 2.524.78 2.99.78.19 0 .532.04.76.088.511.11 1.812-.067 3.02-.41 1.137-.324 1.325-.415 2.15-1.043.913-.695 1.826-1.815 2.39-2.93.298-.59 1.203-2.988 1.397-3.702.123-.445.255-.887.395-1.328.383-1.194.911-3.104 1.099-3.973.097-.455.329-1.41.514-2.125.185-.714.395-1.581.468-1.928.072-.346.247-1.018.388-1.495.483-1.637.774-2.92.714-3.158-.055-.224-.152-.252-1.048-.313-.854-.057-1.04-.12-1.04-.351 0-.254.337-.498 1.019-.735.515-.18.722-.213 1.087-.179 2.032.193 2.388.273 2.442.553.03.154-.287 1.344-.58 2.177-.099.281-.292.919-.43 1.417-.689 2.492-1.21 4.275-1.423 4.878-.244.688-.34 1.013-.775 2.636a32.66 32.66 0 0 1-.398 1.377c-.079.238-.286 1-.46 1.692-.441 1.756-.716 2.555-1.232 3.59-.979 1.961-2.265 3.564-3.499 4.36-1.074.693-3.05 1.451-4.499 1.726-.681.13-2.621.149-3.522.035zm-15.467-2.842c-.938-.921-1.215-1.331-1.554-2.306-.754-2.167-1.044-2.939-1.19-3.167-.325-.51-1.983-1.577-2.275-1.465-.056.02-.12.18-.144.355-.023.174-.065.339-.092.366-.027.028-.353.055-.722.062-.645.011-.69 0-1.073-.257-.57-.384-1.47-.785-2.35-1.047-.418-.124-.825-.268-.904-.318-.23-.147-1.187-1.646-1.459-2.286-.628-1.484-1.094-2.966-1.288-4.104-.14-.825-.14-.842.01-1.011.212-.238 1.918-1.658 2.345-1.952.32-.221.68-.759.68-1.019 0-.167.487-1.383.612-1.526.151-.174.515-.178.656-.007.071.085.107.334.106.728-.004 1.067-.503 1.997-1.785 3.33-.769.799-.848.909-.848 1.174 0 .41.32 1.257.96 2.542.656 1.316.912 1.663 1.307 1.77.986.268 1.44.349 2.531.45.67.061 1.502.14 1.848.172.755.073.996.189 1.458.704.678.756.931 1.095 1.396 1.87.468.78.773 1.605 1.782 4.817.199.63.37 1.011.594 1.314.25.339.63 1.096.63 1.257 0 .082-.262.278-.37.278-.068 0-.455-.326-.861-.724zm86.807.15c-.553-.28-.02-1.264.804-1.484.843-.224 1.1.228.537.942-.474.6-.891.768-1.34.542zm-75.692-2.346a2.823 2.823 0 0 1-.544-.468c-.355-.451-3.347-3.458-3.442-3.458-.054 0-.403-.31-.776-.691-.982-1-2.916-2.807-3.315-3.096-.188-.136-.746-.659-1.24-1.162-.493-.502-1.076-1.02-1.294-1.15-.317-.189-.452-.34-.668-.747-.214-.404-.252-.539-.185-.647.137-.22.1-.35-.141-.505-.125-.08-.532-.482-.905-.893-.878-.968-2.115-2.088-2.565-2.323a3.057 3.057 0 0 1-.573-.392l-.219-.208-.37.246c-.273.18-.443.239-.646.222-.392-.033-.382-.2.043-.717l.366-.444-.325-.369c-.476-.542-.544-.99-.156-1.035.161-.019.276.062.568.405l.366.428.709-.68c.692-.664.707-.687.66-.972-.049-.29-.044-.297 1.201-1.534.688-.684 1.426-1.471 1.642-1.75.215-.279.864-1.005 1.442-1.613.578-.608 1.174-1.293 1.326-1.52.356-.537.741-.85 1.291-1.051.387-.142.589-.31 1.573-1.316 2.976-3.037 4.473-4.686 4.473-4.924 0-.046-.177-.248-.395-.448l-.395-.363.052-.463c.029-.255.084-.525.123-.6.118-.23.399-.153.803.223.708.658.812.68 1.706.367.687-.24.817.054.309.697-.173.22-.315.461-.315.539 0 .076.124.224.276.327.153.103.495.5.762.881.571.816.828 1.051 1.226 1.123.16.03.38.098.49.154.107.055 1.01.91 2.006 1.898.995.988 2.155 2.112 2.577 2.499.422.386.892.89 1.044 1.119.152.23.465.57.695.758 1.17.953 1.561 1.355 1.779 1.827.265.575.673 1.054 1.643 1.929.953.86 1.84 1.742 2.295 2.28l.36.428.404-.26c.452-.29.686-.28.805.036.08.207-.011.533-.208.75-.104.115-.095.162.084.425.225.331.234.378.12.593-.108.201-.597.202-.857.003-.189-.145-.191-.144-.629.173-.242.176-.687.6-.99.943-.302.343-1.435 1.522-2.516 2.618-1.082 1.097-2.303 2.41-2.714 2.916-1.15 1.417-1.663 2.01-2.002 2.312-.17.151-.843.794-1.494 1.426-.651.633-1.388 1.28-1.638 1.436-.313.197-.494.376-.587.58-.15.329-.493.732-1.537 1.808-.647.666-.693.734-.577.851.225.226.14.536-.194.709-.31.16-.39.148-.807-.129zm.753-2.116c.033 0 .06-.135.06-.3 0-.26.057-.354.435-.718.253-.245.504-.58.6-.805.134-.311.304-.493.883-.949.698-.548 1.231-1.061 2.526-2.426.507-.536.708-.691 1.037-.804.414-.14.824-.537 1.292-1.247.602-.913.967-1.348 2.052-2.442.662-.667 1.377-1.431 1.59-1.699.256-.324.506-.542.746-.655.199-.093.52-.311.716-.485.455-.406 1.73-1.647 1.73-1.684a.77.77 0 0 0-.138-.173c-.075-.08-.65-.702-1.276-1.382-.627-.68-1.253-1.307-1.392-1.393a1.529 1.529 0 0 1-.416-.42 2.842 2.842 0 0 0-.514-.55c-.193-.16-.545-.544-.781-.855-.454-.597-1.405-1.54-2.67-2.648-.586-.513-.777-.73-.837-.953-.058-.217-.267-.462-.844-.993-.422-.388-.955-.831-1.183-.984-.23-.154-1.023-.858-1.763-1.567-.74-.708-1.47-1.385-1.62-1.506a3.418 3.418 0 0 1-.519-.552c-.415-.57-1.103-1.052-1.376-.966-.197.063-1.754 1.614-2.047 2.039-.123.178-.466.562-.764.85-.973.947-1.725 1.744-2.327 2.466-.813.975-1.146 1.262-1.537 1.324-.215.035-.377.121-.486.26-.09.115-.154.22-.14.233.012.013.164-.026.335-.087s.463-.113.649-.115c.185-.002.485-.079.666-.171.292-.149.418-.163 1.118-.126.926.05 2.046.241 2.873.493.324.099.762.22.972.269.21.05.596.197.858.33.26.131.73.322 1.043.424.86.282 1.88.793 2.292 1.15l.37.32.595-.048c1.559-.127 3.465-.207 3.82-.161.216.028.505.12.643.203.137.084.473.19.747.238.992.172 1.443.588.972.897-.156.103-.402.125-1.273.118l-1.08-.01-.172.217c-.152.19-.244.222-.791.272-.34.03-1.044.059-1.564.062-1.816.011-3.81.27-4.169.54l-.174.132.264.347c.255.334.325.627.216.91-.077.2-.46.358-.871.358-.625.001-1.295.14-1.774.365-.249.118-.452.244-.452.279 0 .035.593.065 1.317.066 1.72.002 2.663.135 3.778.532 1.095.39 1.193.454 1.585 1.031.706 1.04 1.308 2.777 1.503 4.336.116.936.161 1.023.534 1.023.352 0 .8.139.8.248 0 .408-.642.84-1.555 1.043-.314.07-.86.234-1.214.363-1.067.39-1.07.387-1.547-1.034-.166-.494-.362-1.014-.435-1.156-.074-.142-.291-.813-.484-1.49-.193-.678-.383-1.265-.423-1.305-.227-.227-1.71-.099-1.792.155-.016.05.247.24.584.424.953.521 1.466.955 1.568 1.328.079.292-.1.681-.732 1.597-.87 1.26-1.282 1.68-1.792 1.829-.454.132-.909.55-.909.834 0 .095.168.284.433.489.524.404.783.922.569 1.136-.114.114-.19.113-.858-.008-.404-.073-1.01-.22-1.347-.326-.338-.105-.77-.192-.96-.192-.63 0-1.123-.15-1.297-.392-.222-.313-.197-.506.098-.75 1.041-.86 2.812-2.87 2.812-3.19 0-.19-.046-.213-.866-.433a10.86 10.86 0 0 1-1.531-.584c-.974-.467-1.16-.675-1.728-1.94-.444-.99-.471-1.355-.124-1.68l.234-.218-.246-.05c-.407-.08-2.062-1.719-2.199-2.175-.1-.337.075-1.383.323-1.925.21-.456.66-.884 1.047-.994.182-.052.363-.122.403-.157.128-.111-.122-.304-.396-.304-.28 0-.58-.224-.58-.432 0-.064-.115-.166-.256-.225-.14-.06-.518-.29-.84-.513-.321-.222-.646-.404-.722-.404-.076 0-.22.114-.32.254-.284.4-1.33 1.442-1.677 1.672-.285.188-2.775 2.592-3.524 3.403l-.307.332.256.219c.14.12.318.254.395.297.232.13 1.794 1.528 2.526 2.26.378.379.866.798 1.084.932s.396.277.396.318c0 .041.522.596 1.16 1.233.774.772 1.34 1.42 1.7 1.945.298.433.882 1.145 1.299 1.584.396.417.788.837 1.178 1.26.231.254.567.567.747.694.656.464 1.082.865 1.302 1.222.236.385 1.714 1.906 2.645 2.724l.548.482.314-.305c.172-.167.34-.304.373-.304zm-1.71-21.87c-.622-.15-1.123-.68-1.375-1.452-.175-.536-.067-1.704.227-2.46.137-.353.303-.686.369-.74.065-.055.374-.125.685-.155.311-.031.761-.102 1-.157.846-.197 1.314.052 1.746.93.232.472.258.594.255 1.196-.004.72-.142 1.256-.495 1.917-.416.778-1.422 1.163-2.412.922zm1.685 2.771c.09-.062-.335-.265-.938-.448-1.504-.457-3.763-.807-3.889-.604-.07.115.112.4.568.888l.35.373.325-.164c.18-.09.432-.241.562-.337.13-.096.302-.198.382-.228.276-.102.771.106 1.177.494l.394.375.518-.163c.285-.09.533-.173.552-.186zm18.448 19.886c-.605-.189-.932-.824-.928-1.81.002-.678.016-.739.966-3.934.045-.151.261-.93.48-1.731.22-.8.521-1.792.67-2.203.357-.986.585-1.906.585-2.36 0-.252.043-.41.137-.494.2-.181 1.132-.608 1.328-.608.242 0 .368.193.32.49-.04.243-.804 2.49-1.707 5.018a38.42 38.42 0 0 0-.599 1.81c-.105.367-.26.899-.345 1.18-.287.96-.51 2.163-.51 2.742.003.519.023.595.195.735.15.122.261.146.497.108.607-.097 1.566-.701 2.05-1.29l.665-.815c.965-1.186 1.71-1.768 3.098-2.418 1.185-.555 1.659-.695 2.814-.83 1.96-.228 3.093-.161 5.128.303.273.063.691.153.929.2.238.048.822.192 1.298.32.476.129 1.431.36 2.123.516.692.156 1.595.383 2.006.504.41.121.942.247 1.18.28a8.7 8.7 0 0 1 1.062.247c1.993.598 6.072.973 8.927.82 1.624-.087 1.774-.107 2.635-.36.962-.282 2.126-.987 2.382-1.443.202-.36.217-.567.063-.862-.29-.554-.978-.91-2.406-1.248-.744-.175-1.108-.215-2.045-.225-1.399-.014-1.337-.005-1.337-.193 0-.186.268-.334.865-.48.615-.15 3.024-.123 3.737.042.602.14 1.568.64 2.015 1.045.583.526.774 1.3.468 1.892-.34.656-1.608 1.568-2.638 1.897-2.21.705-2.933.808-5.68.804-1.09-.002-2.205-.04-2.478-.086-.273-.046-.585-.074-.694-.062-.3.031-1.469-.092-2.084-.22-.5-.105-2.027-.337-3.343-.509a12.144 12.144 0 0 1-1.258-.268c-.998-.27-3.347-.81-4.13-.95-.346-.061-1.124-.204-1.73-.316-1.966-.364-2.65-.442-3.893-.443-1.882-.003-3.443.38-4.946 1.212-.758.42-1.17.782-1.765 1.55-.464.6-2.087 2.07-2.511 2.276-.4.194-1.231.28-1.596.167zm-38.634-6.836c-.39-.286-.511-.5-.727-1.277-.236-.85-.22-1.976.037-2.706.277-.784.395-.91 1.095-1.168.69-.254.893-.235 1.08.099.094.166.214.248.416.286.329.062.436.22.436.642 0 .187.07.405.187.576.11.162.242.555.322.955.114.575.12.752.04 1.14-.235 1.14-.732 1.561-1.949 1.652-.584.043-.617.036-.936-.199z"/></svg>