<svg xmlns="http://www.w3.org/2000/svg" viewBox="0 0 478.37 285.75"><title>Logo Il Mosaico Danza ASD Scuola di danza a Milano</title><path fill="#fff" d="M151.523 283.52c-1.271-1.223-2.475-2.223-2.675-2.223-.2 0-1.224.407-2.274.904-1.672.791-1.964.85-2.343.47-.622-.621-.268-1.647 1.108-3.21l1.18-1.341-1.484-1.46c-.816-.803-1.81-2.016-2.21-2.695-1.148-1.957-4.186-4.539-5.609-4.766-1.02-.163-1.776-.748-5.185-4.016-4.546-4.358-7.18-7.22-7.18-7.8 0-.573.542-.897 2.202-1.316 1.357-.343 1.567-.317 2.988.379.84.411 2.056 1.296 2.702 1.965.646.67 3.649 3.569 6.673 6.443 3.025 2.874 5.784 5.642 6.131 6.15.347.509 1.457 1.642 2.466 2.518l1.835 1.593 1.045-1.077c.575-.592 1.765-1.608 2.644-2.258.88-.65 2.108-1.819 2.732-2.598.623-.779 2.671-2.907 4.551-4.728 1.88-1.821 4.556-4.623 5.946-6.226 1.39-1.604 2.74-3.138 3.002-3.41.633-.658 5.45-1.094 6.103-.552.86.714.364 1.836-1.167 2.643-.928.49-4.044 3.35-8.918 8.186-4.121 4.09-8.228 8.117-9.127 8.95-.9.834-2.128 2.09-2.731 2.792l-1.095 1.276 1.656 1.567c1.394 1.32 1.623 1.678 1.44 2.261-.12.382-.374 1.23-.564 1.883-.423 1.457-.715 1.935-1.177 1.926-.194-.004-1.394-1.007-2.665-2.23zm113.02-23.6c-2.66-.39-3.925-1.805-3.902-4.361.018-2.045.849-3.55 3.173-5.748.924-.874 1.64-1.628 1.59-1.675-.051-.046-.597-.222-1.214-.391-1.06-.29-1.159-.257-1.784.591-3.1 4.208-12.304 6.03-16.549 3.276-2.51-1.629-2.993-4.565-1.067-6.496 2.183-2.187 5.93-2.002 15.398.76l2.011.587.624-1.224c1.603-3.144 4.124-11.554 4.124-13.76 0-1.641-.76-2.373-2.222-2.135-1.421.23-1.318-.127.22-.76 1.668-.686 2.09-.658 3.115.205l.861.725.871-.574c1.11-.732 1.685-.728 2.358.016.587.65 1.342.77 1.823.288.33-.33 1.298-.089 1.298.324 0 .474-1.99 1.767-2.704 1.757-.393-.006-1.042-.192-1.443-.414-.4-.222-.898-.338-1.105-.259-.207.08-1.064 2.307-1.904 4.95-.84 2.642-2.18 6.191-2.978 7.887-.798 1.696-1.386 3.19-1.305 3.32.08.13.692.329 1.36.441 1.063.18 1.378.089 2.52-.731 2.45-1.761 3.874-2.229 6.816-2.238 3.012-.01 4.698.607 5.493 2.012.402.71.387.849-.17 1.608-1.445 1.972-4.69 2.394-9.767 1.271-1.464-.323-2.9-.588-3.194-.588-.789 0-4.307 3.591-4.988 5.092-.87 1.918-.778 2.822.408 4.008.946.946 1.136 1.011 2.982 1.011 2.543 0 3.511-.43 5.95-2.64 1.68-1.524 2.09-1.765 2.569-1.51.885.474.7.885-1.21 2.703-2.368 2.255-4.986 3.123-8.058 2.672zm-10.144-8.35c2.128-.404 4.004-1.358 5.744-2.923 1.07-.963 1.388-1.412 1.106-1.563-.218-.116-1.925-.574-3.794-1.017-2.805-.665-3.928-.788-6.444-.705-3.741.122-4.67.616-4.815 2.56-.213 2.865 3.537 4.533 8.203 3.648zm22.345-3.42c2.064-1.868-1.615-3.27-5.507-2.098-1.65.496-3.56 1.577-3.281 1.856.41.41 4.033.94 6.025.88 1.624-.049 2.28-.2 2.763-.638zm-156.5 6.683c-.948-1.047-.164-1.973 3.277-3.87 4.975-2.742 7.92-4.648 10.044-6.502 1.116-.974 2.41-1.929 2.877-2.122.91-.377 1.348-1.056.871-1.351-.16-.1-.99-.252-1.845-.34-1.434-.146-1.626-.087-2.516.767-1.252 1.201-2.425 1.208-7.267.043-4.188-1.007-5.745-1.569-9.914-3.575-5.964-2.87-8.513-6.856-7.263-11.357.414-1.492 3.087-3.908 5.041-4.557 2.873-.955 12.38-.57 18.14.735 8.523 1.931 12.613 3.194 15.791 4.877 1.774.939 3.545 1.673 4.036 1.673 1.138 0 3.918-1.14 7.16-2.936 5.452-3.018 11.473-5.402 16.263-6.438 4.373-.946 10.728-1.058 12.242-.217 1.142.636 2.992 2.824 3.293 3.897.395 1.408.235 4.603-.302 6-1.253 3.266-6.91 7.008-13.498 8.927-3.033.884-3.31.916-4.81.556-1.336-.32-1.79-.313-2.822.044-2.097.728-1.81 1.648 1.212 3.893.856.636 2.444 1.987 3.53 3.003 1.085 1.015 2.99 2.451 4.233 3.19 2.404 1.43 3.186 2.405 2.682 3.347-.49.916-1.549 1.138-3.293.69-.866-.223-3.113-.625-4.993-.895-4.922-.705-5.395-.879-7.91-2.903-3.362-2.705-8.29-5.806-9.573-6.022-1.295-.22-6.221.764-8.303 1.656-1.509.647-8.41 4.706-9.622 5.659-.427.335-2.233.99-4.013 1.457-1.781.466-4.642 1.335-6.36 1.93-4.09 1.42-5.613 1.597-6.387.741zm-3.898-5.431c-3.931-3.81-10.909-11.525-11.774-13.02-.94-1.627-5.73-6.563-7.876-8.118-.85-.617-2.009-1.752-2.575-2.523-1.631-2.223-4.498-4.814-5.327-4.814-.397 0-1.31.447-2.028.993-1.544 1.174-2.617 1.495-3.664 1.097-1.232-.469-.97-1.403.871-3.118.988-.92 1.635-1.771 1.635-2.152 0-.346-.468-1.19-1.04-1.875-1.186-1.42-1.312-2.213-.427-2.687.497-.266.893-.183 2.076.435 2.829 1.48 3.933.934 9.35-4.628 2.289-2.35 4.668-4.905 5.286-5.679.619-.773 2.625-2.658 4.46-4.188 3.688-3.077 4.892-4.322 6.696-6.924 2.433-3.51 15.853-16.612 20.32-19.837 2.477-1.79 3.304-2.569 3.79-3.573.341-.706.62-1.425.62-1.599 0-.332 4.62-4.635 6.747-6.286 1.637-1.269 1.818-1.9.844-2.944-1.033-1.108-1.569-2.875-1.058-3.49.532-.642.663-.601 2.367.746l1.52 1.203 1.256-.892c.69-.491 2.237-1.243 3.435-1.672 3.756-1.342 4.028-.416.84 2.868l-2.182 2.248 2.108 1.964c5.618 5.232 21.614 21.536 22.263 22.69.13.232 1 .945 1.932 1.586.933.64 3.712 3.083 6.176 5.429 2.464 2.345 4.892 4.484 5.395 4.754 1.181.631 2.811 3.915 2.708 5.454-.065.959.152 1.287 2.317 3.505 1.314 1.346 2.915 3.066 3.559 3.822 1.106 1.3 4.56 4.552 8.314 7.829 1.442 1.258 1.735 1.406 2.023 1.018.905-1.22 3.459-2.224 4.388-1.726.882.472.659 1.288-.797 2.908-1.32 1.468-1.341 1.524-.871 2.241.273.417.44 1.164.387 1.723-.08.835-.225 1.003-.932 1.084-.46.053-1.172-.124-1.581-.392-.91-.597-1.125-.476-4.08 2.31-1.808 1.704-2 1.99-1.709 2.536.181.338.33.817.33 1.064 0 .247-1.833 2.23-4.072 4.406-5.55 5.394-5.663 5.514-6.929 7.375-1.434 2.107-8.646 9.142-9.623 9.387-1.016.255-1.46-.083-1.243-.948.155-.617.054-.742-.72-.897-1.838-.367-1.295-1.25 4.081-6.63a723.71 723.71 0 0 0 7.952-8.082c1.635-1.703 3.709-3.786 4.608-4.628.9-.843 3.007-3.004 4.683-4.802l3.049-3.27-3.049-2.81c-1.676-1.547-3.996-3.62-5.155-4.609-1.159-.988-2.898-2.701-3.865-3.806-2.37-2.708-3.849-4.148-5.622-5.473-2.613-1.952-7.87-7.713-9.895-10.846-1.71-2.644-7.462-9.216-10.014-11.44-3.277-2.857-6.55-6.307-7.21-7.603-1.244-2.44-4.328-6.046-6.176-7.221-.654-.416-2.182-1.559-3.395-2.54l-2.207-1.783-.84.941c-.463.518-.84 1.267-.84 1.666 0 1.317-.649 2.186-3.088 4.14-1.327 1.063-3.75 3.412-5.385 5.22-4.11 4.548-11.348 11.884-12.783 12.956-1.953 1.46-8.414 7.508-11.594 10.852-6.492 6.826-10.157 10.353-11.436 11.002-1.48.75-5.36 3.751-5.36 4.144 0 .14-.748 1-1.661 1.914l-1.66 1.662 2.329 2.717a189.361 189.361 0 0 1 3.667 4.406c.736.928 3.717 4.063 6.626 6.966 2.908 2.903 5.75 6 6.313 6.881.564.882 1.813 2.21 2.777 2.952 2.318 1.784 7.471 7.27 7.471 7.953 0 .297-.313.745-.697.996-.384.252-.849.79-1.034 1.197-.569 1.248-1.394.902-4.095-1.714zm242.46-2.812c-8.14-.496-19.867-3.117-26.52-5.927-18.266-7.712-30.022-25.569-34.295-52.088-1.129-7.009-.767-26.832.642-35.115.407-2.393.873-4.766 1.035-5.273.315-.987.12-1.904-.406-1.904-.34 0-3.43 1.928-7.64 4.768-1.39.937-3.864 2.475-5.5 3.417-8.03 4.628-11.412 8.05-14.446 14.615-1.213 2.624-2.671 8.192-3.102 11.846-.337 2.852-.773 3.625-2.27 4.028-1.546.416-4.186.245-4.862-.316-.56-.465-.55-.636.421-7.875 1.298-9.667.553-19.766-1.959-26.542-.509-1.374-1.172-1.63-1.93-.744-.246.286-1.152 1.725-2.014 3.197-3.77 6.435-4.608 7.783-5.362 8.624-.44.49-1.858 2.429-3.15 4.307-1.839 2.673-3.576 4.631-7.997 9.017-6.343 6.291-9.215 8.45-15.331 11.521-8.296 4.166-13.632 4.83-20.193 2.515-2.71-.957-6.457-4.206-7.737-6.71-.68-1.328-1.478-4.373-1.478-5.632 0-1.606.877-4.473 2.238-7.315 1.063-2.22 1.794-3.228 4.062-5.603 2.392-2.505 2.906-2.903 3.796-2.944.74-.035 1.058.089 1.13.439.055.267-.784 1.837-1.866 3.488-3.224 4.924-4.221 8.086-3.742 11.874.226 1.783.495 2.508 1.51 4.067 1.534 2.354 3.444 3.702 6.843 4.825 4.498 1.486 8.6.988 14.16-1.718 3.636-1.77 7.128-4.432 11.728-8.941 5.486-5.377 8.598-9.615 12.307-16.758 1.444-2.78 2.963-5.591 3.376-6.245 1.338-2.119 4.129-9.94 4.418-12.376.136-1.15.02-1.648-.687-2.947-1.602-2.943-5.796-6.434-9.673-8.05-7.332-3.054-14.992-2.082-22.778 2.893-3.345 2.138-3.709.804-.588-2.16 3.58-3.402 6.765-4.888 12.08-5.635 3.63-.511 8.642-.342 11.479.387 3.11.8 7.642 3.486 11.019 6.532 2.561 2.311 3.351 3.257 5.119 6.129 2.931 4.76 3.597 6.149 4.736 9.874 1.73 5.657 2.486 9.718 2.671 14.357.094 2.335.27 4.308.392 4.383.123.076 1.533-1.277 3.134-3.007 3.665-3.96 8.932-8.07 12.912-10.076 3.566-1.798 12.343-8.01 14.592-10.328 3.031-3.124 6.172-8.865 7.42-13.566.773-2.911 1.146-3.18 4.051-2.92 2.336.21 3.867.85 4.299 1.796.3.66.107 1.2-1.741 4.848-1.144 2.257-2.71 5.911-3.48 8.12-.77 2.207-1.797 5.037-2.28 6.287-2.313 5.97-3.491 13.354-3.742 23.45-.27 10.83.588 18.438 3.316 29.438 1.901 7.667 4.267 12.63 10.352 21.713 2.427 3.624 4.324 5.615 7.79 8.178 4.11 3.038 4.43 3.223 9.662 5.593 3.818 1.729 8.042 3.128 14.433 4.782 5.749 1.487 27.036 3.666 31.942 3.269.9-.073 5.314-.391 9.81-.707 17.13-1.205 21.365-1.88 35.551-5.675 7.284-1.948 22.253-7.862 25.985-10.266 7.6-4.895 12.62-9.632 14.783-13.947 2.31-4.609 2.814-8.96 1.434-12.36-1.267-3.118-4.493-6.67-8.345-9.185-2.344-1.531-4.57-2.395-8.021-3.113-4.392-.913-4.163-1.45 1.04-2.432 6.412-1.211 15.728 1.024 20.35 4.881 1.472 1.23 3.093 3.45 3.94 5.4 1.403 3.232.78 8.242-1.646 13.24-2.14 4.412-6.537 9.659-11.496 13.722-3.508 2.875-10.923 7.561-14.769 9.335-14.274 6.582-31.808 11.882-44.686 13.506-11.45 1.444-35.949 2.366-46.226 1.739zm-143.88-7.996c-2.886-1.252-3.934-3.79-3.137-7.595.58-2.763 1.639-4.676 3.562-6.434 2.377-2.174 4.467-3.116 7.261-3.274 1.997-.114 2.37-.051 3.088.519 1.108.877 1.028 1.4-.296 1.954-1.048.438-1.142.432-1.573-.101-1.14-1.408-2.427-1.561-4.602-.548-3.312 1.543-5.617 5.393-5.633 9.41-.012 2.613.467 3.504 2.388 4.457 2.492 1.235 4.952.53 7.458-2.136 1.57-1.67 3.373-4.81 3.373-5.873 0-.36.349-.776.877-1.05 1.103-.57 1.122-.569 1.48.102.22.41.061 1.44-.598 3.902-.493 1.84-.81 3.43-.705 3.533.293.29 3.485-3.279 4.107-4.593.304-.642.643-1.352.753-1.578.26-.532 2.931-1.584 3.145-1.238.09.146-.097.71-.416 1.255-.319.544-.855 1.99-1.192 3.213-1.092 3.96-.725 4.48 1.521 2.162 1.827-1.885 2.121-2.545 3.387-7.604 1.066-4.26 1.102-4.341 2.234-5.09 1.353-.897 1.757-.952 1.757-.242 0 .286-.793 3.022-1.762 6.08-2.24 7.07-2.283 7.377-1.008 7.377.565 0 1.17-.401 2.08-1.38.707-.758 1.285-1.495 1.285-1.635s.2-.256.446-.256c.837 0 .439.989-1.287 3.201-1.168 1.496-2.306 2.151-3.735 2.151-1.1 0-1.964-.814-1.964-1.85 0-.714-.499-.669-.9.082-.463.865-2.06 1.766-3.13 1.767-1.183.001-1.82-.512-2.12-1.708l-.242-.965-1.337 1.196c-1.55 1.386-2.42 1.69-3.471 1.211-.65-.296-.737-.498-.643-1.492l.11-1.15-1.701 1.576c-3.047 2.822-6.247 3.777-8.86 2.644zm59.635-1.387c-1.648-1.238.704-7.726 3.24-8.936 1.309-.624 1.909-.634 2.75-.045.506.355.794.385 1.266.133.694-.372 1.65-.162 1.87.41.081.211-.103 1.11-.409 1.996-.606 1.758-.76 4.585-.265 4.89.543.337 1.68-.673 2.759-2.449 1.22-2.01 1.991-4.014 2.894-7.52.538-2.09.834-2.696 1.704-3.495 1.056-.97 1.672-1.19 1.97-.707.09.143-.725 3.074-1.808 6.513-1.084 3.44-1.888 6.468-1.788 6.73.342.89 1.555.537 2.8-.815.654-.71 1.431-1.68 1.727-2.156.81-1.302 1.97-2.505 2.869-2.975 1.151-.602 3.01-.538 3.61.125.66.728.623 1.039-.243 2.068l-.735.874 2.296.466c4.689.953 6.555.854 7.572-.402.682-.843.659-1.06-.21-1.928-.952-.953-2.236-.948-3.378.013-.997.84-1.694.95-1.94.309-.249-.647 1.086-1.549 2.636-1.781 1.66-.249 3.373.482 3.942 1.682.58 1.222-.17 2.789-1.634 3.418-1.307.562-5.136.63-7.22.129-.735-.177-2.427-.325-3.758-.33-1.936-.005-2.457.087-2.6.463-.286.742.12 1.871.744 2.069.696.22 2.463-.329 2.952-.918.437-.528 1.272-.573 1.104-.06-.067.205-.836.874-1.71 1.487-1.166.818-1.893 1.116-2.728 1.116-1.272 0-2.327-.81-2.327-1.785 0-.772-.06-.757-1.18.288-1.75 1.636-4.183 1.586-4.792-.098l-.36-.999-1.242 1.297c-1.075 1.122-1.408 1.297-2.474 1.297-1.023 0-1.342-.15-1.891-.894l-.66-.893-.829.794c-1.003.962-3.595 1.316-4.524.619zm4.713-2.759c1.915-2.091 2.002-4.6.16-4.6-1.027 0-1.814.76-2.664 2.567-.695 1.48-.723 1.717-.3 2.509.496.926 1.709.72 2.804-.476zm17.578-2.966c.798-.798.728-1.336-.174-1.336-.53 0-1.788 1.283-1.788 1.824 0 .537 1.247.227 1.962-.488zm-51.585 5.018c-.339-.431-.614-1.2-.612-1.71.004-.768.854-4.276 1.632-6.73.166-.523.05-.59-1.021-.59-.665 0-1.23-.134-1.254-.298-.143-.95-.03-1.048 1.37-1.19l1.475-.148.458-1.553c.334-1.136.733-1.756 1.481-2.305 1.91-1.401 2.218-.87 1.206 2.074-.327.95-.595 1.774-.595 1.83 0 .057.592.103 1.314.103 1.454 0 2.254.222 2.254.626 0 .146-.2.266-.446.266s-.446.134-.446.297c0 .164-.716.298-1.59.298h-1.59l-.776 3.048c-1.13 4.443-1.13 4.684-.005 4.684.566 0 1.17-.401 2.081-1.38.707-.759 1.285-1.495 1.285-1.635 0-.141.2-.257.445-.257.837 0 .44.99-1.287 3.202-1.764 2.261-4.192 2.879-5.38 1.368zm7.58.316c-.627-.627-.584-1.193.391-5.148.69-2.8.958-3.454 1.55-3.781.958-.532 1.086-.516 1.461.186.253.472.121 1.314-.608 3.89-.512 1.81-.853 3.367-.758 3.462.616.617 3.158-2.134 4.192-4.536.281-.654.6-1.374.709-1.6.25-.523 2.925-1.588 3.135-1.248.087.14-.165.839-.558 1.552-1.16 2.098-2.063 5.445-1.669 6.181.182.34.526.617.765.617.24 0 .436.12.436.266 0 .627-2.014.842-2.992.318-.399-.213-.575-.624-.575-1.338 0-.567-.087-1.03-.192-1.03-.106 0-.836.602-1.623 1.338-1.546 1.446-2.792 1.743-3.664.87zm-129.33-16.368c-3.23-.433-6.61-1.228-7.224-1.7-.212-.164-.346-.644-.297-1.066.142-1.218 1.629-1.735 6.45-2.243 2.347-.247 4.485-.619 4.749-.826 1.2-.942 2.008-2.3 6.295-10.594 1.98-3.832 4.547-7.127 6.079-7.805.662-.293 2.898-.766 4.97-1.052 3.56-.49 4.036-.491 8.615-.018 7.913.817 8.099.958 15.219 11.509 1.048 1.554 2.826 3.712 3.95 4.796 2.06 1.988 2.21 2.064 6.338 3.223 1.473.413 1.052 1.702-.872 2.667-1.07.538-5.508 1.07-7.99.96-2.116-.093-5.56-2.099-8.974-5.227-2.253-2.064-2.671-2.751-2.674-4.395-.002-1.388-.015-1.406-2.206-3.055-1.212-.913-3.051-2.043-4.087-2.511-2.376-1.074-6.783-2.472-7.24-2.297-.205.08-.29.514-.208 1.07.11.749-.133 1.34-1.2 2.928-3.776 5.614-4.939 7.58-5.987 10.12-.716 1.734-1.551 3.197-2.224 3.896-.977 1.014-1.33 1.164-3.795 1.609-3.096.558-3.596.56-7.687.011zm281.76-4.118c-.518-.225-1.087-.68-1.263-1.01-.622-1.162-.353-4.513.706-8.789 1.096-4.422 1.059-5.231-.238-5.231-1.549 0-4.07 3.647-6.305 9.12-.724 1.772-1.317 3.44-1.318 3.705-.004.679-.47.977-2.662 1.705-2.097.697-2.863.784-3.127.356-.095-.154.575-2.93 1.49-6.17.915-3.24 1.794-6.59 1.953-7.446.337-1.809-.005-2.757-.993-2.757-.89 0-2.539 1.189-2.887 2.082-.16.409-.897 2.316-1.638 4.238-1.524 3.954-2.322 5.34-4.29 7.455-1.638 1.762-3.248 2.566-5.155 2.575-1.153.006-1.59-.16-2.467-.93-.587-.515-1.264-1.318-1.505-1.784-.241-.467-.545-.848-.675-.848s-.845.584-1.59 1.297c-2.19 2.1-5.752 2.893-8.054 1.795-1.366-.652-1.747-1.386-1.737-3.356l.008-1.682-1.308 1.219c-3.304 3.077-10.037 4.916-15.605 4.261-4.497-.528-6.733-.622-7.8-.325-1.615.45-2.73.074-2.85-.96-.054-.459-.022-1.137.07-1.506.209-.83 1.825-1.636 3.283-1.636 1.041 0 1.12-.075 1.95-1.858 1.849-3.975 3.175-11.564 2.797-16.003l-.192-2.249 2.46-1.836c1.899-1.417 2.551-1.761 2.858-1.507.293.244.397 1.323.397 4.132 0 5.399-1.21 10.173-3.975 15.698-1.302 2.601-1.845 3.972-1.6 4.037 4.713 1.25 7.238 1.53 9.737 1.076 4.17-.758 6.559-2.594 7.574-5.823.463-1.474.482-1.937.16-3.947-.734-4.562-2.29-7.64-5.637-11.148-2.613-2.739-3.693-3.422-7.343-4.643-2.516-.841-3.031-.91-6.873-.91-6.56 0-10.79.92-16.019 3.483-3.307 1.622-5.39 3.551-6.614 6.13-2.606 5.485-2.195 10.33 1.05 12.388 1.314.834 1.614.898 4.19.898 1.795 0 3.153-.157 3.843-.446 1.383-.578 1.59-.563 1.59.118 0 .83-2.569 2.355-4.602 2.731-5.174.957-9.881-1.319-11.907-5.757-1.184-2.595-1.51-5.376-.885-7.541 1.178-4.075 4.258-7.636 9.059-10.47 6.32-3.732 9.606-4.576 17.996-4.623 6.33-.035 7.67.173 11.296 1.754 2.585 1.126 8.291 5.075 9.996 6.918 1.83 1.976 3.594 5.333 4.474 8.512.32 1.158.625 2.146.675 2.197.051.05.452-.522.891-1.272 1.252-2.137 2.562-3.457 4.176-4.21 1.813-.843 3.774-.905 4.862-.152 1.347.933 1.825.981 3.025.307l1.135-.639 1.138.59c1.423.736 1.553 1.462.565 3.148-.959 1.637-1.811 4.103-2.394 6.923-.411 1.993-.409 2.303.028 3.394.597 1.493 1.544 1.82 3 1.035 2.266-1.221 3.546-3.28 5.891-9.474 1.587-4.19 3.067-5.714 6.242-6.426 1.21-.271 1.575-.232 2.632.28 1.672.812 2.063 1.557 2.254 4.29l.163 2.34 1.308-1.81c2.085-2.884 4.378-4.17 7.484-4.194 1.381-.011 1.77.108 2.337.71.863.92.799 1.448-.982 8.05-.75 2.78-1.367 5.352-1.37 5.714-.005.362.257.8.581.974.484.26 1.017.066 2.998-1.085 2.144-1.246 2.661-1.419 4.701-1.569 2.619-.192 2.955-.373 5.684-3.053 1.958-1.922 3.599-4.469 3.162-4.906-.131-.13-1.465-.235-2.964-.231-2.307.006-3.008.131-4.574.817-2.116.928-3.286 1.033-3.56.32-.277-.722 1.555-2.271 3.653-3.091 1.542-.603 2.482-.71 7.702-.881 5.476-.18 6.106-.258 7.987-.989 2.57-.998 4.142-1.042 4.779-.132.592.846.59 1.845-.004 2.44-.498.497-.64.535-3.814 1.013-2.694.405-5.405 1.772-7.665 3.863-1.731 1.602-3.206 3.971-3.213 5.161-.006.926 5.85 2.638 7.556 2.21 1.378-.347 2.603-1.785 2.493-2.928-.085-.887-.19-.979-1.208-1.063-1.35-.112-1.39-.366-.214-1.356 2.627-2.212 5.814-.522 4.58 2.43-.554 1.329-2.681 3.96-3.863 4.78-1.158.804-4.008 1.339-5.928 1.114-.818-.096-2.82-.522-4.45-.947-2.95-.768-3.733-.797-7.185-.264-.737.114-1.49.052-1.877-.155-.568-.305-.801-.204-1.934.841-1.88 1.734-4.297 2.268-6.306 1.394zm-33.834-3.76c1.744-.92 2.77-1.992 3.743-3.908.925-1.822 1.752-4.604 1.752-5.892 0-1.507-1.909-2.85-3.513-2.473-2.284.537-4.611 3.339-5.7 6.863-1.499 4.856.169 7.283 3.718 5.41zm68.368 3.11c-1.323-.692-1.635-1.248-1.634-2.913 0-4.365 2.183-10.423 4.847-13.46 1.892-2.155 5.76-3.164 7.375-1.924 1.21.93 1.741.985 2.944.309l1.136-.639 1.138.59c.626.326 1.186.833 1.243 1.128.058.295-.37 1.486-.949 2.648-1.513 3.03-2.485 6.916-2.32 9.267.061.863 1.128 1.914 1.943 1.914.964 0 3.01-1.561 4.132-3.154.52-.74 1.287-2.203 1.703-3.252.964-2.433 1.37-2.869 1.947-2.087.584.792.54 1.338-.29 3.542-.888 2.361-1.929 4.029-3.705 5.938-1.64 1.763-3.249 2.566-5.156 2.575-1.153.006-1.59-.16-2.468-.93-.586-.514-1.263-1.317-1.504-1.784-.241-.466-.545-.848-.675-.848s-.845.584-1.59 1.298c-2.181 2.09-5.944 2.916-8.117 1.78zm6.247-3.11c.652-.344 1.566-.98 2.03-1.413 1.784-1.66 4.059-7.553 3.492-9.045-.683-1.797-3.222-2.35-5.19-1.133-2.182 1.349-4.646 6.326-4.646 9.382 0 2.6 1.815 3.528 4.315 2.209zm-385.7 2.874c-.523-.63-.216-1.251 1.523-3.077l1.388-1.459-4.89-4.574c-2.69-2.516-5.092-4.687-5.337-4.824-.245-.137-.771-.767-1.17-1.399-.4-.632-1.328-1.564-2.064-2.07-2.164-1.49-7.062-6.475-6.95-7.073.15-.783 1.501-.801 2.97-.041.708.365 1.977.762 2.821.88 1.774.25 4.587 2.16 5.348 3.632.462.894 2.3 3.249 4.237 5.428.588.662 2.206 2.086 3.596 3.166s2.895 2.378 3.346 2.886c.451.508.92.92 1.04.917.507-.015 1.93-2.495 2.081-3.628.132-.982.474-1.524 1.724-2.735.858-.831 1.831-2.055 2.162-2.72.621-1.248 1.905-2.436 6.35-5.881 1.422-1.101 3.441-3.035 4.488-4.296 1.048-1.262 7.084-7.446 13.415-13.743 6.331-6.297 12.032-12.14 12.67-12.985.806-1.067 1.443-1.598 2.087-1.74.789-.173 3.784-2.679 8.695-7.275.512-.478.419-.623-2.028-3.154-1.41-1.458-3.418-3.733-4.46-5.054-1.043-1.322-2.404-2.757-3.026-3.189-.62-.432-2.443-2.195-4.05-3.917-3.475-3.729-17.082-16.286-18.995-17.531-.538-.35-.876-.892-1.006-1.614-.108-.597-.364-1.42-.569-1.83-.204-.408-.525-1.483-.711-2.389-.302-1.466-.565-1.867-2.414-3.675-2.024-1.978-2.61-2.988-2.261-3.897.094-.246.514-.447.932-.447.603 0 2.845 2.083 10.804 10.037 5.524 5.52 11.2 11.14 12.611 12.49 1.813 1.73 2.655 2.765 2.863 3.517.28 1.013 1.575 3.009 2.245 3.46.864.58 7.762 7.001 10.395 9.677 3.42 3.474 3.945 3.665 5.936 2.158 1.558-1.18 2.86-1.587 3.857-1.208 1.284.489 1.006 1.414-1.05 3.49l-1.837 1.854 1.39 1.487c1.506 1.61 1.658 2.095.896 2.857-.602.603-1.534.456-3.68-.58l-1.548-.747-1.523 1.013c-3.021 2.01-6.351 5.378-11.78 11.915-.735.886-2.056 2.167-2.936 2.845-2.602 2.01-5.992 5.368-6.58 6.522-.542 1.063-1.676 2.397-6.941 8.17-5.226 5.728-12.433 12.582-14.458 13.75-1.766 1.018-2.676 1.854-2.676 2.458 0 .962-1.89 3.322-5.01 6.255l-3.165 2.974.818 1.482c1.015 1.84 1.113 3.563.201 3.563-.339 0-1.214-.35-1.944-.779l-1.328-.779-1.698.755c-2.31 1.028-4.28 1.304-4.803.672zm196.06-6.88c-.257-.256-.467-.926-.467-1.486 0-.561-.065-1.02-.146-1.02-.08 0-.76.468-1.509 1.04-1.448 1.107-1.905 1.226-2.823.734-.725-.388-.77-2.011-.094-3.35 1.362-2.695 3.496-4.279 5.359-3.976.542.088 1.063.035 1.158-.118.094-.153.43-.278.748-.278.811 0 .734.684-.37 3.277-.678 1.595-.952 2.71-.966 3.935-.02 1.814-.145 1.988-.89 1.243zm-1.747-2.678c1.093-.834 2.47-2.811 2.47-3.547 0-.757-1.384-1.108-2.365-.6-.918.475-2.392 3.08-2.392 4.229 0 .94.994.904 2.287-.082zm17.509 2.756c-.345-.252-.532-.775-.532-1.486 0-1.187-.241-1.365-.85-.63-.214.257-.919.738-1.567 1.069-1.348.688-2.381.442-2.727-.648-.19-.597-.235-.605-.75-.139-1.318 1.194-5.03 1.72-7.083 1.005-1-.348-1.24-1.133-.528-1.724.32-.265.515-.177.9.41.432.66.697.749 2.247.749 3.399 0 4.264-.972 1.87-2.1-2.038-.961-3.344-2.007-3.344-2.678 0-.67 1.42-1.642 2.973-2.036 2.898-.734 4.383-.564 3.576.409-.297.358-.706.437-1.615.31-1.643-.227-2.979.179-3.09.94-.072.483.345.829 2.068 1.718 1.187.613 2.304 1.314 2.484 1.56.268.367.428.219.904-.837 1.166-2.59 3.188-4.126 5.428-4.126h1.158l1.244-2.751c1.63-3.602 1.598-3.55 2.301-3.81 1.495-.553 1.38.188-.57 3.696-1.986 3.574-3.932 8.75-3.695 9.832.074.339.233.85.354 1.137.266.633-.37.705-1.156.13zm-2.089-2.596c.887-.548 2.805-3.01 2.805-3.6 0-.132-.316-.448-.703-.701-1.322-.867-2.955.413-3.866 3.03-.676 1.941-.05 2.393 1.764 1.271zm-206.85-12.359c-1.706-.525-2.156-1.16-2.607-3.686-.38-2.131-.621-2.42-1.822-2.179-.448.09-1.464.007-2.258-.183-1.753-.42-2.602-.156-4.347 1.355l-1.23 1.065-2.675-.151c-4.946-.28-9.276-2.332-15.135-7.177-2.296-1.898-10.671-9.967-11.246-10.834-.598-.902-.68-2.142-.173-2.648.482-.482-11.636-12.508-13.88-13.775-.866-.489-1.915-1.23-2.331-1.646l-.757-.757-.98.729c-3.136 2.33-5.35.988-2.455-1.487l1.35-1.154-1.078-1.412C.382 148.13-.058 146.9.342 146.184c.452-.807.997-.583 2.584 1.064l1.503 1.56 1.127-1.055a80.71 80.71 0 0 1 2.864-2.498c1.702-1.414 1.733-1.466 1.559-2.66l-.177-1.218 5.057-5.205a667.101 667.101 0 0 0 12.153-12.788c1.138-1.226 2.384-2.786 2.769-3.465.428-.756 2.08-2.383 4.26-4.196 1.958-1.628 4.025-3.589 4.593-4.357 1.482-2.002 2.751-2.87 4.557-3.118.85-.116 1.893-.441 2.32-.722.94-.62 1.692-.388 1.94.598.258 1.029-.227 1.923-2.352 4.34-2.408 2.74-3.466 3.78-6.487 6.376l-3.786 3.254c-.708.608-2.374 2.52-3.703 4.247-3.642 4.733-7.259 8.561-9.477 10.029-1.932 1.278-11.535 10.51-13.098 12.59l-.783 1.043 1.987 1.708c1.092.94 3.351 2.946 5.02 4.46 1.668 1.513 4.678 4.222 6.688 6.02 8.57 7.662 13.173 12.323 15.233 15.42.561.843 1.563 2.062 2.227 2.709.984.958 1.207 1.38 1.207 2.28 0 1.241.239 2.046.608 2.046.407 0 3.571-5.035 4.765-7.584 1.275-2.722 2.009-5.16 2.95-9.813 1.261-6.23 1.862-8.63 2.452-9.798.566-1.121.577-1.38.233-5.79-.393-5.045-.188-18.172.332-21.289.178-1.062.66-2.35 1.19-3.184 2.04-3.2 7.393-7.051 10.665-7.672 2.602-.494 5.471-.38 6.247.249.623.504.669.762.627 3.494-.024 1.622-.123 3.493-.218 4.157-.212 1.465.324 7.445.95 10.63.853 4.324 2.402 8.356 5.893 15.336 4.98 9.958 6.112 12.922 7.748 20.298.609 2.749 1.04 5.508 1.04 6.655 0 2.028-.076 2.175-1.903 3.653-.288.233-.475.84-.475 1.547 0 2.37-.692 3.015-4.952 4.62-1.117.42-2.7 1.225-3.519 1.788-2.667 1.836-8.398 2.703-11.519 1.743zm82.575-2.255c-.65-.342-1.873-1.332-2.72-2.2-1.768-1.811-2.576-3.788-2.554-6.244.03-3.33 2.28-10.108 3.587-10.808.436-.234 1.01-.24 1.983-.022.976.219 2.069.206 3.803-.045 2.175-.314 2.552-.296 3.549.178.912.433 1.187.777 1.513 1.896.336 1.153.546 1.404 1.348 1.612 1.292.335 1.522 1.105 1.518 5.075-.006 5.001-.79 7.298-3.252 9.523-1.408 1.273-2.77 1.685-5.514 1.67-1.52-.008-2.399-.18-3.261-.634zm240.1-11.839c-1.923-.873-2.578-2.505-2.62-6.53-.017-1.71-.151-3.144-.297-3.188-.146-.044-1.421.887-2.834 2.068-5.263 4.4-9.023 5.823-11.725 4.438-2.144-1.1-3.098-2.611-3.098-4.908v-1.24l-1.356 1.552c-2.96 3.384-10.193 5.725-17.693 5.725-3.839 0-6.544-.595-9.501-2.088-2.615-1.32-2.962-2.353-1.48-4.4 1.87-2.582 2.993-2.63 3.617-.154.608 2.415 3.077 3.448 8.274 3.459 5.91.012 11.108-1.385 11.73-3.153.45-1.278-.87-2.36-5.778-4.742-4.924-2.39-9.468-5.398-10.378-6.87-.363-.588-.622-1.508-.622-2.21 0-1.092.16-1.347 1.71-2.725 2.593-2.306 5.708-3.709 10.925-4.92 3.24-.754 5.149-1.037 6.985-1.036 3.044 0 3.978.38 4.104 1.669.17 1.735-2.355 3.099-4.92 2.657-3.277-.565-5.443-.53-8.113.13-3.899.963-5.077 1.903-4.629 3.69.316 1.261 1.705 2.213 7.411 5.082 8.279 4.162 9.397 5.03 9.433 7.33.014.901.078.826.687-.812 1.145-3.082 4.9-9.77 6.48-11.543 3.018-3.388 8.414-6.462 11.711-6.672 1.503-.095 2.147.03 3.724.72 1.484.652 2.374.84 4.013.85 2.416.015 3.238.449 2.96 1.56-.171.679-.598 1.667-2.738 6.334-1.08 2.354-2.763 7.802-3.38 10.939-.453 2.306-.216 4.97.514 5.778 2.03 2.248 11.002-3.56 12.909-8.357.364-.918 1.832-4.042 3.261-6.943 1.43-2.9 3.032-6.58 3.562-8.178 1.121-3.383 2.024-4.446 4.433-5.224 1.95-.63 2.663-.634 3.541-.018 1.07.749.7 2.239-1.423 5.756-.998 1.652-1.814 3.104-1.814 3.227s-.614 1.22-1.365 2.438c-.751 1.218-2.25 4.087-3.33 6.375-2.287 4.84-2.71 7.022-1.581 8.151.842.843 1.618.792 3.824-.252 1.304-.617 2.708-1.702 4.706-3.635 1.566-1.516 3.264-2.893 3.773-3.061.823-.271 1.042-.616 1.992-3.13 1.337-3.542 2.835-5.74 5.995-8.798 4.262-4.125 7.243-5.45 12.3-5.47 2.666-.01 4.623 2.058 5.076 5.364.258 1.883-.437 2.686-2.498 2.884-1.848.177-2.228-.08-2.858-1.929-.7-2.052-1.193-2.46-2.967-2.453-1.638.007-3.44.694-5.057 1.928-1.434 1.094-3.865 4.735-4.992 7.477-2.234 5.436-.526 10.23 4.126 11.582 4.17 1.213 8.837-1.025 11.828-5.674 1.588-2.467 2.587-3.08 3.347-2.055.62.838.25 2.076-1.182 3.954-2.62 3.436-5.327 5.524-8.757 6.756-2.053.737-7.134.74-9.252.005-2.274-.789-4.9-3.347-5.84-5.69-.395-.98-.843-1.784-.998-1.784-.154 0-1.81 1.406-3.679 3.123-4.014 3.688-6.364 5.057-8.672 5.053-1.977-.004-4.246-1.06-5.328-2.479-.456-.598-1.016-1.087-1.245-1.087-.228 0-1.234.702-2.234 1.561-2.984 2.561-3.915 3.159-5.898 3.788-2.427.77-5.132.772-6.819.007zm-10.599-7.879c5.452-2.742 11.727-10.274 11.727-14.075 0-2.176-.817-2.973-3.706-3.621-2.646-.593-4.697.596-7.837 4.544-1.533 1.926-3.952 7.093-4.532 9.676-.324 1.443-.15 3.2.382 3.844.498.602 2.386.427 3.967-.368zm-52.336 5.295c-3.426-.77-5.78-3.106-6.855-6.801-.435-1.498-.463-2.084-.185-3.874.915-5.882 5.865-14.389 9.674-16.622 1.473-.863 4.535-1.633 6.519-1.64 3.976-.012 6.775 3.837 6.351 8.735-.26 3.005-1.198 6.165-2.729 9.19-3.304 6.525-6.373 9.785-10.137 10.766-.947.247-1.794.433-1.883.414l-.755-.168zm4.208-4.578c3.276-1.586 6.743-8.574 6.776-13.657.012-1.812-.133-2.546-.775-3.915-.434-.926-1.139-1.914-1.566-2.194-1.814-1.189-5.474.328-7.147 2.961-2.89 4.55-4.248 12.034-2.717 14.977 1.205 2.318 3.101 2.956 5.43 1.829zm126.03 3.994c-1.888-.58-4.726-3.327-5.2-5.034-.984-3.545.57-8.363 4.506-13.978 2.32-3.31 4.203-4.98 7.284-6.46 2.397-1.152 2.785-1.249 5.025-1.249 2.213 0 2.54.079 3.715.894 1.64 1.137 2.925 3.548 2.922 5.479-.008 4.798-3.747 12.45-8.258 16.897-2.197 2.165-3.967 3.159-6.447 3.617-2.053.38-1.721.395-3.547-.165zm5.403-3.54c.606-.252 1.419-.754 1.807-1.114 2.293-2.128 5.359-7.35 6.003-10.226.388-1.732-.098-5.143-.928-6.511-.958-1.579-2.637-2-4.639-1.163-1.55.648-5.25 4.532-6.28 6.592-1.393 2.784-1.656 3.904-1.587 6.744.075 3.064.7 4.633 2.212 5.555 1.152.703 1.957.732 3.412.124zm-311.18-23.946c-4.428-.559-9.315-2.175-11.855-3.92-2.413-1.659-7.054-6.082-8.212-7.826-2.334-3.518-3.549-10.553-1.758-10.186.268.055.822 1.009 1.3 2.237.457 1.177 1.196 2.764 1.642 3.526 1.008 1.72 4.615 5.552 6.062 6.44a35.562 35.562 0 0 1 2.417 1.683c.735.562 2.14 1.396 3.121 1.854 2.219 1.036 9.54 2.943 11.298 2.943.719 0 2.011.15 2.872.335 1.935.415 6.85-.253 11.42-1.553 4.293-1.22 5.006-1.567 8.123-3.94 3.45-2.626 6.902-6.858 9.032-11.07 1.127-2.231 4.548-11.295 5.28-13.993a140.65 140.65 0 0 1 1.495-5.02c1.448-4.513 3.443-11.731 4.151-15.018.37-1.718 1.245-5.33 1.944-8.03.699-2.698 1.495-5.977 1.769-7.286.274-1.308.933-3.85 1.465-5.65 1.828-6.188 2.926-11.037 2.702-11.937-.21-.846-.576-.955-3.964-1.183-3.225-.217-3.929-.455-3.929-1.328 0-.96 1.275-1.88 3.851-2.777 1.948-.679 2.727-.807 4.107-.676 7.68.727 9.029 1.032 9.233 2.09.112.583-1.087 5.077-2.194 8.228-.374 1.063-1.105 3.472-1.625 5.353-2.604 9.42-4.57 16.159-5.379 18.438-.923 2.6-1.285 3.83-2.929 9.962-.526 1.963-1.202 4.305-1.502 5.205-.3.9-1.083 3.778-1.741 6.396-1.668 6.635-2.704 9.655-4.656 13.567-3.699 7.413-8.56 13.471-13.224 16.479-4.06 2.62-11.53 5.486-17.003 6.524-2.576.49-9.908.562-13.312.133zm-58.459-10.743c-3.547-3.48-4.592-5.03-5.873-8.714-2.85-8.192-3.945-11.108-4.495-11.97-1.231-1.927-7.497-5.962-8.602-5.538-.21.08-.455.685-.544 1.343-.088.658-.244 1.281-.348 1.385-.103.103-1.332.208-2.73.232-2.435.043-2.606.002-4.052-.971-2.153-1.45-5.558-2.967-8.882-3.957-1.58-.47-3.118-1.012-3.419-1.203-.872-.555-4.487-6.22-5.512-8.638-2.377-5.61-4.135-11.212-4.868-15.513-.53-3.117-.53-3.182.039-3.82.798-.898 7.248-6.268 8.86-7.378 1.213-.835 2.568-2.867 2.568-3.85 0-.633 1.844-5.228 2.315-5.77.572-.657 1.945-.673 2.48-.028.269.324.405 1.262.399 2.751-.016 4.033-1.9 7.548-6.744 12.586-2.906 3.021-3.206 3.436-3.206 4.44 0 1.548 1.21 4.75 3.629 9.606 2.477 4.974 3.446 6.287 4.938 6.692 3.726 1.012 5.443 1.316 9.567 1.697 2.534.234 5.678.528 6.986.653 2.853.275 3.763.713 5.509 2.66 2.563 2.856 3.52 4.139 5.277 7.067 1.767 2.947 2.921 6.066 6.736 18.205.749 2.383 1.4 3.824 2.244 4.966.947 1.283 2.38 4.144 2.38 4.752 0 .309-.988 1.051-1.399 1.051-.255 0-1.72-1.231-3.253-2.736zm328.09.568c-2.092-1.055-.073-4.778 3.04-5.607 3.185-.848 4.159.86 2.027 3.558-1.791 2.268-3.368 2.905-5.067 2.049zm-286.08-8.865c-.765-.506-1.69-1.303-2.058-1.77-1.339-1.706-12.65-13.07-13.008-13.07-.203 0-1.522-1.175-2.932-2.612-3.713-3.783-11.023-10.61-12.529-11.702-.711-.515-2.82-2.49-4.685-4.389-1.865-1.898-4.067-3.855-4.893-4.347-1.198-.714-1.707-1.284-2.523-2.824-.81-1.528-.955-2.037-.7-2.447.519-.83.38-1.322-.534-1.908-.472-.303-2.01-1.821-3.42-3.375-3.317-3.657-7.995-7.893-9.695-8.778-.735-.384-1.71-1.05-2.165-1.483l-.827-.785-1.4.927c-1.03.682-1.674.904-2.44.84-1.484-.126-1.446-.755.162-2.71l1.381-1.678-1.226-1.394c-1.801-2.047-2.057-3.741-.591-3.913.611-.071 1.044.237 2.148 1.53l1.382 1.618 2.679-2.57c2.615-2.51 2.674-2.596 2.494-3.672-.183-1.098-.164-1.122 4.541-5.8 2.599-2.582 5.391-5.558 6.205-6.612.814-1.055 3.267-3.798 5.45-6.097 2.185-2.299 4.44-4.885 5.012-5.746 1.348-2.027 2.802-3.21 4.882-3.972 1.459-.534 2.224-1.174 5.945-4.973 11.245-11.48 16.905-17.71 16.905-18.612 0-.174-.672-.935-1.494-1.69l-1.493-1.374.196-1.75c.109-.962.317-1.984.464-2.27.446-.87 1.509-.574 3.035.845 2.676 2.486 3.07 2.57 6.45 1.387 2.594-.909 3.087.204 1.166 2.636-.654.828-1.19 1.743-1.19 2.035 0 .29.47.848 1.045 1.237s1.871 1.887 2.88 3.33c2.158 3.084 3.128 3.973 4.631 4.245.608.11 1.44.371 1.85.58.408.21 3.821 3.437 7.584 7.173 3.763 3.735 8.147 7.985 9.741 9.445 1.595 1.46 3.37 3.364 3.946 4.23.575.868 1.758 2.157 2.628 2.867 4.418 3.6 5.899 5.12 6.721 6.903 1.003 2.174 2.546 3.985 6.211 7.292 3.6 3.249 6.957 6.585 8.673 8.62l1.36 1.614 1.527-.98c1.71-1.098 2.593-1.06 3.046.133.298.783-.044 2.017-.788 2.839-.392.433-.357.608.318 1.603.85 1.253.885 1.43.45 2.243-.405.758-2.255.763-3.234.01-.715-.55-.725-.547-2.378.654-.914.663-2.597 2.267-3.742 3.563-1.144 1.297-5.425 5.75-9.512 9.895-4.088 4.145-8.703 9.104-10.256 11.019-4.345 5.358-6.285 7.598-7.565 8.738-.645.574-3.186 3.001-5.648 5.393-2.461 2.391-5.246 4.833-6.189 5.426-1.186.746-1.87 1.422-2.221 2.194-.564 1.24-1.862 2.766-5.808 6.83-2.445 2.518-2.62 2.777-2.18 3.218.851.852.531 2.024-.733 2.678-1.173.607-1.472.559-3.05-.486zm2.846-8c.124 0 .226-.51.226-1.132 0-.984.215-1.34 1.643-2.716.958-.923 1.905-2.192 2.27-3.04.507-1.178 1.147-1.866 3.336-3.588 2.637-2.073 4.655-4.012 9.547-9.171 1.918-2.024 2.676-2.61 3.92-3.035 1.565-.534 3.115-2.03 4.883-4.714 2.274-3.453 3.654-5.096 7.754-9.229 2.502-2.522 5.205-5.412 6.008-6.422.972-1.224 1.915-2.05 2.824-2.477.75-.352 1.967-1.177 2.703-1.833 1.72-1.534 6.54-6.224 6.54-6.364 0-.058-.234-.353-.52-.656-.286-.302-2.458-2.652-4.825-5.222-2.368-2.57-4.735-4.94-5.262-5.265-.526-.325-1.233-1.039-1.57-1.585-.338-.546-1.212-1.484-1.943-2.083-.731-.6-2.06-2.052-2.954-3.23-1.713-2.254-5.307-5.819-10.09-10.006-2.215-1.94-2.938-2.762-3.164-3.602-.22-.82-1.008-1.747-3.19-3.755-1.594-1.466-3.607-3.14-4.472-3.72-.866-.579-3.863-3.242-6.66-5.919-2.798-2.676-5.555-5.238-6.128-5.693-.572-.455-1.453-1.394-1.958-2.087-1.568-2.152-4.168-3.977-5.199-3.65-.746.238-6.63 6.098-7.737 7.705-.465.675-1.764 2.123-2.888 3.216-3.677 3.578-6.52 6.59-8.795 9.317-3.075 3.687-4.331 4.769-5.81 5.006-.813.13-1.424.457-1.838.983-.341.434-.58.83-.53.879.049.05.62-.1 1.267-.33.648-.23 1.752-.425 2.453-.433.701-.006 1.834-.298 2.518-.647 1.102-.562 1.58-.616 4.224-.476 3.5.186 7.734.912 10.86 1.863 1.225.374 2.88.83 3.675 1.017.795.186 2.253.746 3.24 1.244.988.499 2.761 1.222 3.942 1.607 3.252 1.063 7.105 2.995 8.666 4.347l1.399 1.21 2.247-.183c5.89-.48 13.097-.785 14.435-.61.817.106 1.911.453 2.431.769s1.79.72 2.824.9c3.749.649 5.455 2.222 3.675 3.389-.59.387-1.518.473-4.813.445l-4.081-.035-.65.815c-.574.72-.923.84-2.99 1.028-1.288.117-3.947.223-5.909.235-6.864.043-14.403 1.02-15.757 2.041l-.661.5 1 1.31c.963 1.262 1.226 2.371.816 3.442-.29.757-1.737 1.351-3.294 1.353-2.36.004-4.894.525-6.703 1.38-.94.446-1.71.919-1.71 1.052 0 .134 2.241.246 4.98.25 6.497.007 10.066.51 14.278 2.012 4.14 1.476 4.509 1.716 5.99 3.897 2.669 3.932 4.943 10.496 5.68 16.388.44 3.538.612 3.866 2.02 3.866 1.331 0 3.023.524 3.023.936 0 1.543-2.427 3.172-5.875 3.943-1.187.265-3.252.882-4.59 1.37-4.032 1.473-4.044 1.465-5.847-3.905-.627-1.867-1.367-3.834-1.645-4.372-.278-.537-1.101-3.072-1.83-5.632-.727-2.56-1.446-4.778-1.597-4.93-.859-.858-6.46-.374-6.774.586-.06.186.933.907 2.207 1.603 3.604 1.969 5.542 3.61 5.926 5.018.3 1.102-.374 2.574-2.764 6.036-3.288 4.761-4.847 6.352-6.773 6.912-1.716.5-3.436 2.077-3.436 3.153 0 .359.634 1.074 1.637 1.848 1.978 1.526 2.958 3.485 2.148 4.295-.43.43-.714.427-3.243-.032-1.524-.277-3.815-.83-5.09-1.232-1.276-.4-2.908-.728-3.627-.728-2.385 0-4.247-.563-4.902-1.482-.84-1.182-.746-1.91.369-2.832 3.936-3.255 10.628-10.848 10.628-12.06 0-.718-.174-.804-3.273-1.634-1.46-.391-4.064-1.386-5.786-2.21-3.683-1.764-4.383-2.55-6.531-7.332-1.678-3.737-1.78-5.12-.47-6.345l.885-.827-.93-.186c-1.538-.308-7.793-6.498-8.31-8.224-.381-1.273.283-5.227 1.222-7.275.79-1.725 2.493-3.343 3.955-3.758.689-.196 1.374-.462 1.523-.591.486-.423-.461-1.152-1.496-1.152-1.058 0-2.193-.845-2.193-1.632 0-.243-.435-.626-.966-.85-.531-.226-1.96-1.097-3.174-1.938-1.215-.84-2.443-1.528-2.73-1.528-.287 0-.83.433-1.206.962-1.075 1.51-5.029 5.45-6.342 6.317-1.077.713-10.486 9.798-13.318 12.862l-1.162 1.257.967.825c.532.454 1.205.959 1.495 1.122.876.495 6.778 5.778 9.547 8.546 1.429 1.429 3.272 3.013 4.095 3.52s1.498 1.048 1.498 1.203c0 .155 1.973 2.252 4.385 4.66 2.923 2.917 5.067 5.368 6.428 7.35 1.124 1.635 3.33 4.329 4.905 5.986a390.95 390.95 0 0 1 4.452 4.762c.875.962 2.146 2.142 2.824 2.622 2.479 1.757 4.09 3.27 4.921 4.62.894 1.454 6.478 7.205 9.997 10.297l2.071 1.82 1.186-1.151c.653-.633 1.288-1.151 1.412-1.151zm-6.463-82.654c-2.353-.573-4.243-2.57-5.196-5.491-.662-2.027-.256-6.44.856-9.296.519-1.335 1.147-2.595 1.395-2.801.248-.206 1.413-.47 2.59-.585 1.176-.116 2.876-.382 3.777-.592 3.201-.744 4.969.198 6.601 3.517.877 1.782.975 2.242.964 4.517-.014 2.723-.536 4.747-1.87 7.246-1.572 2.943-5.374 4.396-9.117 3.485zm6.37 10.47c.337-.234-1.269-1.001-3.546-1.693-5.684-1.727-14.222-3.052-14.698-2.282-.267.433.422 1.512 2.146 3.356l1.319 1.41 1.232-.619c.677-.34 1.633-.914 2.124-1.276.49-.361 1.14-.749 1.443-.86 1.042-.386 2.915.4 4.45 1.864l1.488 1.42 1.957-.616c1.077-.338 2.015-.655 2.085-.703zm69.723 75.158c-2.29-.714-3.523-3.113-3.511-6.84.008-2.562.064-2.793 3.654-14.869.17-.572.987-3.517 1.816-6.543.828-3.025 1.966-6.773 2.529-8.326 1.349-3.726 2.21-7.203 2.21-8.923 0-.95.165-1.543.52-1.864.758-.685 4.279-2.298 5.017-2.298.917 0 1.391.728 1.209 1.854-.15.917-3.037 9.41-6.449 18.963-.847 2.372-1.866 5.45-2.264 6.84s-.985 3.398-1.303 4.46c-1.088 3.63-1.932 8.176-1.926 10.367.006 1.96.082 2.249.735 2.778.566.458.987.55 1.877.407 2.294-.367 5.92-2.65 7.748-4.879.675-.823 1.806-2.207 2.513-3.076 3.647-4.485 6.465-6.684 11.709-9.14 4.48-2.099 6.269-2.626 10.635-3.135 7.412-.864 11.692-.612 19.383 1.144 1.032.236 2.612.576 3.51.757.9.18 3.107.724 4.906 1.209s5.41 1.362 8.026 1.95c2.616.588 6.027 1.445 7.58 1.903 1.554.459 3.56.934 4.46 1.057.9.122 2.705.543 4.013.936 7.536 2.26 22.952 3.676 33.74 3.1 6.138-.33 6.707-.407 9.959-1.36 3.639-1.068 8.036-3.733 9.005-5.457.762-1.358.82-2.142.237-3.258-1.094-2.094-3.694-3.442-9.094-4.715-2.81-.663-4.186-.814-7.729-.85-5.287-.053-5.053-.02-5.053-.732 0-.701 1.012-1.263 3.27-1.814 2.325-.569 11.428-.465 14.124.16 2.275.529 5.927 2.42 7.617 3.948 2.202 1.99 2.925 4.914 1.768 7.152-1.283 2.481-6.077 5.928-9.97 7.17-8.355 2.666-11.088 3.053-21.47 3.038-4.118-.006-8.332-.151-9.365-.324-1.033-.173-2.212-.28-2.621-.236-1.138.12-5.552-.346-7.878-.831-1.888-.395-7.66-1.273-12.634-1.922-1.063-.14-3.203-.596-4.756-1.015-3.77-1.019-12.648-3.06-15.607-3.588-1.308-.234-4.251-.772-6.54-1.195-7.432-1.375-10.014-1.67-14.715-1.675-7.11-.01-13.01 1.436-18.691 4.582-2.867 1.586-4.425 2.954-6.67 5.855-1.757 2.27-7.89 7.828-9.492 8.604-1.51.732-4.654 1.061-6.032.632zM57.449 99.038c-1.476-1.082-1.935-1.888-2.75-4.828-.89-3.216-.832-7.468.141-10.227 1.046-2.965 1.492-3.44 4.138-4.414 2.61-.96 3.375-.89 4.084.372.353.629.805.94 1.569 1.084 1.243.234 1.65.832 1.65 2.423 0 .71.267 1.532.706 2.179.416.611.916 2.096 1.216 3.61.43 2.172.455 2.843.152 4.31-.888 4.306-2.768 5.898-7.365 6.24-2.21.163-2.332.137-3.541-.75z"/></svg>