<svg width="273.6" height="279.2" version="1.1" viewBox="0 0 72.4 73.86" xmlns="http://www.w3.org/2000/svg"><g transform="translate(61.67 -60.67)"><path fill="#111" d="m-24.83 134c-0.4293-0.2821-0.8207-0.6178-1.165-0.9988-0.7583-0.9607-7.165-7.382-7.369-7.382-0.1152 0-0.8641-0.6607-1.661-1.475-2.099-2.138-6.239-5.993-7.093-6.609-0.4032-0.2905-1.6-1.407-2.656-2.483-1.056-1.069-2.304-2.176-2.768-2.454-0.6784-0.4022-0.9697-0.7244-1.43-1.596-0.4577-0.8618-0.5408-1.149-0.3969-1.379 0.2945-0.4691 0.2144-0.7467-0.3008-1.079-0.2688-0.1723-1.139-1.031-1.939-1.905-1.878-2.068-4.524-4.458-5.487-4.958-0.4403-0.2322-0.8525-0.5138-1.229-0.8393l-0.4672-0.4437-0.7935 0.5265c-0.5824 0.3828-0.9472 0.5106-1.382 0.4723-0.8385-0.0702-0.816-0.4244 0.0928-1.532l0.784-0.9446-0.6977-0.7882c-1.018-1.158-1.165-2.113-0.3328-2.208 0.3456-0.0415 0.5887 0.1308 1.216 0.8618l0.784 0.916 1.517-1.452c1.482-1.417 1.514-1.468 1.411-2.074-0.1056-0.6191-0.0928-0.635 2.573-3.276 1.472-1.462 3.053-3.141 3.514-3.736 0.4609-0.5969 1.85-2.145 3.088-3.442 1.235-1.299 2.512-2.76 2.839-3.246 0.7615-1.146 1.584-1.813 2.762-2.243 0.8321-0.3032 1.261-0.6607 3.371-2.807 6.369-6.485 9.575-10 9.575-10.51 0-0.0957-0.3807-0.5297-0.8448-0.9575l-0.848-0.7723 0.112-0.9893c0.064-0.5424 0.1792-1.12 0.2624-1.28 0.256-0.4916 0.8543-0.3286 1.722 0.4755 1.514 1.404 1.738 1.452 3.649 0.7818 1.472-0.5106 1.75 0.1149 0.6657 1.487-0.3712 0.4723-0.6752 0.9861-0.6752 1.152 0 0.1596 0.2656 0.4786 0.5919 0.699 0.3265 0.2202 1.056 1.066 1.632 1.88 1.219 1.743 1.77 2.243 2.624 2.397 0.3392 0.0638 0.8128 0.2106 1.046 0.3286 0.2304 0.1181 2.163 1.947 4.294 4.053 2.131 2.106 4.614 4.508 5.517 5.337 0.9025 0.8234 1.91 1.899 2.234 2.387 0.3265 0.4916 0.9951 1.216 1.488 1.618 2.506 2.036 3.342 2.895 3.807 3.9 0.5665 1.229 1.44 2.25 3.519 4.117 2.038 1.838 3.937 3.72 4.908 4.871l0.7713 0.9128 0.8639-0.5554c0.9697-0.6191 1.472-0.5969 1.725 0.0734 0.1696 0.4437-0.0254 1.139-0.4479 1.602-0.2208 0.2457-0.2016 0.3448 0.1824 0.9065 0.48 0.7086 0.4993 0.8075 0.256 1.267-0.2304 0.4276-1.28 0.4307-1.834 6e-3 -0.4064-0.3096-0.4096-0.3096-1.347 0.3702-0.5183 0.3733-1.472 1.277-2.119 2.011-0.6464 0.734-3.072 3.249-5.387 5.591-2.317 2.339-4.929 5.144-5.81 6.223-2.464 3.024-3.559 4.292-4.284 4.937-0.3649 0.3223-1.805 1.695-3.199 3.045-1.392 1.35-2.969 2.73-3.503 3.064-0.672 0.4212-1.056 0.8043-1.258 1.238-0.3202 0.7022-1.056 1.564-3.289 3.86-1.386 1.42-1.485 1.564-1.235 1.816 0.48 0.4818 0.3008 1.146-0.4159 1.513-0.6625 0.3416-0.8321 0.3191-1.728-0.2744zm1.613-4.516c0.0704 0 0.128-0.2873 0.128-0.6414 0-0.5554 0.1216-0.7564 0.9279-1.532 0.544-0.5233 1.082-1.238 1.286-1.72 0.2881-0.6638 0.6496-1.053 1.888-2.026 1.498-1.168 2.637-2.266 5.408-5.175 1.088-1.146 1.517-1.478 2.221-1.717 0.8864-0.3 1.763-1.149 2.765-2.662 1.29-1.95 2.07-2.879 4.395-5.215 1.418-1.423 2.947-3.053 3.405-3.625 0.544-0.6924 1.082-1.158 1.597-1.401 0.4257-0.1979 1.114-0.6638 1.533-1.034 0.9729-0.8681 3.702-3.516 3.702-3.593-0.07977-0.1369-0.179-0.2616-0.2945-0.3702l-2.733-2.953c-1.344-1.452-2.683-2.789-2.979-2.974-0.3518-0.2374-0.6539-0.5409-0.8895-0.8935-0.313-0.4385-0.6832-0.8334-1.101-1.174-0.6127-0.5561-1.173-1.167-1.673-1.825-0.9697-1.277-3.008-3.286-5.715-5.654-1.254-1.095-1.664-1.557-1.792-2.033-0.1215-0.4628-0.5696-0.9893-1.805-2.119-0.8034-0.748-1.649-1.45-2.531-2.103-0.4926-0.3286-2.192-1.832-3.776-3.344-1.133-1.095-2.288-2.167-3.466-3.215-0.4141-0.3511-0.7876-0.7472-1.114-1.181-0.8864-1.213-2.358-2.243-2.945-2.062-0.4223 0.134-3.754 3.448-4.384 4.352-0.2624 0.3828-0.9951 1.2-1.632 1.816-1.75 1.669-3.413 3.426-4.982 5.265-1.741 2.081-2.454 2.693-3.289 2.823-0.406 0.04302-0.7791 0.2423-1.04 0.5554-0.192 0.2458-0.3328 0.4691-0.3008 0.498 0.0254 0.0255 0.3519-0.0574 0.7168-0.1851 0.3649-0.1277 0.9919-0.2426 1.389-0.2457 0.3969-3e-3 1.04-0.1692 1.427-0.3638 0.6239-0.3191 0.8959-0.3511 2.394-0.2712 1.981 0.1085 4.379 0.517 6.146 1.053 0.6943 0.2106 1.632 0.4691 2.08 0.5744 0.4511 0.1085 1.28 0.4212 1.84 0.7054 0.5567 0.2807 1.562 0.6861 2.23 0.9065 1.843 0.6001 4.024 1.691 4.905 2.454l0.7935 0.6829 1.274-0.1021c3.336-0.2712 7.416-0.4437 8.176-0.3448 0.4641 0.0574 1.082 0.2553 1.376 0.4339 0.2945 0.1787 1.014 0.4053 1.6 0.5106 2.125 0.3638 3.088 1.254 2.08 1.915-0.3328 0.217-0.8607 0.2648-2.723 0.2489l-2.314-0.0255-0.368 0.4628c-0.323 0.4085-0.5215 0.4755-1.693 0.5808-0.7263 0.0638-2.234 0.1277-3.347 0.134-3.887 0.0255-8.157 0.5744-8.924 1.152l-0.3712 0.2807 0.5665 0.7403c0.544 0.7149 0.6943 1.34 0.4609 1.947-0.1632 0.4244-0.9824 0.7628-1.862 0.7628-1.338 0-2.775 0.2969-3.799 0.7787-0.5344 0.2521-0.9665 0.5202-0.9665 0.5935 0 0.0734 1.267 0.1404 2.815 0.1436 3.683 0 5.702 0.2873 8.088 1.133 2.342 0.8329 2.553 0.9702 3.392 2.202 1.51 2.221 2.799 5.929 3.217 9.255 0.2496 2.001 0.3456 2.186 1.146 2.186 0.7519 0 1.712 0.2969 1.712 0.5297 0 0.8713-1.376 1.794-3.328 2.224-0.8794 0.2122-1.747 0.4711-2.598 0.7755-2.285 0.8329-2.291 0.8297-3.313-2.205-0.2713-0.8375-0.5821-1.662-0.9313-2.47-0.16-0.3032-0.6239-1.736-1.037-3.178-0.4159-1.449-0.8192-2.704-0.9057-2.786-0.4863-0.485-3.662-0.2138-3.836 0.3286-0.0323 0.1085 0.5313 0.5106 1.248 0.9065 2.042 1.11 3.143 2.039 3.36 2.834 0.1696 0.6255-0.2144 1.455-1.568 3.408-1.862 2.691-2.741 3.588-3.836 3.905-0.9697 0.2807-1.946 1.174-1.946 1.781 0 0.2011 0.3617 0.6064 0.9279 1.044 1.12 0.8618 1.677 1.969 1.216 2.425-0.2432 0.2425-0.4064 0.2393-1.834-0.0159-0.9728-0.1818-1.935-0.4139-2.884-0.6956-0.7231-0.2234-1.648-0.4117-2.058-0.4117-1.347 0-2.4-0.3191-2.775-0.8361-0.4768-0.6702-0.4223-1.079 0.208-1.602 2.23-1.835 6.019-6.128 6.019-6.81 0-0.4053-0.096-0.4532-1.853-0.9255-1.122-0.3321-2.217-0.7481-3.276-1.245-2.086-0.9956-2.483-1.442-3.699-4.143-0.9504-2.113-1.008-2.892-0.2656-3.588l0.5024-0.4628-0.5281-0.1085c-0.8705-0.1692-4.416-3.67-4.707-4.643-0.2144-0.7181 0.16-2.953 0.6911-4.106 0.4479-0.9766 1.414-1.889 2.24-2.122 0.3905-0.1117 0.7776-0.2617 0.8641-0.335 0.2752-0.2393-0.2624-0.6511-0.848-0.6511-0.5985 0-1.242-0.4786-1.242-0.9223 0-0.134-0.2464-0.3511-0.544-0.4786-0.6253-0.3227-1.227-0.6884-1.802-1.095-0.6847-0.4754-1.382-0.8618-1.546-0.8618-0.16 0-0.4704 0.2426-0.6847 0.5424-0.608 0.852-2.847 3.077-3.59 3.569-0.608 0.4022-5.94 5.535-7.543 7.263l-0.6559 0.7086 0.544 0.4691c0.3008 0.2553 0.6816 0.5427 0.848 0.6318 0.4961 0.2775 3.839 3.265 5.408 4.826 0.8096 0.8107 1.853 1.704 2.32 1.992 0.4673 0.2873 0.848 0.5903 0.848 0.6765 0 0.0894 1.117 1.273 2.483 2.633 1.654 1.647 2.868 3.032 3.638 4.151 0.64 0.9255 1.888 2.444 2.781 3.384 0.848 0.8903 1.686 1.787 2.521 2.691 0.4929 0.5424 1.216 1.209 1.6 1.481 1.402 0.9893 2.314 1.845 2.783 2.607 0.5056 0.8234 3.67 4.069 5.665 5.816l1.171 1.031 0.672-0.6511c0.3712-0.3575 0.7294-0.648 0.8001-0.648zm-3.662-46.7c-1.331-0.3191-2.406-1.452-2.945-3.098-0.3744-1.146-0.144-3.638 0.4863-5.252 0.291-0.7533 0.6496-1.465 0.7903-1.58 0.1376-0.1181 0.8001-0.2648 1.466-0.3286 0.6657-0.0638 1.629-0.2202 2.141-0.335 1.811-0.4212 2.813 0.1117 3.739 1.985 0.4961 1.009 0.5503 1.267 0.544 2.553-0.01 1.538-0.304 2.68-1.056 4.09-0.8927 1.659-3.045 2.483-5.165 1.969zm3.606 5.916c0.192-0.134-0.7168-0.5649-2.01-0.9575-3.22-0.9766-8.054-1.723-8.324-1.289-0.1504 0.2457 0.24 0.8554 1.216 1.896l0.7488 0.7977 0.6945-0.3511c0.3839-0.1915 0.9279-0.5138 1.203-0.7212 0.2783-0.2043 0.6464-0.4212 0.8192-0.485 0.5887-0.217 1.651 0.2234 2.518 1.053l0.8448 0.8012 1.107-0.3479c0.608-0.1915 1.142-0.3702 1.184-0.3958z"/></g></svg>
