<svg xmlns="http://www.w3.org/2000/svg" viewBox="0 0 84.667 50.574"><path fill="#fff" d="M245.176 177.005c-.225-.217-.438-.394-.473-.394-.036 0-.217.073-.402.16-.297.14-.348.15-.415.083-.11-.11-.048-.29.196-.568l.208-.237-.263-.258a2.94 2.94 0 0 1-.39-.477c-.203-.347-.741-.804-.993-.844-.18-.029-.314-.132-.918-.711-.804-.771-1.27-1.278-1.27-1.38 0-.102.095-.16.39-.233.24-.06.276-.056.528.067.148.073.364.23.478.348.114.119.646.632 1.181 1.14.536.508 1.024.999 1.085 1.088.062.09.258.291.437.447l.325.281.184-.19a4.642 4.642 0 0 1 .468-.4c.156-.115.374-.322.484-.46.11-.138.473-.514.806-.836a21.436 21.436 0 0 0 1.052-1.103c.246-.283.485-.555.53-.603.113-.116.965-.194 1.081-.098.153.127.064.326-.207.468-.163.087-.715.593-1.578 1.449a128.351 128.351 0 0 1-1.615 1.584 7.41 7.41 0 0 0-.484.494l-.194.226.294.277c.247.235.288.297.254.4l-.099.334c-.075.258-.127.342-.208.34-.035 0-.247-.178-.472-.394zm-5.536-5.077c-.167-.186-.029-.35.58-.685.88-.485 1.402-.823 1.778-1.151.197-.173.426-.341.508-.376.162-.067.24-.187.155-.239a1.393 1.393 0 0 0-.326-.06c-.255-.026-.288-.015-.446.136-.22.212-.429.214-1.286.008-.74-.178-1.016-.278-1.754-.633-1.056-.509-1.507-1.214-1.286-2.01.074-.264.547-.692.892-.806.509-.17 2.191-.101 3.211.13 1.508.341 2.232.565 2.794.862.315.167.628.297.715.297.201 0 .693-.202 1.267-.52.965-.534 2.03-.956 2.879-1.14.774-.166 1.898-.187 2.167-.038.202.113.529.5.582.69.07.249.042.815-.054 1.062-.22.578-1.222 1.24-2.388 1.58-.537.156-.586.162-.852.098-.237-.057-.317-.056-.5.008-.37.128-.32.292.215.69.151.111.433.35.625.53.192.18.53.434.75.565.425.253.563.426.474.592-.087.162-.274.202-.583.122-.153-.04-.55-.11-.883-.157-.872-.126-.955-.156-1.4-.514-.596-.48-1.468-1.028-1.695-1.066-.23-.04-1.101.135-1.47.293-.267.115-1.488.833-1.702 1.002-.076.059-.395.175-.71.257-.316.083-.822.236-1.127.341-.723.253-.993.283-1.13.132zm-.69-.962c-.695-.674-1.93-2.04-2.084-2.304-.166-.288-1.014-1.161-1.393-1.437a2.492 2.492 0 0 1-.457-.446c-.288-.394-.796-.852-.943-.852-.07 0-.231.078-.358.176-.273.207-.463.264-.65.193-.217-.082-.17-.248.155-.551.175-.164.29-.314.29-.382 0-.06-.083-.21-.184-.332-.21-.25-.232-.39-.076-.474.088-.047.158-.033.368.076.5.262.696.166 1.654-.819.406-.416.827-.868.936-1.005.11-.137.465-.47.79-.742.652-.544.865-.764 1.184-1.225.431-.62 2.806-2.94 3.597-3.51.438-.318.585-.456.67-.633.06-.125.11-.253.11-.283 0-.059.818-.82 1.195-1.113.29-.225.321-.336.15-.521-.184-.196-.279-.508-.188-.617.093-.114.117-.107.418.131l.27.214.222-.158c.122-.087.396-.22.607-.296.665-.238.714-.074.15.507l-.387.398.373.348c.995.926 3.826 3.812 3.94 4.016.023.04.178.167.343.28.165.114.657.546 1.093.961.436.415.865.794.954.842.21.112.498.692.48.965-.013.17.027.228.41.62.232.238.516.543.63.677.196.23.807.806 1.471 1.386.256.222.308.248.358.18.16-.217.613-.394.777-.306.156.084.117.228-.14.515-.235.26-.238.27-.155.397a.545.545 0 0 1 .069.305c-.016.147-.04.177-.166.191a.494.494 0 0 1-.28-.069c-.16-.106-.199-.084-.722.408-.32.302-.354.353-.302.45a.502.502 0 0 1 .058.188c0 .044-.324.394-.72.78-.983.954-1.002.976-1.226 1.305-.255.373-1.53 1.619-1.704 1.661-.18.045-.258-.015-.22-.167.027-.11.01-.132-.127-.16-.326-.064-.23-.22.722-1.173.473-.473.942-.95 1.407-1.43.29-.301.657-.67.817-.82.158-.148.531-.531.828-.849l.54-.579-.54-.497a39.392 39.392 0 0 0-.913-.816 7.964 7.964 0 0 1-.683-.674c-.42-.479-.682-.734-.996-.968-.462-.346-1.393-1.365-1.751-1.92-.302-.468-1.32-1.631-1.773-2.025-.58-.505-1.158-1.116-1.275-1.345-.221-.432-.766-1.07-1.093-1.278a8.8 8.8 0 0 1-.601-.45l-.39-.316-.15.167c-.082.092-.148.224-.148.295 0 .233-.115.387-.547.733-.234.187-.663.603-.953.923-.727.805-2.008 2.104-2.262 2.294-.346.258-1.49 1.328-2.052 1.92-1.15 1.208-1.798 1.832-2.024 1.947-.263.133-.949.664-.949.734 0 .025-.132.177-.294.339l-.295.294.413.48c.22.257.437.517.65.78.13.165.657.72 1.172 1.233.515.514 1.018 1.062 1.117 1.218.1.156.32.392.492.523.41.315 1.322 1.286 1.322 1.407 0 .053-.056.132-.123.177a.595.595 0 0 0-.183.211c-.1.22-.247.16-.725-.303zm42.913-.497c-1.44-.088-3.516-.552-4.694-1.05-3.233-1.364-5.313-4.525-6.07-9.219-.2-1.24-.135-4.749.114-6.215.072-.423.154-.843.183-.933.056-.174.02-.337-.072-.337-.06 0-.607.341-1.352.844-.246.165-.684.438-.973.605-1.422.819-2.02 1.425-2.557 2.586-.215.465-.473 1.45-.549 2.097-.06.505-.137.642-.401.713-.275.073-.741.043-.861-.056-.1-.082-.098-.113.074-1.394.23-1.711.098-3.499-.346-4.697-.09-.244-.208-.29-.342-.132-.044.05-.204.305-.357.566-.667 1.138-.815 1.377-.948 1.526-.079.087-.33.43-.558.762-.325.473-.633.82-1.416 1.596-1.122 1.114-1.63 1.495-2.713 2.04-1.468.736-2.413.854-3.574.444-.48-.169-1.143-.744-1.37-1.187-.12-.235-.26-.774-.26-.997 0-.284.154-.792.395-1.294.188-.394.318-.572.72-.992.423-.444.514-.514.67-.521.132-.005.188.015.202.077.01.047-.14.325-.33.618-.571.871-.748 1.431-.663 2.101.04.316.087.444.267.72.271.417.61.656 1.211.854.796.263 1.522.174 2.506-.304.644-.313 1.262-.785 2.076-1.583.971-.95 1.522-1.701 2.178-2.966.255-.491.524-.99.598-1.105.237-.374.73-1.76.781-2.19.026-.204.003-.292-.12-.522-.285-.52-1.027-1.138-1.713-1.425-1.298-.54-2.653-.367-4.031.513-.592.378-.657.142-.105-.383.634-.602 1.198-.865 2.138-.996.642-.091 1.53-.061 2.032.067.55.142 1.353.617 1.95 1.157.454.408.594.576.906 1.084.52.843.637 1.088.838 1.748.307 1.001.44 1.72.473 2.54.018.414.048.763.07.776.02.013.27-.226.555-.531.648-.701 1.58-1.43 2.284-1.784.632-.318 2.185-1.418 2.583-1.828.536-.553 1.092-1.57 1.313-2.401.137-.515.203-.562.717-.517.414.038.685.15.761.318.053.117.018.213-.308.858a14.182 14.182 0 0 0-.615 1.437 46.12 46.12 0 0 1-.404 1.113c-.41 1.057-.618 2.364-.663 4.15-.048 1.917.104 3.264.587 5.211.337 1.357.756 2.234 1.833 3.843.429.641.765.994 1.378 1.447.728.538.784.57 1.71.99.676.306 1.424.553 2.554.846 1.019.263 4.786.65 5.654.579.16-.013.94-.07 1.736-.125 3.032-.214 3.782-.333 6.293-1.005 1.289-.344 3.938-1.391 4.599-1.817 1.344-.866 2.233-1.705 2.616-2.468.409-.816.498-1.585.254-2.187-.225-.552-.796-1.181-1.478-1.626-.414-.272-.808-.424-1.42-.551-.776-.162-.736-.257.185-.431 1.135-.214 2.784.181 3.602.864.261.218.547.61.697.956.249.572.138 1.458-.29 2.343-.38.781-1.158 1.71-2.036 2.429-.62.508-1.933 1.338-2.614 1.652-2.526 1.165-5.63 2.103-7.909 2.39-2.027.256-6.362.42-8.18.308zm-41.644-4.627c-.572-.077-1.17-.218-1.279-.301-.037-.03-.06-.114-.052-.19.026-.214.288-.306 1.141-.396.416-.044.795-.11.841-.146.212-.167.356-.407 1.114-1.875.35-.678.806-1.261 1.076-1.382.117-.051.513-.135.88-.185.63-.087.714-.087 1.525-.003 1.4.144 1.433.169 2.693 2.037.186.275.5.656.7.848.364.352.39.366 1.121.571.261.073.186.301-.154.472-.19.095-.975.189-1.414.17-.375-.016-.984-.372-1.588-.926-.4-.365-.473-.487-.474-.778 0-.245-.003-.248-.39-.54a4.72 4.72 0 0 0-.724-.444c-.42-.19-1.2-.438-1.28-.407-.038.015-.052.091-.038.19.02.132-.025.237-.212.518-.669.993-.875 1.341-1.06 1.79-.127.308-.274.567-.393.69-.173.18-.236.206-.672.285-.548.1-.637.1-1.36.002zm49.869-.73a.525.525 0 0 1-.224-.178c-.11-.205-.063-.799.125-1.555.194-.783.187-.926-.042-.926-.275 0-.721.645-1.116 1.614-.128.314-.233.609-.234.656 0 .12-.083.173-.47.301-.372.124-.507.14-.554.063-.017-.027.102-.518.264-1.091.162-.574.318-1.167.346-1.318.06-.32-.001-.489-.176-.489-.158 0-.45.211-.511.369l-.29.75c-.27.7-.411.945-.76 1.32-.29.311-.575.454-.912.455-.204.001-.281-.028-.437-.164a1.378 1.378 0 0 1-.266-.316c-.042-.082-.096-.15-.12-.15-.022 0-.149.103-.28.23-.389.371-1.019.512-1.426.317-.242-.115-.31-.245-.308-.594l.001-.298-.231.217c-.585.544-1.777.87-2.762.753-.796-.093-1.192-.11-1.381-.057-.286.08-.483.012-.504-.17a.835.835 0 0 1 .012-.266c.037-.147.323-.29.58-.29.185 0 .2-.013.346-.33.328-.703.562-2.046.495-2.831l-.033-.398.434-.325c.337-.251.452-.312.507-.267.051.043.07.234.07.731 0 .956-.214 1.8-.704 2.779-.23.46-.326.703-.283.714.835.22 1.281.27 1.724.19.737-.133 1.16-.458 1.34-1.03.082-.26.085-.343.028-.699-.13-.807-.405-1.352-.997-1.973-.463-.484-.654-.605-1.3-.821-.445-.15-.536-.162-1.217-.162-1.16 0-1.91.163-2.835.617-.585.287-.953.629-1.17 1.084-.462.972-.388 1.83.186 2.193.232.147.285.16.74.16.319 0 .56-.029.681-.08.245-.102.281-.1.281.02 0 .148-.454.417-.814.484-.916.17-1.749-.234-2.107-1.02-.21-.458-.268-.95-.157-1.334.208-.72.754-1.35 1.604-1.853 1.118-.66 1.7-.809 3.184-.818 1.121-.008 1.358.031 2 .31.458.2 1.467.9 1.769 1.225.324.35.636.944.792 1.506.057.206.11.38.12.39.008.008.08-.093.157-.226.221-.378.453-.612.739-.745.32-.15.668-.16.86-.027.239.165.324.174.536.054l.2-.113.203.105c.251.13.274.258.1.557-.17.29-.321.726-.424 1.225-.074.353-.073.408.005.601.106.264.273.322.53.183.402-.216.628-.58 1.044-1.677.28-.742.542-1.011 1.104-1.137.214-.048.279-.041.466.05.295.144.365.275.399.759l.028.414.232-.32c.369-.51.775-.738 1.325-.743.244-.002.313.02.413.126.153.163.141.256-.174 1.425-.132.492-.242.947-.242 1.011a.213.213 0 0 0 .103.173c.085.046.18.01.53-.192.38-.221.472-.252.832-.279.464-.033.523-.065 1.006-.54.347-.34.638-.79.56-.868-.023-.022-.26-.041-.524-.04-.408 0-.533.022-.81.144-.374.164-.582.183-.63.056-.05-.127.275-.401.646-.546.273-.107.44-.126 1.364-.156.969-.032 1.08-.046 1.413-.175.455-.177.733-.185.846-.023.105.15.105.327 0 .432-.089.088-.114.095-.676.18-.476.071-.957.313-1.357.683-.306.284-.567.703-.568.913-.001.164 1.035.467 1.338.392.243-.062.46-.316.441-.519-.015-.156-.034-.173-.214-.188-.24-.02-.246-.065-.038-.24.465-.391 1.029-.092.81.43-.098.235-.474.701-.683.846-.205.143-.71.237-1.05.197a7.837 7.837 0 0 1-.787-.167c-.522-.136-.66-.141-1.272-.047-.13.02-.263.01-.332-.027-.1-.055-.142-.037-.343.148-.332.307-.76.402-1.115.247zm-5.989-.664c.309-.164.49-.353.663-.692.164-.323.31-.815.31-1.044 0-.266-.338-.503-.622-.437-.404.095-.816.591-1.009 1.215-.265.86.03 1.289.659.958zm12.1.55c-.233-.123-.289-.22-.289-.516 0-.772.387-1.845.858-2.382.335-.382 1.02-.56 1.306-.34.214.164.307.174.521.054l.201-.113.2.104c.112.058.211.148.222.2.01.052-.066.263-.168.469-.268.536-.44 1.224-.411 1.64.01.153.2.339.344.339.17 0 .532-.276.73-.559.093-.13.228-.39.302-.575.171-.43.243-.508.345-.37.103.141.096.238-.052.628a2.944 2.944 0 0 1-.655 1.05c-.29.312-.575.455-.913.456-.204.001-.281-.028-.436-.164a1.374 1.374 0 0 1-.267-.316c-.042-.082-.097-.15-.12-.15-.022 0-.15.103-.28.23-.387.37-1.053.516-1.437.314zm1.107-.55c.115-.061.277-.174.359-.25.316-.295.718-1.338.618-1.602-.121-.318-.57-.416-.92-.2-.385.239-.821 1.12-.821 1.66 0 .46.32.625.764.391zm-68.265.508c-.093-.112-.039-.22.27-.545l.245-.258-.866-.81c-.476-.445-.9-.829-.944-.853a.974.974 0 0 1-.208-.248 1.55 1.55 0 0 0-.365-.367c-.382-.263-1.25-1.145-1.23-1.25.027-.14.266-.143.526-.008a1.873 1.873 0 0 0 .5.156c.313.044.81.382.946.642.082.159.407.576.75.961.104.117.39.37.636.56.246.192.512.421.592.51.08.091.163.164.184.164.09-.003.342-.442.369-.643.023-.174.083-.27.305-.483.152-.147.324-.364.382-.482.11-.22.338-.431 1.124-1.04a6.06 6.06 0 0 0 .795-.761c.185-.224 1.253-1.318 2.375-2.433 1.12-1.114 2.129-2.148 2.241-2.298.143-.189.256-.282.37-.308.14-.03.67-.474 1.539-1.287.09-.085.074-.111-.359-.558a14.444 14.444 0 0 1-.79-.895c-.184-.234-.425-.488-.535-.564-.11-.077-.432-.388-.717-.694-.615-.66-3.024-2.882-3.362-3.103a.41.41 0 0 1-.178-.285 1.463 1.463 0 0 0-.1-.324 2.258 2.258 0 0 1-.126-.423c-.054-.26-.1-.33-.427-.65-.358-.35-.462-.529-.4-.69.017-.044.09-.08.164-.08.107 0 .504.37 1.913 1.778a253.119 253.119 0 0 0 2.232 2.21c.32.306.47.49.506.622.05.18.28.533.398.613.153.103 1.374 1.24 1.84 1.712.604.615.697.649 1.05.383.276-.21.506-.281.682-.215.228.087.179.25-.185.618l-.325.328.246.263c.266.285.293.372.159.506-.107.107-.272.08-.652-.102l-.274-.133-.27.18c-.534.355-1.124.951-2.084 2.109a3.948 3.948 0 0 1-.52.503c-.46.355-1.06.95-1.164 1.154-.097.188-.298.424-1.23 1.446-.924 1.014-2.2 2.227-2.558 2.434-.312.18-.474.328-.474.435 0 .17-.334.588-.887 1.107l-.56.526.145.263c.18.325.197.63.035.63-.06 0-.214-.062-.344-.138l-.234-.138-.301.134c-.409.182-.758.23-.85.119zm.51-3.85c-.302-.094-.382-.206-.462-.653-.067-.378-.11-.428-.322-.386-.08.016-.26.001-.4-.033-.31-.073-.46-.026-.77.24l-.217.19-.473-.028c-.876-.05-1.642-.412-2.68-1.27-.405-.336-1.888-1.764-1.99-1.918-.105-.159-.12-.378-.03-.468.085-.086-2.06-2.214-2.456-2.438a2.381 2.381 0 0 1-.413-.291l-.134-.134-.174.128c-.555.413-.946.176-.435-.262l.24-.205-.19-.25c-.22-.286-.298-.503-.227-.63.08-.143.177-.104.458.188l.266.276.2-.187c.164-.151.334-.298.506-.441.301-.251.306-.26.276-.471l-.032-.217.895-.92a118.02 118.02 0 0 0 2.152-2.264c.2-.217.421-.493.49-.613.076-.134.367-.421.754-.743.346-.288.712-.635.813-.77.262-.355.487-.51.806-.553.15-.02.335-.078.41-.127.167-.11.3-.07.344.105.046.182-.04.34-.416.768a9.187 9.187 0 0 1-1.148 1.129l-.67.576c-.126.107-.42.446-.656.752-.644.837-1.285 1.515-1.677 1.774-.342.227-2.042 1.86-2.319 2.23l-.138.183.352.303c.193.167.593.521.888.789.295.267.828.747 1.184 1.065 1.516 1.356 2.331 2.181 2.696 2.73.099.149.277.365.394.48.174.169.214.244.214.403 0 .22.042.362.107.362.072 0 .632-.891.843-1.342.226-.482.356-.913.522-1.737.223-1.103.33-1.528.435-1.734.1-.2.101-.245.04-1.025-.069-.893-.033-3.216.06-3.768.03-.188.116-.416.21-.564.361-.566 1.308-1.248 1.888-1.357.46-.087.968-.067 1.105.044.11.089.118.135.11.618a8.094 8.094 0 0 1-.037.736c-.038.26.057 1.318.167 1.881.152.766.426 1.479 1.044 2.714.881 1.763 1.081 2.288 1.371 3.593.107.487.184.975.184 1.178 0 .359-.013.385-.337.646-.05.042-.084.15-.084.275 0 .42-.122.533-.876.817a3.505 3.505 0 0 0-.623.316c-.472.326-1.486.479-2.039.309zm14.614-.4a2.508 2.508 0 0 1-.481-.39 1.48 1.48 0 0 1-.452-1.104c.005-.59.404-1.79.635-1.913.077-.042.179-.043.351-.005.173.039.366.037.673-.008.385-.056.452-.052.628.031.162.077.21.138.268.336.06.204.097.248.239.285.229.06.27.196.269.898-.001.886-.14 1.292-.576 1.686-.25.225-.49.298-.976.296-.27-.001-.425-.033-.577-.113zm42.495-2.095c-.34-.154-.456-.443-.463-1.156-.003-.303-.027-.556-.053-.564-.026-.008-.251.157-.501.365-.932.78-1.598 1.031-2.075.786-.38-.194-.549-.462-.549-.868v-.22l-.24.274c-.524.6-1.804 1.014-3.131 1.014-.68 0-1.159-.105-1.682-.37-.463-.234-.524-.416-.262-.778.331-.457.53-.466.64-.028.108.428.545.61 1.465.612 1.046.002 1.966-.244 2.076-.558.08-.226-.154-.418-1.023-.84-.871-.422-1.676-.954-1.836-1.215a.83.83 0 0 1-.11-.39c0-.195.027-.24.302-.483.46-.408 1.01-.657 1.933-.871.574-.134.912-.183 1.237-.183.539 0 .704.067.726.295.03.307-.417.548-.87.47-.58-.1-.964-.094-1.436.023-.69.17-.9.336-.82.653.056.223.301.392 1.311.9 1.466.735 1.664.889 1.67 1.297.003.16.015.146.122-.145.202-.545.867-1.729 1.147-2.043.534-.599 1.489-1.143 2.072-1.18.266-.018.38.005.659.127a1.525 1.525 0 0 0 .71.15c.429.003.574.08.524.277-.03.12-.105.295-.484 1.12-.191.418-.49 1.381-.598 1.937-.08.408-.038.88.09 1.023.36.398 1.947-.63 2.285-1.48.065-.162.325-.715.578-1.228.252-.513.536-1.165.63-1.448.198-.599.358-.787.784-.924.346-.112.472-.113.627-.003.19.132.124.396-.251 1.018-.177.293-.321.55-.321.572 0 .02-.11.215-.242.431s-.399.723-.59 1.128c-.405.857-.479 1.243-.28 1.443.15.149.287.14.677-.045.231-.109.48-.301.833-.643.278-.269.578-.512.668-.542.146-.048.184-.109.352-.554.237-.627.502-1.016 1.062-1.557.754-.73 1.282-.964 2.177-.968.471-.002.818.364.898.95.046.333-.078.474-.441.51-.328.03-.395-.015-.507-.341-.123-.364-.211-.436-.525-.435-.29 0-.609.123-.895.341-.254.194-.684.838-.883 1.324-.396.962-.093 1.81.73 2.05.738.214 1.564-.182 2.093-1.005.28-.436.458-.545.593-.363.11.148.044.367-.21.7-.463.608-.943.977-1.55 1.195-.363.13-1.262.132-1.637 0-.402-.139-.867-.592-1.034-1.006-.07-.174-.149-.316-.176-.316-.027 0-.32.249-.651.553-.71.652-1.127.895-1.536.894-.35 0-.75-.187-.943-.438-.08-.107-.179-.193-.22-.193-.04 0-.218.124-.395.276-.529.454-.693.56-1.044.67-.43.137-.908.138-1.207.001zm-1.876-1.395c.966-.485 2.076-1.818 2.076-2.49 0-.386-.144-.527-.655-.642-.469-.105-.832.106-1.388.804-.271.342-.7 1.256-.802 1.713-.057.255-.026.566.068.68.088.107.422.076.702-.065zm-9.262.937c-.606-.136-1.024-.549-1.214-1.203-.077-.265-.081-.37-.033-.686.163-1.041 1.039-2.547 1.713-2.942.26-.153.803-.289 1.154-.29.703-.002 1.198.68 1.124 1.545a4.511 4.511 0 0 1-.483 1.627c-.585 1.155-1.128 1.733-1.794 1.906a2.748 2.748 0 0 1-.334.074zm.744-.81c.58-.28 1.194-1.517 1.2-2.417.002-.321-.023-.45-.137-.693-.077-.164-.202-.339-.277-.388-.321-.21-.969.058-1.265.524-.512.805-.752 2.13-.481 2.65.213.41.548.524.961.324zm22.306.707c-.334-.103-.836-.589-.92-.89-.174-.628.1-1.48.797-2.475.411-.586.744-.88 1.29-1.143.424-.204.493-.22.89-.22.39 0 .449.012.657.157.29.2.517.628.517.97-.001.85-.664 2.203-1.462 2.99-.39.383-.702.56-1.141.64-.363.068-.304.07-.628-.028zm.956-.626c.107-.045.252-.134.32-.198.406-.376.949-1.3 1.062-1.81.07-.306-.017-.91-.163-1.152-.17-.28-.467-.354-.821-.206-.274.114-.93.803-1.112 1.167-.247.493-.293.69-.28 1.194.012.542.123.82.39.983.204.124.347.13.605.02zm-55.075-4.239c-.784-.099-1.649-.384-2.098-.693-.427-.294-1.249-1.077-1.453-1.385-.414-.623-.63-1.868-.311-1.803.046.01.145.178.23.396.08.208.211.489.29.624.179.304.817.983 1.073 1.14.147.093.289.192.428.297.13.1.379.248.552.328.393.184 1.688.522 2 .522.127 0 .356.027.508.059.342.073 1.213-.045 2.02-.275.761-.216.887-.277 1.439-.697.61-.465 1.221-1.214 1.599-1.96.199-.395.804-2 .934-2.477.082-.297.17-.593.264-.888.257-.799.61-2.076.736-2.658.065-.304.22-.943.343-1.421.124-.478.265-1.058.313-1.29.049-.232.166-.68.26-1 .323-1.095.518-1.953.478-2.112-.037-.15-.102-.17-.701-.21-.572-.038-.696-.08-.696-.235 0-.17.225-.333.682-.491.344-.12.482-.143.727-.12 1.359.129 1.597.182 1.633.37.02.103-.192.899-.388 1.456a18.67 18.67 0 0 0-.287.948c-.461 1.667-.81 2.86-.952 3.263-.164.46-.228.678-.519 1.763a21.847 21.847 0 0 1-.266.921c-.053.16-.191.67-.308 1.132-.295 1.175-.479 1.71-.824 2.402-.655 1.311-1.515 2.384-2.34 2.916-.719.464-2.04.97-3.01 1.155-.456.087-1.753.1-2.356.023zm-10.346-1.9c-.628-.617-.813-.891-1.04-1.543-.504-1.45-.698-1.966-.796-2.119-.217-.341-1.326-1.055-1.522-.98-.037.013-.08.12-.096.238-.015.116-.044.226-.061.244-.018.018-.237.037-.483.042-.432.008-.462 0-.718-.172-.381-.257-.983-.525-1.572-.7-.28-.083-.552-.18-.605-.213-.154-.098-.794-1.101-.976-1.53-.42-.992-.732-1.983-.861-2.745-.094-.551-.094-.563.008-.676.141-.16 1.283-1.109 1.568-1.306.214-.148.455-.507.455-.681 0-.112.326-.925.41-1.021.1-.116.344-.12.438-.005.048.057.072.223.071.487-.003.714-.336 1.336-1.194 2.227-.514.535-.567.608-.567.786 0 .274.214.84.642 1.7.439.88.61 1.113.874 1.184.66.18.964.234 1.693.301.449.04 1.005.094 1.237.115.505.05.666.127.975.471.453.506.623.733.934 1.251.313.522.517 1.074 1.192 3.222.133.422.247.677.397.88.167.226.421.732.421.84 0 .055-.175.186-.247.186-.046 0-.304-.218-.576-.484zm58.068.1c-.37-.188-.013-.846.538-.993.564-.15.736.152.359.63-.317.401-.596.514-.896.363zm-50.633-1.57a1.888 1.888 0 0 1-.364-.313c-.237-.301-2.239-2.313-2.303-2.313-.036 0-.27-.207-.519-.462-.656-.67-1.95-1.878-2.217-2.071-.126-.091-.5-.441-.83-.778-.33-.335-.72-.682-.865-.769-.212-.126-.303-.227-.447-.5-.143-.27-.169-.36-.124-.432.092-.147.067-.234-.094-.338-.084-.054-.356-.323-.606-.597-.587-.648-1.414-1.397-1.715-1.554a2.045 2.045 0 0 1-.384-.263l-.146-.139-.248.165c-.182.12-.296.16-.432.148-.262-.022-.255-.133.029-.48l.245-.296-.218-.247c-.318-.363-.364-.662-.104-.692.108-.013.184.041.38.27l.245.287.474-.455c.463-.444.473-.46.441-.65-.033-.194-.029-.199.804-1.026.46-.458.954-.984 1.098-1.171.144-.187.578-.672.965-1.079.386-.407.785-.865.887-1.017.238-.359.495-.568.863-.703.26-.095.394-.207 1.053-.88 1.99-2.032 2.992-3.135 2.992-3.294 0-.03-.119-.166-.264-.3l-.265-.242.035-.31c.02-.17.056-.351.082-.401.08-.154.267-.103.538.149.473.44.543.455 1.14.245.46-.16.547.036.208.466-.116.148-.211.309-.211.361 0 .05.083.15.185.219s.33.334.51.589c.381.546.553.703.82.751.106.02.254.066.327.103.072.037.676.61 1.342 1.27s1.442 1.413 1.724 1.672c.282.258.597.595.698.748.102.154.311.381.465.507.783.638 1.044.907 1.19 1.222.177.385.45.705 1.1 1.29.637.576 1.23 1.166 1.534 1.526l.241.286.27-.174c.303-.194.46-.187.539.023.053.139-.008.357-.14.502-.069.077-.063.108.057.284.15.222.156.253.08.397-.072.134-.4.135-.573.002-.127-.097-.128-.097-.421.116-.162.117-.46.4-.662.63-.202.23-.96 1.018-1.683 1.752-.724.733-1.54 1.612-1.816 1.95-.77.948-1.112 1.345-1.339 1.547-.114.101-.564.531-1 .954-.435.423-.928.856-1.095.96-.21.132-.33.252-.393.388-.1.22-.33.49-1.028 1.21-.433.445-.464.49-.386.569.15.151.094.359-.13.474-.207.107-.26.1-.54-.086zm.504-1.415c.022 0 .04-.09.04-.201 0-.174.038-.237.29-.48.17-.164.338-.388.402-.539.09-.208.203-.33.59-.635.468-.366.824-.71 1.69-1.622.34-.359.474-.463.694-.538.277-.094.551-.36.864-.834.403-.611.647-.902 1.373-1.634.443-.446.921-.957 1.064-1.136.17-.217.338-.363.499-.439.133-.062.348-.208.479-.324.304-.272 1.157-1.102 1.157-1.126a.515.515 0 0 0-.092-.116l-.854-.925c-.42-.455-.838-.874-.931-.932a1.023 1.023 0 0 1-.278-.28 1.901 1.901 0 0 0-.344-.368 4.23 4.23 0 0 1-.523-.572c-.303-.4-.94-1.03-1.786-1.772-.392-.343-.52-.488-.56-.637-.038-.145-.178-.31-.564-.664a9.131 9.131 0 0 0-.791-.659c-.154-.103-.685-.574-1.18-1.048a35.53 35.53 0 0 0-1.083-1.007 2.286 2.286 0 0 1-.348-.37c-.277-.38-.737-.703-.92-.646-.132.042-1.173 1.08-1.37 1.364-.082.12-.311.376-.51.569a22.03 22.03 0 0 0-1.557 1.65c-.544.652-.767.844-1.028.885a.49.49 0 0 0-.325.174c-.06.077-.104.147-.094.156.008.008.11-.018.224-.058.114-.04.31-.076.434-.077.124-.001.325-.053.446-.114.195-.1.28-.11.748-.085.619.034 1.368.162 1.921.33.217.066.51.147.65.18.141.034.4.132.575.221.174.088.488.215.697.284.576.188 1.258.53 1.533.769l.248.214.398-.032c1.043-.085 2.318-.139 2.555-.108.145.018.338.08.43.136.092.056.317.127.5.16.664.114.965.393.65.6-.104.068-.269.083-.851.078l-.723-.008-.115.145c-.101.128-.163.149-.529.182-.227.02-.698.04-1.046.042-1.215.008-2.549.18-2.789.361l-.116.088.177.232c.17.224.217.42.144.61-.051.133-.307.239-.582.239-.418 0-.867.093-1.187.244-.167.079-.302.163-.302.186 0 .023.396.044.88.045 1.151 0 1.782.09 2.528.355.732.261.798.304 1.06.69.472.696.875 1.858 1.005 2.9.078.627.108.685.358.685.235 0 .535.093.535.166 0 .273-.43.562-1.04.697a7.95 7.95 0 0 0-.812.243c-.714.261-.716.26-1.035-.691a8.769 8.769 0 0 0-.291-.774c-.05-.095-.195-.544-.324-.996-.13-.454-.256-.847-.283-.873-.152-.152-1.144-.067-1.199.103-.01.034.166.16.39.284.638.348.982.639 1.05.888.053.196-.067.456-.49 1.068-.582.843-.857 1.124-1.199 1.224-.303.088-.608.368-.608.558 0 .063.113.19.29.327.35.27.524.617.38.76-.076.076-.127.075-.573-.005a8.904 8.904 0 0 1-.901-.218c-.226-.07-.515-.129-.643-.129-.421 0-.75-.1-.867-.262-.149-.21-.132-.338.065-.502.697-.575 1.881-1.92 1.881-2.134 0-.127-.03-.142-.579-.29a7.265 7.265 0 0 1-1.024-.39c-.652-.312-.776-.452-1.156-1.298-.297-.662-.315-.906-.083-1.124l.157-.145-.165-.034c-.272-.053-1.38-1.15-1.471-1.455-.067-.225.05-.925.216-1.287.14-.306.442-.592.7-.665.122-.035.243-.082.27-.105.086-.075-.082-.204-.265-.204-.187 0-.388-.15-.388-.289 0-.042-.077-.11-.17-.15a4.737 4.737 0 0 1-.563-.343c-.214-.149-.432-.27-.483-.27-.05 0-.147.076-.214.17-.19.267-.89.964-1.122 1.118-.19.126-1.856 1.734-2.357 2.276l-.205.222.17.147c.094.08.213.17.265.198.155.087 1.2 1.023 1.69 1.512.253.254.579.534.725.624.146.09.265.185.265.212 0 .028.349.399.776.825.517.516.896.95 1.137 1.301.2.29.59.766.869 1.06.265.279.527.56.788.843.154.17.38.379.5.464.438.31.723.578.87.817.158.258 1.147 1.275 1.77 1.822l.366.323.21-.204c.116-.112.228-.203.25-.203zm-1.144-14.63c-.416-.1-.752-.455-.92-.971-.117-.359-.045-1.14.152-1.646.091-.236.203-.459.247-.495.043-.037.25-.083.458-.103.208-.02.509-.069.669-.105.566-.132.879.035 1.168.622.155.316.172.397.17.8-.003.482-.095.84-.33 1.282-.279.52-.952.778-1.614.617zm1.127 1.854c.06-.042-.224-.177-.628-.3-1.006-.306-2.517-.54-2.601-.404-.047.077.075.268.38.594l.234.25.217-.11c.12-.06.29-.161.376-.226.087-.064.202-.132.256-.152.184-.068.516.07.787.33l.264.251.346-.109c.19-.06.357-.116.37-.124zm12.34 13.302c-.404-.126-.623-.55-.62-1.21 0-.454.01-.495.646-2.632.03-.101.174-.622.32-1.158.148-.535.35-1.199.45-1.474.238-.66.39-1.275.39-1.578 0-.169.03-.275.092-.33.134-.122.757-.408.888-.408.162 0 .246.13.214.328-.026.163-.537 1.666-1.142 3.357a25.7 25.7 0 0 0-.4 1.21c-.07.246-.174.602-.231.79-.192.642-.341 1.447-.341 1.834.002.347.015.398.13.492.1.082.175.098.333.072.406-.065 1.047-.469 1.371-.863l.445-.545c.645-.793 1.144-1.183 2.072-1.617.793-.372 1.11-.465 1.883-.556 1.31-.152 2.069-.107 3.43.203.182.042.462.103.621.134.16.032.55.128.869.214.318.086.957.24 1.42.345.463.105 1.067.256 1.342.337.274.081.63.165.789.188a5.82 5.82 0 0 1 .71.165c1.334.4 4.062.65 5.972.548 1.086-.058 1.187-.071 1.763-.24.643-.189 1.422-.66 1.593-.966.135-.24.145-.379.042-.576-.194-.37-.654-.609-1.61-.835-.497-.117-.74-.144-1.367-.15-.936-.01-.895-.003-.895-.13 0-.124.18-.223.58-.32.41-.101 2.022-.083 2.499.027.403.094 1.049.428 1.348.7.39.351.518.869.313 1.265-.228.439-1.076 1.049-1.765 1.269-1.478.472-1.962.54-3.8.538-.728-.001-1.474-.027-1.657-.058a2.43 2.43 0 0 0-.464-.041c-.2.02-.983-.062-1.394-.148-.335-.07-1.356-.225-2.236-.34a8.124 8.124 0 0 1-.842-.18 51.019 51.019 0 0 0-2.763-.635c-.231-.04-.752-.136-1.157-.211-1.315-.244-1.773-.296-2.604-.296-1.26-.002-2.303.254-3.309.81-.507.281-.782.523-1.18 1.037-.31.401-1.396 1.385-1.68 1.523-.268.13-.824.187-1.068.111zm-25.843-4.573c-.261-.191-.342-.334-.487-.854-.157-.568-.147-1.322.026-1.81.185-.524.264-.609.732-.781.462-.17.598-.158.723.066a.362.362 0 0 0 .278.191c.22.042.292.147.292.43 0 .125.046.27.125.385.073.109.162.371.215.639.076.385.08.503.027.763-.157.762-.49 1.044-1.304 1.105-.39.028-.413.025-.626-.133z" style="stroke-width:.264583" transform="translate(-218.357 -126.826)"/></svg>