<svg width="1808" height="1080" version="1.1" viewBox="0 0 478.37 285.75" xmlns="http://www.w3.org/2000/svg"><g transform="translate(-14.817)"><path d="m166.34 283.52c-1.2713-1.2228-2.4753-2.2232-2.6755-2.2231-0.20019 1.2e-4 -1.2234 0.40694-2.2738 0.90404-1.6715 0.79106-1.9637 0.84982-2.3424 0.47101-0.62193-0.62217-0.26815-1.6478 1.1078-3.2116l1.1796-1.3406-1.4839-1.4598c-0.81612-0.80287-1.8101-2.0155-2.2089-2.6947-1.1492-1.9574-4.1874-4.5389-5.6097-4.7664-1.0209-0.16331-1.7761-0.74825-5.185-4.0159-4.5458-4.3575-7.181-7.2202-7.181-7.8008 0-0.57177 0.54313-0.89607 2.2028-1.3153 1.3575-0.34291 1.5666-0.31638 2.9876 0.37917 0.84039 0.41131 2.0564 1.2957 2.7022 1.9652 0.64579 0.66958 3.649 3.5688 6.6737 6.4428 3.0248 2.8739 5.7836 5.6415 6.1308 6.1501 0.34717 0.50861 1.4568 1.6417 2.4658 2.518l1.8345 1.5932 1.0456-1.077c0.57509-0.59238 1.7649-1.6086 2.644-2.2583 0.87911-0.64968 2.1082-1.8188 2.7314-2.5979 0.62313-0.77916 2.6714-2.9068 4.5516-4.7281 1.8803-1.8213 4.5557-4.6232 5.9455-6.2264 1.3897-1.6032 2.7409-3.1375 3.0026-3.4096 0.63252-0.6577 5.4501-1.0936 6.1022-0.55216 0.85956 0.71364 0.36426 1.8358-1.1667 2.6434-0.92773 0.48936-4.0442 3.35-8.9182 8.1862-4.1207 4.0887-8.2279 8.1162-9.1271 8.95-0.89924 0.83377-2.128 2.09-2.7305 2.7917l-1.0955 1.2758 1.6568 1.5673c1.3941 1.3188 1.6222 1.6773 1.4388 2.2609-0.11989 0.38148-0.37336 1.2289-0.56326 1.8831-0.423 1.4572-0.71493 1.9352-1.1764 1.9259-0.19473-4e-3 -1.3942-1.0076-2.6655-2.2304zm113.02-23.6c-2.66-0.39087-3.9252-1.8049-3.9022-4.3613 0.0185-2.0442 0.84895-3.5488 3.173-5.7476 0.92423-0.87442 1.6394-1.628 1.5893-1.6747-0.0501-0.0466-0.59608-0.22279-1.2132-0.3914-1.0596-0.28946-1.1589-0.25656-1.7836 0.5914-3.1003 4.2081-12.304 6.0298-16.549 3.2758-2.5112-1.6289-2.9934-4.5651-1.0669-6.4957 2.1826-2.1872 5.929-2.0023 15.398 0.75979l2.0107 0.58648 0.62427-1.2242c1.6031-3.1435 4.124-11.554 4.124-13.759 0-1.6417-0.76118-2.3731-2.2228-2.1358-1.421 0.23069-1.3172-0.12673 0.22049-0.75911 1.6684-0.68618 2.09-0.6585 3.1152 0.20454l0.86122 0.72497 0.87091-0.57431c1.1092-0.73147 1.6842-0.72742 2.3572 0.0165 0.58776 0.64973 1.3422 0.76876 1.8231 0.28764 0.3303-0.33042 1.2982-0.089 1.2982 0.32383 0 0.47441-1.9897 1.7676-2.7035 1.7571-0.39332-6e-3 -1.0428-0.19208-1.4433-0.41397-0.40052-0.22189-0.89786-0.33831-1.1052-0.25872-0.20731 0.0796-1.064 2.3067-1.9038 4.9491-0.83976 2.6424-2.18 6.1919-2.9782 7.8877-0.79823 1.6958-1.3856 3.1897-1.3053 3.3197 0.0804 0.13003 0.69274 0.32881 1.3609 0.44175 1.063 0.17967 1.3779 0.0883 2.5189-0.7315 2.4514-1.7611 3.8751-2.2286 6.8163-2.2384 3.0128-0.0101 4.6985 0.60743 5.4934 2.012 0.40174 0.70983 0.38703 0.84906-0.16976 1.6085-1.4455 1.9716-4.6905 2.3939-9.7677 1.2711-1.4632-0.32358-2.9002-0.58833-3.1932-0.58833-0.78941 0-4.3074 3.5916-4.9882 5.0926-0.8697 1.9174-0.77776 2.8218 0.40749 4.0074 0.94623 0.94661 1.1365 1.0111 2.9823 1.0111 2.5432 0 3.5112-0.42955 5.9497-2.6402 1.681-1.524 2.0912-1.765 2.5689-1.5092 0.88492 0.47378 0.70112 0.88474-1.2089 2.7029-2.3683 2.2544-4.987 3.1225-8.0583 2.6712zm-10.144-8.3501c2.1284-0.4038 4.0038-1.3582 5.7436-2.9231 1.0705-0.96282 1.3879-1.4113 1.1059-1.5625-0.21754-0.11666-1.9245-0.57444-3.7932-1.0173-2.8058-0.66492-3.9285-0.78779-6.4448-0.7053-3.7407 0.12261-4.6693 0.6165-4.8142 2.5604-0.21356 2.8653 3.5365 4.533 8.2027 3.6477zm22.345-3.4199c2.0636-1.8682-1.6151-3.27-5.5067-2.0984-1.6502 0.49681-3.5605 1.5772-3.2817 1.856 0.41116 0.41133 4.0331 0.94057 6.0256 0.88047 1.6233-0.049 2.2795-0.20052 2.7628-0.63812zm-156.5 6.683c-0.94756-1.0474-0.16358-1.9732 3.2772-3.8698 4.9745-2.742 7.9193-4.6486 10.044-6.5026 1.1155-0.97347 2.4101-1.9282 2.8771-2.1217 0.90987-0.37703 1.3478-1.0562 0.87105-1.3509-0.16057-0.0993-0.99081-0.25186-1.845-0.3391-1.4345-0.1465-1.6266-0.0881-2.5165 0.76575-1.2523 1.2015-2.4253 1.2086-7.267 0.0436-4.1881-1.0077-5.7444-1.569-9.914-3.5754-5.9636-2.8696-8.5128-6.8557-7.2631-11.357 0.41414-1.4917 3.0868-3.9076 5.0415-4.557 2.8728-0.95456 12.379-0.56909 18.139 0.73546 8.5233 1.9307 12.614 3.1938 15.792 4.8764 1.7734 0.93889 3.5447 1.6732 4.0362 1.6732 1.1372 0 3.9176-1.1399 7.1604-2.9356 5.4509-3.0185 11.472-5.4022 16.262-6.4382 4.3734-0.94593 10.728-1.0585 12.242-0.21687 1.1425 0.63534 2.9919 2.8237 3.293 3.8966 0.39528 1.4084 0.23466 4.6029-0.30172 6.0005-1.2534 3.2659-6.9104 7.0072-13.498 8.927-3.0336 0.88404-3.3094 0.91592-4.8104 0.55569-1.3355-0.32052-1.7906-0.31336-2.8222 0.0444-2.0969 0.72713-1.8103 1.6475 1.212 3.8925 0.85615 0.63595 2.4446 1.9872 3.5298 3.0028 1.0852 1.0156 2.9906 2.4513 4.234 3.1905 2.4039 1.429 3.1858 2.4048 2.6818 3.3468-0.49018 0.91626-1.5489 1.1381-3.2931 0.68991-0.86603-0.22252-3.113-0.62507-4.9932-0.89453-4.9214-0.70531-5.3946-0.87898-7.9103-2.9035-3.3614-2.7051-8.2892-5.8055-9.5721-6.0223-1.295-0.21888-6.2218 0.76419-8.3034 1.6568-1.5086 0.64689-8.4105 4.7055-9.6222 5.6582-0.42666 0.33547-2.2326 0.99116-4.0132 1.4571-1.7806 0.46592-4.6421 1.3348-6.3588 1.9308-4.0912 1.4204-5.6134 1.5969-6.3879 0.74068zm-3.8976-5.4311c-3.9319-3.8094-10.909-11.525-11.774-13.02-0.94092-1.6264-5.7307-6.5633-7.8762-8.1182-0.85035-0.61625-2.009-1.7513-2.5748-2.5224-1.6315-2.2234-4.4982-4.814-5.327-4.814-0.39737 0-1.3103 0.44688-2.0287 0.99306-1.5435 1.1735-2.6167 1.4947-3.6637 1.0965-1.2319-0.46855-0.97083-1.403 0.87118-3.1179 0.9878-0.91965 1.635-1.7714 1.635-2.1518 0-0.34628-0.46819-1.1902-1.0404-1.8754-1.1857-1.4198-1.3116-2.213-0.42634-2.687 0.49698-0.26608 0.89283-0.18299 2.0754 0.43561 2.8292 1.4799 3.9328 0.93369 9.35-4.6279 2.289-2.35 4.6679-4.9057 5.2864-5.6793 0.6185-0.77363 2.6251-2.6582 4.4591-4.188 3.6889-3.077 4.893-4.322 6.6968-6.924 2.433-3.5098 15.853-16.612 20.319-19.837 2.4776-1.7895 3.3045-2.569 3.7902-3.5727 0.34168-0.70607 0.62122-1.4258 0.62122-1.5993 0-0.33215 4.6189-4.6354 6.7468-6.2858 1.6366-1.2693 1.8175-1.9002 0.84409-2.9439-1.0334-1.108-1.5694-2.8757-1.0587-3.4913 0.53229-0.6416 0.66315-0.60031 2.367 0.74702l1.5207 1.2025 1.2558-0.89215c0.69066-0.49069 2.2365-1.2427 3.4351-1.6712 3.756-1.3426 4.0275-0.41592 0.84005 2.8672l-2.1828 2.2484 2.1085 1.9638c5.618 5.2325 21.614 21.536 22.263 22.69 0.13022 0.23181 0.99973 0.94544 1.9323 1.5858 0.93252 0.64038 3.7116 3.0834 6.1758 5.429 2.4642 2.3455 4.892 4.4849 5.3952 4.754 1.181 0.6317 2.8109 3.9154 2.7073 5.4542-0.0646 0.95899 0.15278 1.2877 2.3173 3.5051 1.3137 1.3458 2.9152 3.0658 3.559 3.8223 1.106 1.2997 4.5598 4.552 8.3137 7.8286 1.4418 1.2585 1.7353 1.4062 2.0231 1.0185 0.90535-1.2193 3.4587-2.2242 4.3879-1.7267 0.8825 0.47246 0.65896 1.2884-0.79672 2.9081-1.3193 1.468-1.3412 1.5242-0.87141 2.2415 0.27307 0.41693 0.44083 1.1637 0.38715 1.7233-0.08 0.83408-0.22473 1.0024-0.93142 1.0835-0.46019 0.0528-1.1719-0.12373-1.5816-0.39226-0.91014-0.59658-1.1244-0.47523-4.0792 2.3098-1.8084 1.7045-2.0013 1.9907-1.7093 2.5365 0.18101 0.33833 0.32911 0.81712 0.32911 1.064 0 0.24685-1.8322 2.2296-4.0714 4.406-5.5492 5.3936-5.6629 5.5145-6.9289 7.3746-1.4342 2.1071-8.6457 9.1421-9.6229 9.3875-1.0164 0.25521-1.4602-0.0831-1.2433-0.94781 0.15473-0.61677 0.0542-0.74218-0.7191-0.89689-1.8386-0.36787-1.2954-1.2508 4.0803-6.6313 2.7386-2.7411 6.317-6.3775 7.9521-8.0808 1.635-1.7033 3.7085-3.7863 4.6077-4.6287 0.89925-0.84248 3.0068-3.0034 4.6835-4.802l3.0485-3.2702-3.0485-2.8103c-1.6767-1.5457-3.9966-3.6192-5.1554-4.6079-1.1588-0.98865-2.8979-2.7014-3.8645-3.8062-2.3697-2.7081-3.8493-4.1483-5.6221-5.4727-2.6132-1.9521-7.8695-7.7136-9.895-10.846-1.7098-2.6442-7.4626-9.2166-10.014-11.44-3.2775-2.8568-6.5496-6.3071-7.2102-7.6029-1.2444-2.4408-4.3279-6.0466-6.1757-7.2217-0.654-0.41592-2.1821-1.5587-3.3957-2.5394l-2.2066-1.7832-0.84041 0.94094c-0.46221 0.51751-0.8404 1.2671-0.8404 1.6657 0 1.3168-0.64834 2.1861-3.0875 4.1401-1.3266 1.0627-3.7498 3.412-5.3848 5.2207-4.1108 4.5474-11.348 11.883-12.783 12.955-1.953 1.4604-8.414 7.5081-11.594 10.852-6.4918 6.8268-10.157 10.353-11.436 11.002-1.4803 0.75141-5.3602 3.7516-5.3602 4.1448 0 0.13883-0.74735 1-1.6608 1.9138l-1.6608 1.6614 2.3296 2.7174c1.2813 1.4946 2.9316 3.4772 3.6673 4.4058 0.73575 0.92861 3.7173 4.0635 6.6258 6.9664 2.9084 2.9029 5.7493 5.9994 6.3131 6.8811 0.56381 0.88173 1.8134 2.2099 2.7768 2.9515 2.3179 1.7842 7.4716 7.2702 7.4716 7.9533 0 0.29654-0.31382 0.74485-0.69737 0.99625-0.38356 0.2514-0.84888 0.78979-1.0341 1.1964-0.56845 1.2481-1.3942 0.90241-4.095-1.7141zm242.46-2.8119c-8.1401-0.4964-19.867-3.117-26.521-5.9267-18.265-7.7127-30.021-25.569-34.294-52.088-1.1292-7.0093-0.76704-26.832 0.64161-35.115 0.40703-2.3935 0.87257-4.7663 1.0345-5.273 0.31562-0.98735 0.12055-1.904-0.40514-1.904-0.34059 0-3.4302 1.9278-7.6402 4.7673-1.3898 0.93732-3.8646 2.4751-5.4996 3.4174-8.0312 4.6283-11.413 8.0496-14.447 14.615-1.2124 2.6238-2.6706 8.1924-3.102 11.846-0.33675 2.852-0.77212 3.6248-2.2693 4.028-1.5458 0.4164-4.1867 0.24455-4.8624-0.31638-0.55959-0.46461-0.55043-0.63587 0.42153-7.8751 1.2979-9.6668 0.55242-19.766-1.9592-26.542-0.50905-1.3733-1.1722-1.6287-1.9305-0.74346-0.24522 0.28623-1.1513 1.7248-2.0136 3.1969-3.7693 6.435-4.6077 7.7833-5.3624 8.6242-0.44041 0.49069-1.8579 2.4288-3.1498 4.3069-1.8389 2.6731-3.5757 4.6314-7.9973 9.0172-6.3424 6.291-9.215 8.4498-15.331 11.521-8.2959 4.1658-13.632 4.8302-20.193 2.5143-2.7098-0.95644-6.4567-4.2057-7.7365-6.7089-0.6794-1.3289-1.4786-4.3734-1.4786-5.6325 0-1.6062 0.87729-4.4732 2.2385-7.3155 1.0626-2.2188 1.7939-3.2275 4.0621-5.6027 2.3918-2.5046 2.9056-2.9031 3.7959-2.9443 0.73992-0.0343 1.0579 0.0892 1.1301 0.43908 0.0552 0.26771-0.78436 1.8376-1.8658 3.4887-3.2248 4.9237-4.2215 8.086-3.7422 11.874 0.22554 1.7825 0.49497 2.508 1.5103 4.067 1.5331 2.354 3.444 3.7011 6.8429 4.8241 4.4979 1.4861 8.6003 0.98849 14.159-1.7174 3.6371-1.7703 7.129-4.4323 11.729-8.9412 5.4855-5.3768 8.5975-9.6145 12.307-16.758 1.4437-2.7806 2.9629-5.5909 3.3759-6.2451 1.3374-2.1184 4.1288-9.9389 4.4173-12.376 0.13606-1.1492 0.0199-1.6481-0.68687-2.947-1.6012-2.9431-5.7956-6.4335-9.6722-8.0489-7.3323-3.0554-14.992-2.0828-22.778 2.8922-3.3456 2.1378-3.7091 0.80399-0.58879-2.1608 3.5796-3.4013 6.7657-4.8873 12.081-5.6348 3.6302-0.51055 8.6415-0.34144 11.478 0.38734 3.1103 0.79921 7.6428 3.4862 11.019 6.5325 2.5616 2.3111 3.3514 3.2565 5.1193 6.1282 2.9312 4.7612 3.597 6.1492 4.7363 9.8745 1.7301 5.657 2.4857 9.7184 2.6711 14.357 0.0933 2.3352 0.26974 4.3076 0.39204 4.3832 0.1223 0.0756 1.5323-1.2777 3.1334-3.0073 3.6652-3.9595 8.932-8.0696 12.912-10.076 3.5659-1.7979 12.343-8.0098 14.592-10.328 3.0316-3.1241 6.1721-8.8654 7.4203-13.566 0.77317-2.9114 1.1458-3.1799 4.0512-2.9197 2.3353 0.20912 3.8672 0.84916 4.2984 1.7958 0.30096 0.66082 0.10708 1.2008-1.741 4.848-1.1438 2.2574-2.7098 5.911-3.4799 8.1191-0.77016 2.2081-1.7964 5.0376-2.2806 6.2877-2.3126 5.9708-3.4906 13.354-3.7415 23.451-0.26911 10.829 0.58804 18.437 3.3161 29.437 1.9016 7.6675 4.2676 12.63 10.352 21.713 2.4273 3.6237 4.3244 5.615 7.7909 8.178 4.1091 3.0381 4.4287 3.2232 9.6614 5.5929 3.8184 1.7292 8.0418 3.1286 14.433 4.7821 5.7489 1.4873 27.036 3.6657 31.942 3.2687 0.89924-0.0728 5.3138-0.39095 9.81-0.70703 17.129-1.2042 21.365-1.8804 35.551-5.6746 7.2841-1.9482 22.253-7.8619 25.985-10.266 7.5994-4.8947 12.62-9.632 14.783-13.947 2.3093-4.6088 2.8142-8.9605 1.4338-12.359-1.267-3.1193-4.4932-6.6708-8.3446-9.186-2.3446-1.5312-4.5705-2.3949-8.0216-3.1127-4.392-0.91348-4.1625-1.45 1.0405-2.4324 6.4122-1.2108 15.728 1.0239 20.35 4.8815 1.4722 1.2288 3.0927 3.4498 3.939 5.3989 1.4039 3.233 0.78169 8.2423-1.6447 13.241-2.1414 4.4115-6.5376 9.6587-11.496 13.722-3.5083 2.8747-10.923 7.5609-14.769 9.3345-14.274 6.5822-31.808 11.882-44.686 13.506-11.451 1.4443-35.949 2.366-46.226 1.7393zm-143.88-7.9961c-2.8861-1.252-3.9347-3.7907-3.137-7.5947 0.57935-2.7628 1.6384-4.676 3.562-6.4346 2.3769-2.1732 4.4661-3.1152 7.2607-3.2738 1.9973-0.11332 2.3692-0.0508 3.0883 0.51875 1.1075 0.87731 1.028 1.4006-0.29672 1.9544-1.0481 0.43808-1.1414 0.43208-1.573-0.10106-1.1398-1.4081-2.4265-1.5613-4.602-0.54782-3.3116 1.5427-5.6167 5.3934-5.633 9.4101-0.0112 2.6128 0.46701 3.504 2.3886 4.4565 2.4916 1.235 4.9522 0.5304 7.4582-2.1357 1.5699-1.6703 3.3728-4.8097 3.3728-5.8733 0-0.35878 0.34873-0.77601 0.87706-1.0493 1.1023-0.57024 1.1213-0.56894 1.4803 0.10205 0.21878 0.40897 0.0607 1.4394-0.59862 3.9011-0.49276 1.8399-0.81019 3.4299-0.70538 3.5333 0.29364 0.28972 3.485-3.2785 4.1074-4.5924 0.30412-0.64205 0.64307-1.3521 0.75322-1.578 0.25982-0.53272 2.9308-1.5845 3.1447-1.2383 0.0901 0.14575-0.0971 0.71022-0.4158 1.2544-0.31875 0.54413-0.85539 1.9903-1.1926 3.2138-1.0912 3.9596-0.72489 4.48 1.5214 2.162 1.8269-1.8852 2.1211-2.5457 3.387-7.6045 1.0659-4.2596 1.1018-4.3413 2.2337-5.0906 1.3531-0.89577 1.7578-0.95129 1.7574-0.24113-1.6e-4 0.28622-0.79315 3.0224-1.7622 6.0803-2.2406 7.0703-2.2824 7.3764-1.0081 7.3764 0.56507 0 1.1701-0.40111 2.0809-1.3795 0.7063-0.75873 1.2842-1.4948 1.2842-1.6356s0.20065-0.25609 0.4459-0.25609c0.83682 0 0.43907 0.98933-1.2871 3.2015-1.1673 1.496-2.3052 2.1514-3.7349 2.1514-1.0992 0-1.9639-0.81475-1.9639-1.8505 0-0.71409-0.49872-0.66863-0.90033 0.0821-0.46255 0.86461-2.0591 1.766-3.1304 1.7673-1.1818 9.5e-4 -1.8198-0.51283-2.119-1.708l-0.2417-0.96561-1.3377 1.1964c-1.55 1.3863-2.4205 1.69-3.4711 1.2112-0.64967-0.29612-0.73689-0.49877-0.64217-1.4923l0.10954-1.1496-1.701 1.5755c-3.0473 2.8223-6.2474 3.7774-8.8595 2.6442zm59.635-1.387c-1.6488-1.2378 0.70369-7.7258 3.2401-8.9358 1.308-0.62397 1.9084-0.63376 2.749-0.0448 0.50683 0.35514 0.79407 0.38512 1.2665 0.13222 0.69407-0.37161 1.6507-0.16172 1.8701 0.41029 0.0811 0.21142-0.10292 1.1096-0.40875 1.996-0.60667 1.7578-0.76001 4.5851-0.26526 4.891 0.54329 0.33591 1.6801-0.67354 2.7585-2.4495 1.2204-2.0098 1.9918-4.0141 2.8947-7.521 0.53781-2.0889 0.83356-2.6956 1.7036-3.4943 1.0565-0.96989 1.672-1.1906 1.971-0.70674 0.0884 0.14287-0.72585 3.0738-1.8091 6.5132-1.0833 3.4394-1.8876 6.4674-1.7873 6.7288 0.3416 0.89047 1.5541 0.53789 2.7999-0.81417 0.6535-0.70926 1.4307-1.6795 1.727-2.156 0.8098-1.3024 1.9694-2.505 2.8682-2.9748 1.1517-0.60188 3.0113-0.53784 3.6103 0.12432 0.65935 0.72884 0.6229 1.0392-0.24294 2.0686l-0.73494 0.87375 2.2956 0.4665c4.6894 0.95296 6.5549 0.85385 7.5722-0.40231 0.68253-0.84281 0.659-1.0595-0.20944-1.9283-0.95234-0.95269-2.2362-0.94756-3.3779 0.0135-0.9973 0.83948-1.6949 0.95029-1.9412 0.30834-0.24807-0.64672 1.0867-1.5482 2.6366-1.7807 1.66-0.24903 3.3731 0.48182 3.9421 1.6818 0.57934 1.222-0.1697 2.789-1.634 3.4182-1.3072 0.56172-5.1356 0.62995-7.2196 0.12865-0.73576-0.17698-2.4271-0.32506-3.7584-0.32905-1.9362-6e-3 -2.4567 0.0868-2.6008 0.46244-0.2848 0.74244 0.12172 1.871 0.74531 2.069 0.69541 0.2208 2.4622-0.32896 2.9511-0.91825 0.43778-0.52769 1.2722-0.57236 1.1046-0.0592-0.0669 0.20445-0.83656 0.87358-1.7106 1.4869-1.1652 0.81775-1.8927 1.1152-2.7274 1.1152-1.2725 0-2.3274-0.80874-2.3274-1.7843 0-0.77248-0.0599-0.75785-1.179 0.28791-1.7504 1.6358-4.1835 1.5857-4.7923-0.0987l-0.36092-0.99845-1.242 1.2968c-1.0747 1.122-1.408 1.2968-2.4732 1.2968-1.0236 0-1.3424-0.1506-1.8914-0.89337l-0.66023-0.89336-0.82845 0.794c-1.0035 0.96181-3.5948 1.3163-4.5238 0.61891zm4.7128-2.7588c1.9147-2.0911 2.0017-4.5995 0.1596-4.5995-1.0266 0-1.8142 0.75893-2.6637 2.5668-0.69514 1.4794-0.72344 1.7163-0.29971 2.5083 0.49551 0.92627 1.7086 0.72049 2.8038-0.47563zm17.578-2.9664c0.79784-0.79815 0.72778-1.3357-0.17411-1.3357-0.53016 0-1.7877 1.2834-1.7877 1.8244 0 0.53705 1.2469 0.22645 1.9618-0.48869zm-51.585 5.018c-0.33887-0.43097-0.61447-1.2005-0.61244-1.71 4e-3 -0.76789 0.85396-4.2753 1.6325-6.7292 0.16613-0.52359 0.0496-0.59097-1.0216-0.59097-0.66503 0-1.2292-0.13384-1.2537-0.2974-0.14247-0.95018-0.0293-1.0484 1.3704-1.1895l1.4744-0.14869 0.45789-1.5533c0.33479-1.1356 0.73318-1.7553 1.4818-2.3047 1.9087-1.4009 2.2178-0.86925 1.2056 2.0737-0.327 0.95081-0.59456 1.7747-0.59456 1.8309 0 0.0562 0.59106 0.10217 1.3134 0.10217 1.4537 0 2.2539 0.22245 2.2539 0.62659 0 0.14606-0.20066 0.26558-0.44591 0.26558s-0.44591 0.13381-0.44591 0.29738c0 0.16356-0.71557 0.2974-1.5901 0.2974h-1.5902l-0.7752 3.0482c-1.1299 4.4428-1.1301 4.6838-5e-3 4.6838 0.56505 0 1.1701-0.40111 2.0809-1.3795 0.70632-0.75874 1.2842-1.4948 1.2842-1.6356 0-0.14085 0.20065-0.25608 0.4459-0.25608 0.83683 0 0.43907 0.98933-1.2871 3.2015-1.7645 2.2614-4.1921 2.8786-5.38 1.3679zm7.5801 0.31624c-0.62704-0.62729-0.58412-1.1927 0.39097-5.1482 0.69038-2.8006 0.95784-3.4535 1.5489-3.7811 0.95927-0.53179 1.0867-0.51559 1.462 0.18592 0.25278 0.47253 0.12111 1.3146-0.60846 3.8912-0.51206 1.8085-0.853 3.3663-0.7576 3.4617 0.6161 0.61633 3.1581-2.1345 4.1918-4.536 0.28157-0.65424 0.6006-1.3743 0.7089-1.6002 0.25087-0.5231 2.9254-1.5879 3.1353-1.2482 0.0867 0.14032-0.16469 0.83861-0.5586 1.5517-1.1592 2.0987-2.0624 5.4449-1.6685 6.1814 0.18149 0.33925 0.52595 0.61683 0.76546 0.61683 0.23948 0 0.43544 0.1195 0.43544 0.26557 0 0.62792-2.014 0.84246-2.9922 0.31874-0.39865-0.21344-0.57503-0.62389-0.57503-1.3382 0-0.56672-0.0864-1.0304-0.19213-1.0304-0.10572 0-0.83568 0.60221-1.6223 1.3382-1.5458 1.4465-2.7924 1.7428-3.6639 0.87092zm-129.33-16.368c-3.2311-0.43304-6.6097-1.2283-7.2239-1.7003-0.21265-0.16343-0.34642-0.64318-0.29729-1.0661 0.14148-1.2175 1.6285-1.7345 6.4494-2.2423 2.3478-0.24727 4.485-0.61912 4.7492-0.82635 1.2006-0.94139 2.0081-2.3004 6.2953-10.594 1.9808-3.8319 4.5474-7.1272 6.079-7.8049 0.6615-0.29272 2.8981-0.76591 4.9702-1.0515 3.559-0.49055 4.0356-0.49156 8.6146-0.0186 7.9133 0.81757 8.099 0.95797 15.219 11.509 1.0486 1.5539 2.8262 3.7123 3.9503 4.7964 2.0607 1.9877 2.2103 2.0638 6.338 3.2224 1.4728 0.4134 1.0514 1.7028-0.87194 2.6678-1.0704 0.53706-5.5083 1.0704-7.9899 0.96012-2.1167-0.0941-5.5597-2.0996-8.9745-5.2276-2.2531-2.0639-2.6712-2.7512-2.6735-4.3952-2e-3 -1.3875-0.0152-1.4058-2.2058-3.0552-1.2121-0.91262-3.0515-2.0424-4.0875-2.5108-2.3759-1.074-6.7826-2.4718-7.2395-2.2964-0.20547 0.079-0.29019 0.51368-0.20855 1.0702 0.10977 0.74792-0.13291 1.3395-1.2005 2.9271-3.7753 5.6139-4.9383 7.58-5.9865 10.12-0.7155 1.7339-1.551 3.1977-2.2237 3.8961-0.97726 1.0145-1.3307 1.1644-3.7957 1.6091-3.0958 0.55847-3.5959 0.55918-7.6865 0.0112zm281.76-4.1176c-0.51851-0.22562-1.087-0.67998-1.2634-1.0096-0.62197-1.1627-0.35265-4.5139 0.70639-8.7893 1.0954-4.4221 1.0586-5.2316-0.23789-5.2316-1.5491 0-4.0703 3.6468-6.3057 9.1209-0.72339 1.7714-1.3165 3.4385-1.318 3.7047-4e-3 0.67848-0.4688 0.97629-2.6616 1.7048-2.0972 0.69672-2.8631 0.78396-3.1273 0.35623-0.0952-0.1541 0.57549-2.931 1.4904-6.1708 0.91494-3.2398 1.7938-6.5903 1.9531-7.4455 0.33688-1.809-5e-3 -2.7572-0.99368-2.7572-0.88998 0-2.5385 1.1887-2.8869 2.0817-0.15954 0.40891-0.89641 2.316-1.6375 4.2379-1.5247 3.9543-2.3224 5.3408-4.2893 7.4552-1.6394 1.7624-3.2486 2.566-5.1557 2.5749-1.1534 6e-3 -1.5905-0.15933-2.4677-0.92978-0.58628-0.51496-1.2632-1.3179-1.5044-1.7843-0.24109-0.46641-0.54475-0.84801-0.67481-0.84801-0.13005 0-0.84566 0.58393-1.5902 1.2976-2.1898 2.099-5.7522 2.893-8.0538 1.7951-1.3667-0.65195-1.7471-1.3867-1.7377-3.356l8e-3 -1.6818-1.3076 1.2182c-3.3037 3.0777-10.037 4.9167-15.605 4.2618-4.4969-0.52892-6.7334-0.6222-7.8002-0.32533-1.6151 0.44944-2.7296 0.0739-2.8505-0.96043-0.0536-0.45876-0.0217-1.1366 0.0711-1.5062 0.20826-0.83021 1.8242-1.6351 3.2827-1.6351 1.0411 0 1.1208-0.0759 1.9501-1.8587 1.8488-3.9744 3.175-11.564 2.7963-16.003l-0.19185-2.2487 2.4605-1.8362c1.8987-1.417 2.5512-1.761 2.8576-1.5066 0.29336 0.24358 0.39708 1.3228 0.39708 4.1322 0 5.3981-1.2092 10.173-3.9751 15.698-1.3021 2.6009-1.8451 3.9715-1.5993 4.0367 4.7128 1.2506 7.2374 1.5294 9.7363 1.0756 4.1697-0.75727 6.5588-2.594 7.574-5.8229 0.46356-1.4743 0.48222-1.9368 0.15933-3.9472-0.7326-4.5612-2.2892-7.6401-5.6364-11.148-2.6127-2.7386-3.6924-3.4212-7.343-4.6423-2.5152-0.84135-3.031-0.90961-6.8726-0.90961-6.5603 0-10.79 0.91962-16.019 3.4827-3.3074 1.6213-5.3893 3.5507-6.6145 6.13-2.6053 5.4849-2.1945 10.329 1.0507 12.388 1.314 0.83361 1.6136 0.8978 4.1906 0.8978 1.7946 0 3.1526-0.15765 3.8426-0.44609 1.3828-0.57796 1.5892-0.56267 1.5892 0.1177 0 0.83083-2.5684 2.3555-4.6013 2.7315-5.1743 0.95689-9.8817-1.319-11.907-5.7569-1.1848-2.5956-1.5113-5.3763-0.88557-7.5414 1.1777-4.075 4.2585-7.6356 9.0592-10.47 6.3206-3.7319 9.6056-4.5757 17.996-4.6227 6.3295-0.0355 7.6695 0.17247 11.296 1.7532 2.585 1.1267 8.2914 5.0758 9.9964 6.918 1.8287 1.976 3.5932 5.3334 4.4739 8.5127 0.32059 1.1573 0.62434 2.1456 0.67496 2.1963 0.0507 0.0507 0.45153-0.52146 0.89085-1.2714 1.2519-2.137 2.5615-3.457 4.1763-4.2092 1.8125-0.84435 3.7736-0.90601 4.8613-0.15287 1.3471 0.93279 1.8249 0.9812 3.0249 0.30651l1.1354-0.6384 1.1384 0.58925c1.4226 0.73628 1.5527 1.4622 0.5645 3.149-0.95855 1.6363-1.8114 4.1026-2.3936 6.9226-0.41149 1.993-0.40899 2.3028 0.0273 3.3937 0.59708 1.4928 1.544 1.8194 3.0001 1.035 2.266-1.2208 3.5464-3.2797 5.8916-9.4739 1.5865-4.1902 3.0669-5.7142 6.2421-6.4261 1.2088-0.27101 1.5743-0.23197 2.6315 0.28113 1.6717 0.8113 2.0631 1.5564 2.2537 4.29l0.16311 2.3396 1.3081-1.8097c2.0855-2.8852 4.3782-4.1702 7.484-4.1947 1.3812-0.0112 1.7708 0.10756 2.337 0.71049 0.86322 0.9192 0.79875 1.4478-0.98187 8.0494-0.74998 2.7806-1.3668 5.352-1.3706 5.7142-4e-3 0.36225 0.25791 0.80048 0.58169 0.97384 0.48411 0.25918 1.0169 0.0663 2.9978-1.0851 2.1441-1.2463 2.6612-1.4188 4.7012-1.5688 2.6187-0.19248 2.955-0.37309 5.6841-3.053 1.9575-1.9222 3.5988-4.4686 3.162-4.9056-0.13137-0.1314-1.4651-0.23572-2.9638-0.23182-2.3071 6e-3 -3.0086 0.13143-4.574 0.81781-2.1161 0.92787-3.2868 1.0327-3.5606 0.31892-0.27661-0.72116 1.555-2.2705 3.6535-3.0905 1.5418-0.60242 2.4816-0.70997 7.7015-0.88136 5.4766-0.17982 6.1065-0.25775 7.9874-0.98834 2.5705-0.99844 4.1415-1.0419 4.7784-0.13218 0.5922 0.84581 0.59061 1.8452-4e-3 2.4399-0.49707 0.49723-0.63945 0.53505-3.8135 1.0129-2.6936 0.40553-5.4051 1.7722-7.6647 3.8633-1.7314 1.6022-3.2061 3.971-3.2131 5.1609-6e-3 0.92576 5.8498 2.6378 7.5561 2.2094 1.3779-0.34598 2.6031-1.7848 2.4931-2.9277-0.0854-0.88666-0.18949-0.97821-1.2082-1.0626-1.3501-0.11184-1.3903-0.36636-0.21421-1.3564 2.6272-2.2114 5.8135-0.52125 4.5809 2.4299-0.55518 1.3293-2.6824 3.961-3.8644 4.7809-1.1578 0.80309-4.008 1.3383-5.9276 1.1131-0.8175-0.0959-2.8202-0.52179-4.4504-0.94639-2.9502-0.76845-3.7329-0.7972-7.1846-0.2638-0.73689 0.11387-1.4898 0.0513-1.8768-0.15587-0.56857-0.30441-0.80112-0.20321-1.9341 0.8415-1.8804 1.7339-4.297 2.2681-6.306 1.3939zm-33.834-3.7603c1.7439-0.92038 2.7703-1.992 3.7428-3.9079 0.92494-1.8221 1.7523-4.6043 1.7523-5.8924 0-1.5065-1.9092-2.8504-3.5136-2.4731-2.2842 0.53712-4.6111 3.3393-5.6991 6.8633-1.4995 4.8565 0.16813 7.2833 3.7176 5.4101zm68.368 3.1092c-1.323-0.69138-1.635-1.2473-1.6346-2.9126 0-4.3645 2.1832-10.423 4.8476-13.459 1.8917-2.1554 5.7589-3.1647 7.3744-1.9247 1.2111 0.9296 1.7416 0.98521 2.9448 0.30873l1.1354-0.6384 1.1384 0.59068c0.62618 0.32488 1.1856 0.832 1.2432 1.1269 0.0575 0.29493-0.36964 1.4864-0.94937 2.6477-1.5129 3.0306-2.4856 6.916-2.3199 9.267 0.0609 0.86352 1.1273 1.9147 1.9425 1.9147 0.96403 0 3.0098-1.5617 4.1319-3.1542 0.52087-0.73926 1.2872-2.2029 1.7031-3.2525 0.96391-2.433 1.3702-2.8684 1.9472-2.0864 0.58414 0.79176 0.53949 1.3377-0.28979 3.5417-0.88857 2.3616-1.9287 4.0287-3.7053 5.9385-1.6394 1.7624-3.2486 2.566-5.1557 2.5749-1.1534 6e-3 -1.5905-0.15933-2.4677-0.92978-0.58628-0.51496-1.2632-1.3179-1.5044-1.7843-0.24107-0.46641-0.54476-0.84801-0.67481-0.84801-0.13006 0-0.84564 0.58393-1.5902 1.2976-2.1814 2.091-5.9439 2.9166-8.1167 1.7811zm6.2471-3.1092c0.65158-0.34387 1.5652-0.97954 2.0303-1.4126 1.7835-1.6607 4.0579-7.5539 3.491-9.0455-0.68277-1.7965-3.2212-2.3505-5.1906-1.1328-2.1813 1.3487-4.6454 6.3254-4.6454 9.3822 0 2.5989 1.8151 3.528 4.3149 2.2087zm-385.7 2.8737c-0.52303-0.63045-0.2161-1.2508 1.5223-3.0767l1.3887-1.4586-4.8909-4.5747c-2.69-2.5161-5.0912-4.6869-5.3362-4.824-0.24493-0.13714-0.77166-0.76646-1.1705-1.3985-0.39885-0.63207-1.3277-1.5639-2.064-2.0707-2.1635-1.4891-7.0622-6.475-6.9489-7.0726 0.14835-0.78251 1.5006-0.80141 2.9698-0.0414 0.7073 0.36581 1.9767 0.76207 2.8208 0.88057 1.7733 0.24896 4.5861 2.1592 5.3471 3.6314 0.46234 0.8944 2.3005 3.2493 4.2373 5.4285 0.58793 0.66152 2.206 2.0861 3.5958 3.1657s2.8957 2.3784 3.3466 2.8863c0.45089 0.50787 0.91909 0.92055 1.0405 0.91706 0.50624-0.0146 1.9286-2.495 2.0806-3.6281 0.1316-0.98153 0.47378-1.5244 1.724-2.7354 0.85791-0.83097 1.8307-2.0549 2.1617-2.7198 0.62094-1.2473 1.9046-2.4361 6.3506-5.8812 1.4209-1.101 3.4404-3.0341 4.4877-4.2957 1.0474-1.2616 7.0841-7.4461 13.415-13.743 6.3309-6.2972 12.032-12.14 12.67-12.985 0.80559-1.0668 1.4425-1.5977 2.0868-1.7393 0.78884-0.17332 3.7842-2.6795 8.6949-7.2751 0.51157-0.47873 0.41851-0.62344-2.0282-3.154-1.4104-1.4587-3.4174-3.7334-4.46-5.0549-1.0426-1.3214-2.404-2.7562-3.0254-3.1884-0.6214-0.4322-2.4437-2.1951-4.0497-3.9176-3.4761-3.7283-17.083-16.286-18.996-17.531-0.53767-0.34992-0.87541-0.89154-1.0059-1.6131-0.10797-0.59745-0.36391-1.4208-0.56866-1.8297-0.20473-0.40891-0.52479-1.4842-0.71125-2.3895-0.30205-1.4666-0.56528-1.8672-2.4144-3.6748-2.0235-1.9781-2.6095-2.9883-2.2608-3.8975 0.09427-0.24571 0.51381-0.44673 0.93237-0.44673 0.60306 0 2.8451 2.0828 10.804 10.037 5.5235 5.5202 11.199 11.14 12.611 12.489 1.8129 1.7308 2.655 2.7657 2.8626 3.5176 0.27965 1.0132 1.5752 3.009 2.2457 3.4594 0.86366 0.58027 7.7612 7.0019 10.395 9.6778 3.4198 3.4744 3.9447 3.6652 5.9359 2.1578 1.558-1.1795 2.8592-1.5869 3.8565-1.2076 1.2844 0.4885 1.0057 1.4141-1.0505 3.4896l-1.8365 1.8537 1.3906 1.4872c1.5052 1.6097 1.6574 2.0954 0.89602 2.8571-0.6026 0.60283-1.534 0.45608-3.6807-0.57991l-1.5475-0.74682-1.5234 1.013c-3.0212 2.009-6.3512 5.3774-11.779 11.915-0.73576 0.88618-2.0571 2.1665-2.9364 2.8451-2.6029 2.009-5.9925 5.3681-6.5808 6.5218-0.54214 1.0631-1.6752 2.3966-6.9411 8.1693-5.2259 5.7288-12.433 12.583-14.458 13.751-1.7651 1.0177-2.6755 1.8539-2.6755 2.4576 0 0.96199-1.8908 3.3222-5.0107 6.2548l-3.1643 2.9744 0.8175 1.4816c1.0158 1.841 1.1133 3.563 0.20157 3.563-0.33876 0-1.2137-0.35043-1.9442-0.77872l-1.3283-0.77873-1.6974 0.7552c-2.3106 1.028-4.2797 1.3033-4.8037 0.67165zm196.06-6.8792c-0.25694-0.25703-0.46713-0.92615-0.46713-1.4869 0-0.56078-0.0657-1.0196-0.14604-1.0196-0.0804 0-0.75948 0.46839-1.5092 1.0409-1.4484 1.106-1.9052 1.2246-2.8234 0.733-0.72494-0.38812-0.77051-2.0114-0.0941-3.3499 1.3621-2.6952 3.4963-4.2786 5.3592-3.9762 0.54241 0.088 1.0634 0.035 1.1578-0.11772 0.0944-0.15279 0.43126-0.2778 0.74862-0.2778 0.81086 0 0.73375 0.6837-0.36961 3.2769-0.67832 1.5943-0.95213 2.7093-0.96614 3.9344-0.0208 1.8146-0.1451 1.9883-0.89013 1.243zm-1.7474-2.6789c1.0926-0.83372 2.4693-2.8109 2.4693-3.5464 0-0.75677-1.3831-1.1081-2.3642-0.60056-0.91798 0.47488-2.3922 3.0811-2.3922 4.229 0 0.93999 0.99431 0.9043 2.287-0.0821zm17.509 2.7568c-0.34523-0.25254-0.53245-0.77537-0.53245-1.4869 0-1.1864-0.24068-1.3646-0.85041-0.62963-0.21345 0.2573-0.9181 0.73831-1.5659 1.0689-1.3478 0.68788-2.3817 0.44222-2.7276-0.64816-0.18932-0.59661-0.23417-0.60491-0.74931-0.13854-1.3188 1.194-5.031 1.7208-7.083 1.0052-0.99948-0.34855-1.2397-1.133-0.52786-1.724 0.32001-0.2657 0.51436-0.17712 0.89868 0.40966 0.43242 0.66022 0.69797 0.74867 2.2478 0.74867 3.3987 0 4.2638-0.97114 1.8704-2.0997-2.0384-0.96114-3.3443-2.0069-3.3443-2.678 0-0.67005 1.4199-1.6423 2.9727-2.0356 2.8978-0.73392 4.3835-0.56437 3.5767 0.40818-0.29759 0.35871-0.70615 0.43742-1.6159 0.31133-1.6428-0.22771-2.9781 0.17813-3.0904 0.93922-0.0711 0.48265 0.34561 0.82881 2.0686 1.718 1.1868 0.61248 2.3045 1.3143 2.4839 1.5597 0.26832 0.36709 0.42836 0.21893 0.90407-0.83684 1.1667-2.5894 3.1883-4.1262 5.4281-4.1262h1.1578l1.2444-2.7508c1.6297-3.6024 1.5978-3.5497 2.3012-3.81 1.4947-0.55313 1.3805 0.18808-0.56948 3.6959-1.9867 3.574-3.9327 8.7507-3.6959 9.8319 0.0743 0.33901 0.23338 0.85057 0.35367 1.1368 0.26602 0.63314-0.37044 0.70525-1.1556 0.13093zm-2.089-2.5961c0.88722-0.54855 2.8051-3.0106 2.8051-3.601 0-0.13174-0.31639-0.44691-0.70305-0.70036-1.3223-0.86672-2.9553 0.41287-3.8664 3.0296-0.67602 1.9414-0.0494 2.3932 1.7644 1.2718zm-206.85-12.359c-1.7061-0.52485-2.1559-1.1609-2.6071-3.6867-0.38072-2.1311-0.62122-2.4187-1.8221-2.1784-0.44794 0.0896-1.4641 7e-3 -2.2582-0.18353-1.7527-0.42063-2.6014-0.15609-4.3461 1.3548l-1.2302 1.0653-2.6755-0.15097c-4.9461-0.27911-9.2761-2.3323-15.135-7.1766-2.2953-1.8978-10.671-9.9671-11.246-10.834-0.59807-0.90229-0.67894-2.1418-0.17278-2.6481 0.48174-0.48193-11.636-12.508-13.88-13.775-0.86593-0.48889-1.9149-1.2295-2.3311-1.6459l-0.75668-0.75698-0.98055 0.72854c-3.1354 2.3296-5.3497 0.98854-2.4549-1.4868l1.3497-1.1542-1.0775-1.4117c-1.2349-1.6179-1.675-2.8478-1.275-3.5628 0.45183-0.80769 0.99724-0.58312 2.5845 1.064l1.5027 1.5595 1.1273-1.0548c0.61999-0.58013 1.9085-1.704 2.8634-2.4976 1.7023-1.4146 1.7327-1.4666 1.5589-2.6607l-0.17726-1.2179 5.0571-5.2043c4.8736-5.0154 7.7492-8.0413 12.153-12.788 1.1381-1.2267 2.3842-2.7861 2.7691-3.4653 0.4284-0.75587 2.0808-2.3835 4.2598-4.1958 1.958-1.6285 4.025-3.5892 4.5933-4.3571 1.4823-2.0027 2.7514-2.8711 4.5573-3.1183 0.84915-0.11626 1.8929-0.44129 2.3195-0.72228 0.94079-0.61972 1.6928-0.38788 1.9401 0.59817 0.25813 1.0289-0.22649 1.9234-2.3513 4.3402-2.4087 2.7396-3.4666 3.7794-6.4877 6.3761-1.3737 1.1807-3.0771 2.6448-3.7853 3.2535-0.70824 0.60868-2.3749 2.5199-3.7036 4.247-3.6416 4.7335-7.2588 8.5615-9.4769 10.029-1.932 1.2782-11.535 10.51-13.098 12.591l-0.78243 1.042 1.9861 1.7083c1.0923 0.93959 3.3514 2.9464 5.02 4.4596 1.6687 1.5132 4.6786 4.222 6.6886 6.0196 8.5689 7.6629 13.173 12.324 15.233 15.421 0.56084 0.84318 1.5629 2.062 2.2267 2.7086 0.9837 0.95807 1.207 1.38 1.207 2.2804 0 1.2409 0.23903 2.0457 0.60762 2.0457 0.40768 0 3.5715-5.0346 4.7656-7.5834 1.2752-2.722 2.0084-5.161 2.9502-9.8138 1.261-6.2298 1.8615-8.6295 2.4517-9.7978 0.56641-1.1212 0.57681-1.3793 0.23323-5.7896-0.39306-5.0455-0.18827-18.172 0.33213-21.289 0.17741-1.0624 0.65892-2.3507 1.1902-3.1842 2.04-3.2006 7.3924-7.0512 10.664-7.6719 2.6025-0.49374 5.4717-0.37955 6.2472 0.24859 0.62277 0.50448 0.66897 0.76177 0.62754 3.4943-0.02461 1.6224-0.12302 3.493-0.21871 4.1571-0.21112 1.4652 0.32406 7.4451 0.95124 10.629 0.85196 4.3247 2.401 8.3567 5.8925 15.337 4.9805 9.9575 6.112 12.922 7.7472 20.298 0.6094 2.7487 1.0411 5.508 1.0411 6.6545 0 2.0288-0.0765 2.1756-1.904 3.6533-0.28801 0.23289-0.4742 0.84041-0.4742 1.5473 0 2.369-0.69245 3.0148-4.9522 4.6188-1.1174 0.42074-2.7009 1.2258-3.519 1.7889-2.6673 1.8361-8.3982 2.7035-11.519 1.7434zm82.575-2.2549c-0.64913-0.34229-1.8732-1.3324-2.7202-2.2003-1.7677-1.8113-2.5762-3.788-2.5542-6.2446 0.0299-3.3288 2.2802-10.108 3.5876-10.808 0.43578-0.23332 1.0097-0.23949 1.9828-0.0214 0.97607 0.21881 2.0687 0.2059 3.803-0.0449 2.1751-0.3146 2.5519-0.29578 3.5486 0.17739 0.9129 0.43337 1.1874 0.77719 1.5134 1.8959 0.33629 1.1537 0.54624 1.4048 1.3484 1.6128 1.2916 0.3348 1.5219 1.105 1.5177 5.0751-6e-3 5.001-0.78945 7.2973-3.2519 9.5228-1.4078 1.2723-2.7693 1.6845-5.5141 1.6694-1.5207-8e-3 -2.3987-0.17903-3.2612-0.63383zm240.1-11.839c-1.9232-0.87319-2.5778-2.5051-2.6193-6.5305-0.0175-1.7096-0.15166-3.1441-0.2978-3.1878-0.14617-0.0437-1.4213 0.8866-2.8337 2.0674-5.2629 4.4002-9.0234 5.8238-11.725 4.4384-2.1437-1.0995-3.098-2.6113-3.098-4.9078v-1.2394l-1.3562 1.5509c-2.9593 3.3842-10.193 5.7249-17.693 5.7249-3.8389 0-6.5436-0.59437-9.501-2.0879-2.6147-1.3204-2.962-2.3528-1.48-4.3993 1.87-2.5824 2.9934-2.6305 3.6166-0.15478 0.60807 2.4157 3.0778 3.4483 8.2742 3.4592 5.9108 0.0124 11.108-1.3844 11.73-3.1524 0.4493-1.2781-0.86991-2.3608-5.7782-4.7425-4.9234-2.389-9.4676-5.3976-10.378-6.8708-0.36245-0.58673-0.62135-1.5075-0.62135-2.21 0-1.0914 0.15998-1.3464 1.7093-2.7241 2.593-2.3057 5.708-3.7088 10.925-4.9209 3.2409-0.75302 5.1494-1.0358 6.9859-1.0352 3.0436 8.8e-4 3.9771 0.38075 4.1034 1.669 0.17011 1.7352-2.3545 3.0989-4.919 2.6569-3.2778-0.56487-5.4439-0.53025-8.1137 0.12968-3.8988 0.96372-5.0775 1.9037-4.6289 3.6915 0.31618 1.2603 1.7047 2.2122 7.411 5.081 8.2783 4.1618 9.3969 5.031 9.4327 7.3295 0.0139 0.90202 0.0782 0.82621 0.68687-0.81155 1.1454-3.0819 4.8993-9.7693 6.4795-11.543 3.0182-3.3877 8.4144-6.4614 11.712-6.6715 1.503-0.0958 2.147 0.0289 3.724 0.7205 1.4839 0.65079 2.3739 0.83916 4.0131 0.84935 2.4154 0.015 3.2377 0.44862 2.9588 1.5602-0.17024 0.67857-0.59743 1.667-2.7373 6.3336-1.0796 2.3544-2.7626 7.802-3.3793 10.939-0.45349 2.3062-0.21704 4.9696 0.51296 5.7778 2.0307 2.2484 11.002-3.5591 12.909-8.3568 0.36482-0.91772 1.8326-4.0419 3.2617-6.9426 1.4292-2.9007 3.0318-6.5809 3.5614-8.1781 1.1218-3.3829 2.0242-4.4464 4.4335-5.2248 1.9503-0.63012 2.6624-0.63371 3.5413-0.0179 1.0688 0.7489 0.7002 2.2392-1.4234 5.7559-0.99778 1.6523-1.8142 3.1045-1.8142 3.2271s-0.61436 1.2197-1.3652 2.4381c-0.75088 1.2184-2.2495 4.087-3.3304 6.3748-2.2864 4.8397-2.7095 7.0221-1.5805 8.1516 0.84271 0.84302 1.6185 0.79191 3.8241-0.25193 1.3039-0.61707 2.7085-1.7021 4.7063-3.6356 1.5663-1.5158 3.264-2.893 3.7727-3.0606 0.82294-0.271 1.0426-0.61616 1.9917-3.1298 1.3376-3.5424 2.8354-5.7406 5.9952-8.7981 4.2627-4.1248 7.2435-5.4506 12.3-5.4706 2.666-0.0101 4.6234 2.058 5.0765 5.3648 0.25801 1.883-0.43704 2.6853-2.498 2.8834-1.8478 0.17763-2.2284-0.0791-2.8582-1.9284-0.69922-2.0528-1.1927-2.4608-2.9673-2.4531-1.6382 7e-3 -3.4401 0.6939-5.0568 1.9275-1.4341 1.0943-3.8645 4.7351-4.9916 7.4777-2.234 5.436-0.52675 10.229 4.1257 11.582 4.1703 1.2128 8.8366-1.0257 11.828-5.674 1.5878-2.4676 2.5869-3.0811 3.3471-2.0552 0.62044 0.83734 0.2503 2.0754-1.1821 3.954-2.6193 3.4353-5.3269 5.524-8.757 6.7555-2.0527 0.73696-7.1336 0.73951-9.2525 5e-3 -2.2739-0.7886-4.8996-3.3464-5.8403-5.6891-0.39404-0.98137-0.84269-1.7843-0.99703-1.7843-0.15431 0-1.8099 1.4052-3.6792 3.1226-4.0142 3.6882-6.3638 5.0571-8.6724 5.0527-1.977-4e-3 -4.2458-1.0592-5.3279-2.4784-0.45594-0.59802-1.0159-1.0873-1.2444-1.0873-0.22842 0-1.2339 0.70258-2.2343 1.5613-2.9837 2.561-3.9147 3.1588-5.898 3.7876-2.4274 0.76949-5.1325 0.77201-6.8188 7e-3zm-10.599-7.8792c5.4519-2.7423 11.727-10.274 11.727-14.075 0-2.1758-0.81676-2.9734-3.7064-3.6213-2.6459-0.59317-4.6966 0.59582-7.8369 4.5438-1.5322 1.9262-3.9519 7.0928-4.5318 9.676-0.32401 1.4436-0.14924 3.2006 0.38243 3.8443 0.49761 0.60237 2.3853 0.42727 3.9662-0.36788zm-52.336 5.2952c-3.4258-0.76967-5.7808-3.1064-6.8545-6.8014-0.43526-1.4978-0.46324-2.0837-0.18502-3.8739 0.91417-5.8826 5.8647-14.389 9.6737-16.622 1.4724-0.86323 4.5351-1.6336 6.5188-1.6397 3.9759-0.0122 6.7747 3.8365 6.3515 8.7342-0.25974 3.0056-1.1983 6.1658-2.7295 9.1902-3.3036 6.5254-6.3733 9.7856-10.137 10.766-0.9471 0.2468-1.7942 0.43318-1.8825 0.41421-0.0884-0.019-0.42805-0.0946-0.75504-0.16806zm4.2083-4.5781c3.2756-1.5863 6.7426-8.5742 6.7759-13.657 0.012-1.8126-0.13323-2.546-0.77474-3.9152-0.43418-0.92662-1.139-1.914-1.5664-2.1941-1.8138-1.1889-5.4741 0.32768-7.1466 2.961-2.89 4.5502-4.248 12.034-2.7176 14.977 1.2054 2.3178 3.1011 2.9562 5.4294 1.8287zm126.03 3.994c-1.8882-0.57987-4.7266-3.3278-5.2003-5.0345-0.98371-3.5444 0.56981-8.3632 4.5065-13.978 2.3204-3.3098 4.2029-4.9794 7.284-6.4603 2.3969-1.152 2.7844-1.2483 5.0241-1.2483 2.2136 0 2.5402 0.0786 3.7159 0.894 1.639 1.1367 2.9249 3.5478 2.9219 5.4788-8e-3 4.7983-3.7472 12.45-8.2587 16.897-2.1967 2.1653-3.9668 3.1585-6.4464 3.6171-2.0537 0.3798-1.7217 0.39527-3.547-0.16531zm5.4027-3.5396c0.60563-0.25315 1.4188-0.75499 1.8071-1.1152 2.2932-2.1275 5.3586-7.3493 6.0031-10.226 0.38794-1.7318-0.0986-5.1427-0.92866-6.5109-0.95757-1.5783-2.6366-1.9991-4.6383-1.1624-1.5494 0.64764-5.25 4.5316-6.2805 6.5919-1.3924 2.7838-1.6559 3.9036-1.5865 6.7439 0.075 3.0636 0.69963 4.6328 2.2115 5.555 1.1526 0.70303 1.9569 0.73226 3.4122 0.12395zm-311.18-23.947c-4.4278-0.55868-9.315-2.1748-11.855-3.9204-2.4129-1.6581-7.0543-6.0812-8.2115-7.8253-2.3344-3.5183-3.5491-10.553-1.7588-10.186 0.26865 0.0551 0.82273 1.0087 1.2996 2.2367 0.45723 1.1774 1.1966 2.7643 1.6431 3.5264 1.0081 1.7208 4.6145 5.5523 6.0614 6.4397 0.59346 0.36396 1.681 1.1215 2.4168 1.6834 0.73575 0.56188 2.1404 1.3962 3.1214 1.8541 2.2189 1.0357 9.5399 2.9423 11.298 2.9423 0.71892 0 2.0112 0.15103 2.8716 0.33565 1.9352 0.41519 6.8505-0.25323 11.42-1.5529 4.2932-1.2212 5.0066-1.5672 8.1234-3.9402 3.4498-2.6264 6.9018-6.8578 9.0317-11.071 1.1277-2.2306 4.5484-11.294 5.2806-13.992 0.34992-1.2891 1.0226-3.5482 1.4948-5.0203 1.4478-4.5133 3.4432-11.731 4.1514-15.018 0.37011-1.7174 1.2447-5.3307 1.9435-8.0295 0.69881-2.6988 1.4948-5.9775 1.7688-7.286 0.27405-1.3085 0.93327-3.8512 1.465-5.6503 1.8285-6.1876 2.9262-11.037 2.7022-11.937-0.21052-0.84594-0.57634-0.95512-3.9644-1.1832-3.2246-0.21706-3.9282-0.45489-3.9282-1.3277 0-0.96109 1.2745-1.8803 3.8511-2.7776 1.948-0.67837 2.7264-0.80645 4.1069-0.67574 7.6795 0.72706 9.0284 1.0326 9.2322 2.0908 0.11201 0.58191-1.0865 5.0765-2.1938 8.2271-0.37368 1.0632-1.1048 3.472-1.6248 5.353-2.604 9.4203-4.5698 16.159-5.3788 18.438-0.92314 2.6006-1.2848 3.8307-2.9291 9.9625-0.52633 1.9628-1.2022 4.3047-1.502 5.2043-0.29976 0.8996-1.0834 3.778-1.7414 6.3965-1.6674 6.635-2.7038 9.655-4.6557 13.567-3.699 7.4128-8.56 13.471-13.224 16.479-4.0604 2.6195-11.53 5.4858-17.003 6.5244-2.5762 0.48889-9.9082 0.5617-13.312 0.13221zm-58.459-10.743c-3.5466-3.4793-4.592-5.0303-5.8731-8.7135-2.8495-8.192-3.9447-11.108-4.4951-11.97-1.2309-1.9277-7.4971-5.9625-8.6016-5.5385-0.21084 0.0809-0.45552 0.68554-0.54375 1.3436-0.08823 0.65802-0.24494 1.281-0.34827 1.3843-0.10332 0.1034-1.3319 0.20806-2.7302 0.23266-2.4347 0.0429-2.6063 2e-3 -4.0516-0.97128-2.1538-1.45-5.5584-2.9666-8.8827-3.9569-1.5791-0.47039-3.1175-1.012-3.4186-1.2036-0.8716-0.55437-4.4872-6.2202-5.5117-8.6371-2.3778-5.6095-4.1357-11.212-4.868-15.513-0.53075-3.1178-0.5301-3.1821 0.03839-3.8212 0.79836-0.8975 7.248-6.2675 8.8611-7.3777 1.2121-0.83425 2.5675-2.8661 2.5675-3.8488 0-0.63322 1.8434-5.2285 2.3146-5.7699 0.57231-0.65753 1.9448-0.67339 2.4797-0.02866 0.2689 0.32413 0.40502 1.262 0.39928 2.7508-0.01554 4.0331-1.8992 7.5482-6.7443 12.586-2.9057 3.0211-3.2056 3.4365-3.2056 4.4404 0 1.5476 1.2094 4.7494 3.6286 9.606 2.4772 4.9733 3.4465 6.2867 4.9384 6.6918 3.7261 1.0117 5.4427 1.3162 9.5667 1.6967 2.5343 0.23382 5.6779 0.52793 6.9859 0.65358 2.8536 0.27413 3.7631 0.71306 5.5089 2.6588 2.5636 2.8572 3.5212 4.1397 5.277 7.0676 1.7672 2.9468 2.9215 6.0665 6.7363 18.205 0.74885 2.3829 1.3998 3.8237 2.2438 4.9666 0.94727 1.2827 2.3808 4.1438 2.3808 4.7515 0 0.30876-0.98806 1.0511-1.399 1.0511-0.25561 0-1.7196-1.2312-3.2534-2.7359zm328.09 0.56796c-2.092-1.055-0.0734-4.7779 3.0401-5.607 3.185-0.84812 4.1588 0.86105 2.0274 3.5585-1.7918 2.2676-3.3689 2.9052-5.0676 2.0486zm-286.08-8.8643c-0.76451-0.50658-1.6904-1.3036-2.0576-1.7712-1.3391-1.7055-12.65-13.069-13.008-13.069-0.20297 0-1.5225-1.1753-2.9322-2.6117-3.7134-3.7836-11.023-10.611-12.529-11.702-0.71167-0.51571-2.82-2.4909-4.6852-4.3894-1.8652-1.8985-4.0669-3.8546-4.8926-4.347-1.1985-0.71459-1.7076-1.2844-2.5237-2.8243-0.80963-1.5278-0.95514-2.0367-0.69941-2.4464 0.51833-0.8303 0.38058-1.3221-0.53462-1.9087-0.47165-0.30229-2.0106-1.821-3.42-3.3748-3.3167-3.6567-7.9951-7.893-9.6943-8.7782-0.73575-0.38329-1.7101-1.0503-2.1653-1.4824l-0.82756-0.78546-1.3993 0.9272c-1.0298 0.68235-1.6741 0.90395-2.44 0.83918-1.4842-0.12555-1.4466-0.75393 0.16215-2.7088l1.3811-1.6782-1.2269-1.3944c-1.8008-2.0466-2.0568-3.7413-0.59088-3.9124 0.61178-0.07137 1.0443 0.23652 2.1483 1.5293l1.3823 1.6186 2.6785-2.5701c2.6156-2.5098 2.6741-2.596 2.4944-3.6725-0.18333-1.0978-0.16454-1.1218 4.5409-5.799 2.5987-2.5832 5.3911-5.5591 6.2052-6.6132 0.81414-1.0541 3.2669-3.7975 5.4506-6.0964 2.1837-2.2989 4.4388-4.8847 5.0114-5.746 1.3476-2.0272 2.8015-3.2102 4.8813-3.9717 1.4592-0.53427 2.2248-1.1747 5.9455-4.9731 11.245-11.48 16.905-17.711 16.905-18.612 0-0.17448-0.67212-0.93539-1.4936-1.6909l-1.4936-1.3737 0.1966-1.7497c0.10808-0.96231 0.31675-1.9838 0.46362-2.2701 0.44611-0.86942 1.5085-0.57364 3.035 0.84503 2.6755 2.4864 3.069 2.571 6.4495 1.3871 2.5948-0.9088 3.0874 0.20443 1.1662 2.6359-0.65401 0.82769-1.1891 1.7433-1.1891 2.0346 0 0.29136 0.47018 0.84809 1.0448 1.2372s1.8706 1.8876 2.8798 3.33c2.1582 3.0846 3.1273 3.973 4.6308 4.2453 0.6083 0.11015 1.4405 0.3714 1.8492 0.58057 0.40874 0.20916 3.822 3.4365 7.585 7.1719 3.763 3.7354 8.1465 7.9859 9.7412 9.4456 1.5947 1.4597 3.3701 3.3634 3.9453 4.2304 0.57526 0.86699 1.7581 2.1567 2.6285 2.866 4.4179 3.6002 5.8985 5.1209 6.721 6.9032 1.0031 2.1738 2.5462 3.9855 6.2107 7.2924 3.5998 3.2485 6.9569 6.5852 8.6734 8.6206l1.3601 1.6128 1.5269-0.98018c1.7092-1.0972 2.5928-1.0585 3.0458 0.13345 0.2978 0.78358-0.0446 2.0168-0.78817 2.8388-0.39166 0.43295-0.35682 0.60859 0.31798 1.6033 0.85004 1.2531 0.88542 1.4294 0.45006 2.2432-0.40529 0.75756-2.2547 0.76323-3.2343 0.01012-0.71508-0.54994-0.72437-0.54739-2.3782 0.65373-0.91315 0.66319-2.5967 2.2667-3.7412 3.5634-1.1445 1.2967-5.4252 5.7492-9.5127 9.8945-4.0875 4.1453-8.7027 9.104-10.256 11.019-4.345 5.3578-6.2845 7.5983-7.5643 8.738-0.64512 0.57448-3.1868 3.0013-5.6482 5.3929-2.4614 2.3916-5.2464 4.8335-6.189 5.4264-1.1864 0.74636-1.8699 1.4215-2.2213 2.1942-0.56383 1.2397-1.8614 2.7655-5.8074 6.8292-2.4453 2.5183-2.6213 2.7779-2.1813 3.2182 0.85218 0.8525 0.53209 2.024-0.73167 2.6778-1.1736 0.6071-1.4728 0.55943-3.0504-0.48597zm2.8457-8.0006c0.1243 0 0.226-0.50943 0.226-1.1321 0-0.98373 0.21538-1.3396 1.6436-2.7157 0.9578-0.92284 1.905-2.1915 2.2701-3.0405 0.50622-1.1772 1.1466-1.8659 3.3357-3.5874 2.6367-2.0735 4.655-4.0125 9.5465-9.1714 1.9184-2.0233 2.6764-2.61 3.9208-3.0345 1.565-0.53389 3.1146-2.0302 4.8824-4.7145 2.274-3.4531 3.654-5.0955 7.754-9.2282 2.502-2.522 5.2057-5.4121 6.0081-6.4226 0.9718-1.2237 1.9148-2.0507 2.8241-2.4768 0.75084-0.35178 1.9671-1.1766 2.7029-1.8329 1.7194-1.5337 6.54-6.2245 6.54-6.3639 0-0.05867-0.23409-0.35378-0.52023-0.65593-0.28612-0.30214-2.4572-2.6522-4.8247-5.2223-2.3675-2.5701-4.7352-4.9392-5.2616-5.2647-0.52641-0.32547-1.2333-1.0389-1.5709-1.5853-0.33761-0.54646-1.2119-1.4838-1.9428-2.083-0.73096-0.5992-2.0603-2.0523-2.9541-3.2292-1.7126-2.2549-5.3066-5.8198-10.089-10.007-2.216-1.9402-2.9381-2.7623-3.1642-3.6023-0.22064-0.8197-1.0083-1.7465-3.1909-3.7545-1.5938-1.4664-3.6061-3.1402-4.4717-3.7195-0.86561-0.57932-3.8628-3.2429-6.6603-5.9191-2.7976-2.6762-5.5548-5.2381-6.1271-5.6931-0.57233-0.45501-1.4537-1.3942-1.9585-2.087-1.5682-2.1522-4.1676-3.9769-5.1989-3.6495-0.74569 0.23677-6.6307 6.0969-7.7366 7.7039-0.46495 0.67562-1.7647 2.123-2.8883 3.2164-3.6769 3.5779-6.5208 6.5906-8.795 9.317-3.0755 3.6869-4.3314 4.7688-5.8104 5.0054-0.81244 0.12997-1.424 0.45727-1.8378 0.98357-0.34112 0.43385-0.57979 0.82925-0.53037 0.87869 0.0495 0.04946 0.61983-0.09891 1.2676-0.32973 0.64775-0.2308 1.7516-0.4255 2.453-0.43269 0.70138-0.0068 1.8344-0.29842 2.5178-0.6472 1.1021-0.56246 1.5796-0.61626 4.2243-0.47588 3.5005 0.18578 7.7335 0.91202 10.859 1.8631 1.2262 0.37309 2.8802 0.83042 3.6754 1.0163 0.79524 0.18587 2.2538 0.74592 3.2412 1.2445 0.98738 0.49863 2.7607 1.2219 3.9408 1.6072 3.2528 1.0622 7.1052 2.9941 8.6668 4.3462l1.3983 1.2107 2.2472-0.18339c5.8908-0.48074 13.097-0.78542 14.435-0.61036 0.8175 0.10689 1.9116 0.453 2.4312 0.76911 0.51968 0.31611 1.7905 0.72112 2.8241 0.90003 3.7486 0.64891 5.4548 2.2225 3.6749 3.3893-0.59027 0.38691-1.5176 0.47255-4.8128 0.44454l-4.0817-0.03473-0.64981 0.81524c-0.57394 0.72006-0.92309 0.84009-2.9906 1.0281-1.2874 0.11706-3.946 0.22282-5.908 0.23501-6.8641 0.04271-14.403 1.0192-15.757 2.0411l-0.66142 0.4991 1.0002 1.3105c0.96347 1.2623 1.2263 2.3714 0.8156 3.442-0.2905 0.7573-1.7364 1.3514-3.2935 1.3533-2.3608 0.0034-4.8944 0.52466-6.7034 1.3806-0.94013 0.44482-1.7093 0.91798-1.7093 1.0515 0 0.1335 2.2407 0.24561 4.9793 0.24915 6.4978 0.0079 10.066 0.51132 14.278 2.0126 4.1401 1.4756 4.5089 1.7155 5.9897 3.897 2.6693 3.9322 4.9441 10.496 5.6797 16.388 0.44174 3.5382 0.61304 3.866 2.0202 3.866 1.3321 0 3.0234 0.52363 3.0234 0.93603 0 1.5431-2.4266 3.1718-5.8743 3.9428-1.1871 0.26546-3.2528 0.8822-4.5903 1.3705-4.0323 1.4722-4.0439 1.4644-5.8473-3.9056-0.62682-1.8665-1.3671-3.8336-1.6451-4.3713-0.27799-0.53775-1.1009-3.0723-1.8288-5.6324-0.72784-2.5601-1.4469-4.7783-1.598-4.9294-0.85838-0.85872-6.4594-0.3748-6.7735 0.58523-0.0608 0.18563 0.93233 0.90711 2.2068 1.6033 3.6039 1.9686 5.542 3.61 5.9256 5.0183 0.30005 1.1016-0.37414 2.5737-2.7641 6.0352-3.2874 4.7614-4.8464 6.3526-6.7726 6.9128-1.7164 0.49915-3.4358 2.0767-3.4358 3.1522 0 0.35921 0.63328 1.0745 1.6364 1.8483 1.9781 1.5259 2.958 3.4849 2.1483 4.2949-0.42959 0.42974-0.71361 0.42694-3.2425-0.032-1.5244-0.27664-3.8153-0.83075-5.0909-1.2314-1.2756-0.4006-2.9077-0.72835-3.627-0.72835-2.3847 0-4.2468-0.56325-4.9011-1.4824-0.84117-1.1818-0.74637-1.9104 0.3684-2.8322 3.9365-3.2549 10.628-10.848 10.628-12.06 0-0.71726-0.17372-0.80396-3.2728-1.6337-1.4608-0.39107-4.0644-1.3856-5.7857-2.2099-3.6834-1.764-4.3833-2.5498-6.5314-7.3323-1.6783-3.7366-1.7807-5.12-0.46978-6.345l0.88495-0.82698-0.93031-0.18613c-1.5382-0.30777-7.793-6.4976-8.3099-8.2237-0.38112-1.2726 0.28301-5.2267 1.2218-7.2746 0.79102-1.7254 2.493-3.3428 3.955-3.7586 0.68916-0.19598 1.3744-0.46192 1.5228-0.59099 0.48603-0.42267-0.46065-1.152-1.4953-1.152-1.058 0-2.1931-0.84455-2.1931-1.6316 0-0.24315-0.43477-0.62609-0.96614-0.85098-0.53138-0.22489-1.9598-1.0965-3.1743-1.937-1.2145-0.84047-2.4428-1.5281-2.7295-1.5281-0.28675 0-0.82964 0.43308-1.2064 0.9624-1.0751 1.5104-5.0288 5.4489-6.3414 6.3169-1.0777 0.71273-10.486 9.7979-13.318 12.862l-1.162 1.2568 0.96696 0.82495c0.53183 0.45372 1.2042 0.95877 1.4942 1.1223 0.87682 0.49454 6.7785 5.7772 9.5471 8.5456 1.4289 1.4289 3.272 3.0128 4.0957 3.5198s1.4977 1.0486 1.4977 1.2034c0 0.15481 1.9733 2.2514 4.3851 4.659 2.9224 2.9174 5.0665 5.3693 6.428 7.3507 1.1236 1.6352 3.3306 4.3291 4.9046 5.9863 1.574 1.6572 3.5776 3.7999 4.4524 4.7617 0.87479 0.96175 2.1456 2.1419 2.8241 2.6226 2.4786 1.7561 4.0898 3.2689 4.921 4.6203 0.89393 1.4534 6.4778 7.2045 9.9964 10.296l2.0716 1.82 1.186-1.1509c0.65232-0.63301 1.2877-1.1509 1.412-1.1509zm-6.4626-82.654c-2.3531-0.57308-4.243-2.57-5.1964-5.4908-0.66169-2.0272-0.25538-6.4405 0.85589-9.2964 0.51926-1.3344 1.147-2.5948 1.3951-2.8007 0.24804-0.20592 1.4135-0.46922 2.59-0.58509 1.1765-0.11586 2.8762-0.38197 3.7772-0.59136 3.2015-0.74401 4.9689 0.19754 6.6016 3.517 0.87643 1.7818 0.97446 2.2415 0.96333 4.5168-0.0134 2.7231-0.53581 4.7469-1.8706 7.2461-1.5717 2.9428-5.3735 4.3959-9.1161 3.4845zm6.3697 10.471c0.33751-0.23486-1.2683-1.002-3.5454-1.6937-5.6845-1.7269-14.222-3.0525-14.698-2.2822-0.26781 0.4335 0.42199 1.5123 2.1459 3.356l1.3184 1.41 1.232-0.61878c0.67762-0.34033 1.6334-0.91445 2.1239-1.2758 0.4905-0.36137 1.1402-0.74885 1.4439-0.86107 1.0414-0.3849 2.9147 0.40024 4.4494 1.8648l1.4878 1.4198 1.9576-0.61535c1.0767-0.33843 2.0147-0.65509 2.0846-0.70367zm69.723 75.157c-2.2905-0.71333-3.5224-3.1131-3.511-6.8398 8e-3 -2.5616 0.0646-2.7929 3.6545-14.869 0.17016-0.57247 0.9872-3.5166 1.8156-6.5425 0.82842-3.0259 1.9665-6.773 2.529-8.3268 1.349-3.7261 2.2099-7.2023 2.2099-8.9231 0-0.94955 0.16567-1.543 0.52022-1.8635 0.75831-0.68535 4.2788-2.298 5.0172-2.2982 0.91674-3.03e-4 1.3911 0.72766 1.2083 1.8543-0.14879 0.91719-3.0368 9.4098-6.4485 18.963-0.84702 2.3717-1.8658 5.4496-2.264 6.8399s-0.98465 3.3976-1.3032 4.4608c-1.0876 3.6294-1.9323 8.1756-1.9259 10.366 6e-3 1.9594 0.0824 2.2491 0.73553 2.7782 0.56543 0.45803 0.98684 0.54949 1.8762 0.40721 2.2939-0.36694 5.9197-2.6501 7.7482-4.8791 0.67504-0.82287 1.8058-2.2074 2.5128-3.0766 3.6475-4.4846 6.4652-6.6841 11.709-9.1402 4.4796-2.0982 6.2693-2.6257 10.635-3.1347 7.4126-0.8642 11.692-0.6115 19.383 1.1446 1.0319 0.23562 2.6119 0.57602 3.5112 0.75645 0.89924 0.18042 3.1065 0.72436 4.905 1.2088s5.4104 1.362 8.0264 1.9502c2.616 0.58822 6.0272 1.4448 7.5805 1.9034 1.5532 0.45867 3.5598 0.93415 4.4591 1.0566 0.89924 0.12246 2.7052 0.54363 4.0132 0.93591 7.5364 2.2603 22.952 3.6764 33.74 3.0995 6.1376-0.32823 6.7072-0.40601 9.9586-1.3599 3.6391-1.0676 8.0363-3.7321 9.0052-5.4566 0.7625-1.3572 0.81954-2.142 0.23683-3.2578-1.0933-2.0936-3.6932-3.4416-9.0934-4.7149-2.8098-0.66255-4.1863-0.81389-7.7291-0.84975-5.2867-0.0535-5.0536-0.0198-5.0536-0.73236 0-0.70094 1.0123-1.2626 3.27-1.8143 2.3256-0.56828 11.428-0.46454 14.124 0.16098 2.2758 0.52799 5.9276 2.4204 7.617 3.9473 2.2027 1.9908 2.9253 4.9141 1.768 7.1522-1.2829 2.481-6.0762 5.9284-9.9702 7.1707-8.3542 2.6652-11.087 3.0519-21.47 3.0376-4.1173-6e-3 -8.3312-0.15168-9.3641-0.32451-1.033-0.17282-2.2125-0.27904-2.6213-0.23603-1.1384 0.11976-5.5521-0.346-7.8777-0.83129-1.8885-0.39407-7.6604-1.2721-12.634-1.9218-1.0628-0.13884-3.2031-0.59563-4.7564-1.0151-3.7704-1.0182-12.648-3.0591-15.607-3.5878-1.308-0.23374-4.251-0.77152-6.54-1.1951-7.4319-1.3752-10.014-1.6692-14.715-1.6752-7.1104-9e-3 -13.009 1.4369-18.691 4.5821-2.8664 1.5866-4.4246 2.9545-6.6704 5.8557-1.7564 2.269-7.8887 7.8277-9.4918 8.6041-1.5104 0.73142-4.6541 1.0608-6.0314 0.63184zm-146.02-25.835c-1.4759-1.0814-1.9348-1.8874-2.7494-4.8279-0.89095-3.2163-0.83237-7.4674 0.14092-10.227 1.0455-2.9644 1.4915-3.4402 4.1377-4.4135 2.6091-0.9597 3.3747-0.88997 4.0841 0.37197 0.35338 0.62863 0.80462 0.94037 1.5687 1.0838 1.2435 0.23336 1.6511 0.83148 1.6511 2.4226 0 0.70983 0.26626 1.532 0.70556 2.1788 0.41541 0.61157 0.91537 2.0964 1.2157 3.6108 0.43075 2.1716 0.4544 2.8425 0.15185 4.3089-0.88845 4.3064-2.7679 5.8986-7.3654 6.2398-2.2099 0.16402-2.3312 0.13842-3.541-0.74813z" fill="#fff"/></g></svg>
