<?xml version="1.0" encoding="UTF-8" standalone="no"?>
<!DOCTYPE svg PUBLIC "-//W3C//DTD SVG 1.1//EN" "http://www.w3.org/Graphics/SVG/1.1/DTD/svg11.dtd">
<svg width="100%" height="100%" viewBox="0 0 406 406" version="1.1" xmlns="http://www.w3.org/2000/svg" xmlns:xlink="http://www.w3.org/1999/xlink" xml:space="preserve" style="fill-rule:evenodd;clip-rule:evenodd;stroke-linejoin:round;stroke-miterlimit:2;">
    <g transform="matrix(1,0,0,1,-8,8)">
        <path d="M370.333,285.88C345.637,285.928 321.092,282.024 297.629,274.317C286.659,270.481 274.466,265.063 265.992,273.016L222.955,296.747C173.514,271.924 133.398,231.816 108.566,182.379L139.379,138.451C147.916,129.908 142.969,117.315 139.294,105.811C131.558,82.316 127.633,57.735 127.667,33C127.667,15.327 129.34,9 111.667,9L40,8C22.327,8 8,22.327 8,40C8.235,246.089 159.244,397.098 365.333,397.333C383.006,397.333 397.333,391.006 397.333,373.333L394.333,309.88C394.333,292.207 388.006,285.88 370.333,285.88Z" style="fill-rule:nonzero;"/>
    </g>
    <g>
        <g transform="matrix(1,0,0,1,-16,16)">
            <path d="M394.667,162.667C388.776,162.667 384,157.891 384,152C383.906,75.455 329.878,21.427 253.333,21.333C247.442,21.333 242.666,16.557 242.666,10.666C242.666,4.775 247.442,0 253.333,0C341.66,0.094 405.239,63.673 405.333,152C405.333,157.891 400.558,162.667 394.667,162.667Z" style="fill:rgb(77,77,77);fill-rule:nonzero;"/>
        </g>
        <g transform="matrix(1,0,0,1,-8,8)">
            <path d="M293.333,186.667C287.442,186.667 282.666,181.891 282.666,176C282.666,146.545 258.788,122.667 229.333,122.667C223.442,122.667 218.666,117.891 218.666,112C218.666,106.109 223.442,101.333 229.333,101.333C270.571,101.333 304,134.763 304,176C304,181.891 299.224,186.667 293.333,186.667Z" style="fill:rgb(77,77,77);fill-rule:nonzero;"/>
        </g>
    </g>
</svg>
