<svg width="1024" height="610" version="1.1" viewBox="0 0 1024 610" xmlns="http://www.w3.org/2000/svg"><g transform="translate(-466.2 -237.6)"><path d="m790.6 842.8c-2.721-2.617-5.297-4.752-5.721-4.752-0.4354 0-2.625 0.8805-4.862 1.93-3.592 1.689-4.209 1.809-5.019 1.001-1.33-1.327-0.5806-3.498 2.37-6.851l2.516-2.859-3.181-3.112a35.56 35.46 0 0 1-4.717-5.754c-2.455-4.185-8.962-9.698-12.01-10.18-2.177-0.3498-3.798-1.592-11.1-8.576-9.724-9.3-15.36-15.41-15.36-16.65 0-1.23 1.149-1.93 4.717-2.81 2.903-0.7237 3.338-0.6754 6.386 0.8082 1.79 0.8805 4.402 2.774 5.781 4.198 1.379 1.435 7.813 7.623 14.28 13.75 6.483 6.127 12.38 12.05 13.12 13.12 0.75 1.086 3.12 3.51 5.285 5.392l3.931 3.389 2.225-2.292a56.14 55.99 0 0 1 5.66-4.825c1.887-1.387 4.523-3.884 5.854-5.548s5.721-6.2 9.748-10.08a259.3 258.6 0 0 0 12.72-13.3c2.975-3.413 5.866-6.694 6.41-7.273 1.367-1.399 11.67-2.34 13.07-1.182 1.85 1.532 0.774 3.932-2.504 5.645-1.971 1.049-8.648 7.153-19.08 17.48a1552 1548 0 0 1-19.53 19.11 89.62 89.38 0 0 0-5.854 5.958l-2.346 2.726 3.556 3.341c2.987 2.835 3.483 3.582 3.072 4.825l-1.197 4.029c-0.907 3.112-1.536 4.125-2.516 4.101-0.4232 0-2.987-2.147-5.709-4.752zm-66.95-61.24c-2.02-2.243-0.3508-4.222 7.015-8.262 10.64-5.85 16.96-9.927 21.5-13.88 2.383-2.087 5.152-4.113 6.144-4.535 1.959-0.8081 2.903-2.256 1.875-2.883a16.85 16.8 0 0 0-3.943-0.7237c-3.084-0.3136-3.483-0.1809-5.394 1.64-2.661 2.557-5.189 2.581-15.55 0.0965-8.95-2.147-12.29-3.353-21.21-7.635-12.77-6.139-18.23-14.64-15.55-24.24 0.895-3.184 6.616-8.347 10.79-9.722 6.156-2.05 26.5-1.218 38.84 1.568 18.24 4.113 27 6.815 33.79 10.4 3.81 2.014 7.595 3.582 8.648 3.582 2.431 0 8.381-2.436 15.32-6.272 11.67-6.441 24.55-11.53 34.82-13.75 9.361-2.002 22.96-2.256 26.21-0.4583 2.443 1.363 6.398 6.031 7.039 8.323 0.8466 3.003 0.508 9.83-0.6532 12.81-2.661 6.972-14.78 14.96-28.88 19.06-6.495 1.882-7.087 1.954-10.3 1.182-2.866-0.6875-3.834-0.6754-6.047 0.0965-4.475 1.544-3.87 3.522 2.6 8.323 1.826 1.339 5.237 4.222 7.559 6.393 2.322 2.171 6.41 5.235 9.071 6.815 5.14 3.052 6.809 5.138 5.733 7.141-1.052 1.954-3.314 2.436-7.051 1.472-1.85-0.4825-6.652-1.327-10.68-1.894-10.55-1.52-11.55-1.882-16.93-6.2-7.208-5.79-17.75-12.4-20.5-12.86-2.782-0.4825-13.32 1.628-17.78 3.534-3.229 1.387-18 10.05-20.58 12.09-0.9192 0.7116-4.777 2.111-8.587 3.1-3.822 1.001-9.942 2.847-13.63 4.113-8.744 3.052-12.01 3.413-13.67 1.592zm-8.345-11.6c-8.406-8.13-23.34-24.61-25.2-27.79-2.008-3.474-12.26-14-16.85-17.33a30.14 30.06 0 0 1-5.527-5.38c-3.483-4.752-9.627-10.28-11.41-10.28-0.8466 0-2.794 0.9408-4.33 2.123-3.302 2.497-5.6 3.184-7.861 2.328-2.624-0.9891-2.056-2.991 1.875-6.646 2.117-1.978 3.507-3.787 3.507-4.608 0-0.7237-1.004-2.533-2.225-4.005-2.54-3.015-2.806-4.704-0.9192-5.717 1.064-0.5669 1.911-0.398 4.451 0.9167 6.047 3.16 8.418 2.002 20-9.879 4.91-5.018 10-10.47 11.32-12.12 1.33-1.652 5.624-5.669 9.555-8.95 7.886-6.562 10.46-9.215 14.32-14.78 5.213-7.478 33.94-35.46 43.5-42.34 5.297-3.836 7.075-5.5 8.103-7.635 0.7256-1.508 1.33-3.052 1.33-3.413 0-0.7116 9.893-9.891 14.45-13.42 3.507-2.714 3.882-4.053 1.814-6.284-2.225-2.364-3.374-6.127-2.274-7.442 1.125-1.375 1.415-1.291 5.055 1.58l3.266 2.581 2.685-1.906c1.476-1.049 4.789-2.654 7.341-3.57 8.043-2.871 8.635-0.8926 1.814 6.115l-4.681 4.801 4.511 4.198c12.03 11.17 46.27 45.98 47.65 48.44 0.278 0.4825 2.153 2.014 4.148 3.377 1.996 1.375 7.946 6.586 13.22 11.59 5.273 5.006 10.46 9.577 11.54 10.16 2.54 1.351 6.023 8.347 5.805 11.64-0.158 2.05 0.3266 2.75 4.959 7.478 2.806 2.871 6.241 6.55 7.62 8.166 2.37 2.774 9.76 9.722 17.79 16.72 3.096 2.678 3.725 2.991 4.33 2.171 1.935-2.617 7.414-4.752 9.397-3.691 1.887 1.013 1.415 2.75-1.693 6.212-2.842 3.136-2.878 3.257-1.875 4.789a6.591 6.574 0 0 1 0.8346 3.679c-0.194 1.773-0.4838 2.135-2.008 2.304a5.975 5.959 0 0 1-3.386-0.8323c-1.935-1.279-2.407-1.013-8.732 4.921-3.87 3.643-4.281 4.258-3.653 5.428a6.071 6.055 0 0 1 0.7016 2.268c0 0.5307-3.919 4.752-8.708 9.408-11.89 11.51-12.12 11.77-14.83 15.74-3.084 4.499-18.5 19.53-20.61 20.03-2.177 0.5428-3.12-0.1809-2.661-2.014 0.3266-1.327 0.12-1.592-1.536-1.93-3.943-0.7719-2.782-2.654 8.732-14.15 5.721-5.705 11.39-11.46 17.02-17.25 3.507-3.631 7.946-8.081 9.881-9.891 1.911-1.785 6.422-6.405 10.01-10.24l6.531-6.984-6.531-5.995a476.4 475.1 0 0 0-11.04-9.842 96.32 96.06 0 0 1-8.26-8.13c-5.08-5.778-8.249-8.853-12.05-11.68-5.588-4.173-16.85-16.46-21.18-23.16-3.653-5.645-15.96-19.67-21.44-24.43-7.015-6.091-14.01-13.46-15.42-16.22-2.673-5.211-9.264-12.91-13.22-15.41a106.4 106.1 0 0 1-7.269-5.428l-4.717-3.812-1.814 2.014c-0.9918 1.11-1.79 2.702-1.79 3.558 0 2.81-1.391 4.668-6.616 8.841-2.83 2.256-8.019 7.273-11.53 11.13-8.793 9.71-24.29 25.38-27.36 27.67-4.185 3.112-18.02 16.02-24.82 23.16-13.91 14.57-21.75 22.1-24.48 23.48-3.181 1.604-11.48 8.009-11.48 8.853 0 0.3016-1.596 2.135-3.556 4.089l-3.568 3.546 4.995 5.79c2.661 3.1 5.285 6.236 7.861 9.408 1.572 1.99 7.946 8.684 14.17 14.87 6.229 6.2 12.31 12.81 13.51 14.69 1.21 1.882 3.87 4.728 5.951 6.308 4.959 3.799 15.99 15.51 15.99 16.97 0 0.6393-0.6772 1.592-1.488 2.135a7.196 7.177 0 0 0-2.213 2.545c-1.21 2.654-2.987 1.93-8.769-3.655zm519-5.995c-17.42-1.061-42.52-6.658-56.77-12.66-39.1-16.45-64.26-54.58-73.41-111.2-2.419-14.96-1.633-57.28 1.379-74.96 0.8708-5.102 1.862-10.17 2.213-11.25 0.6774-2.099 0.242-4.065-0.8708-4.065-0.7256 0-7.341 4.113-16.35 10.18-2.975 1.99-8.273 5.283-11.77 7.297-17.2 9.879-24.43 17.19-30.93 31.19-2.6 5.609-5.721 17.49-6.64 25.29-0.7258 6.091-1.657 7.744-4.85 8.6-3.326 0.8805-8.962 0.5187-10.41-0.6754-1.209-0.9891-1.185-1.363 0.895-16.81 2.782-20.64 1.185-42.2-4.185-56.65-1.089-2.943-2.516-3.498-4.136-1.592-0.532 0.6031-2.467 3.679-4.318 6.827-8.067 13.73-9.857 16.61-11.47 18.41-0.9554 1.049-3.991 5.187-6.749 9.191-3.931 5.705-7.656 9.891-17.13 19.25-13.57 13.44-19.71 18.03-32.81 24.61-17.75 8.877-29.18 10.3-43.23 5.355-5.805-2.038-13.82-8.974-16.57-14.32-1.451-2.835-3.144-9.336-3.144-12.03 0-3.426 1.862-9.553 4.777-15.61 2.274-4.752 3.846-6.899 8.708-11.97 5.116-5.355 6.217-6.2 8.103-6.284 1.596-0.0602 2.274 0.1809 2.443 0.9288 0.122 0.5669-1.693 3.92-3.991 7.454-6.906 10.51-9.047 17.26-8.019 25.34 0.4838 3.812 1.052 5.355 3.229 8.684 3.278 5.03 7.378 7.913 14.65 10.3 9.627 3.172 18.41 2.099 30.31-3.667 7.789-3.775 15.26-9.468 25.11-19.09 11.74-11.46 18.41-20.52 26.34-35.78 3.084-5.922 6.337-11.94 7.232-13.33 2.866-4.511 8.829-21.23 9.446-26.42 0.3144-2.461 0.036-3.522-1.451-6.296-3.447-6.272-12.42-13.73-20.72-17.19-15.7-6.513-32.09-4.427-48.75 6.188-7.16 4.559-7.946 1.713-1.27-4.62 7.668-7.261 14.49-10.43 25.86-12.01 7.765-1.098 18.5-0.7358 24.58 0.8081 6.652 1.713 16.36 7.442 23.58 13.96 5.491 4.921 7.184 6.948 10.96 13.07 6.289 10.17 7.704 13.12 10.14 21.08 3.713 12.07 5.322 20.75 5.721 30.64 0.2176 4.994 0.5804 9.203 0.8466 9.36 0.2418 0.1568 3.265-2.726 6.712-6.405 7.837-8.455 19.11-17.25 27.62-21.52 7.644-3.836 26.43-17.1 31.24-22.05 6.483-6.67 13.21-18.94 15.88-28.96 1.657-6.212 2.455-6.779 8.672-6.236 5.007 0.4584 8.285 1.809 9.204 3.836 0.641 1.411 0.2178 2.569-3.725 10.35a171.5 171.1 0 0 0-7.438 17.33 557.8 556.3 0 0 1-4.886 13.42c-4.959 12.75-7.474 28.51-8.019 50.06-0.5804 23.12 1.258 39.37 7.1 62.85 4.076 16.37 9.143 26.95 22.17 46.35 5.189 7.732 9.252 11.99 16.67 17.45 8.805 6.489 9.482 6.875 20.68 11.94 8.176 3.691 17.22 6.67 30.89 10.2 12.32 3.172 57.88 7.84 68.38 6.984 1.935-0.1568 11.37-0.8443 21-1.508 36.67-2.581 45.74-4.017 76.11-12.12 15.59-4.149 47.63-16.78 55.62-21.92 16.26-10.45 27.01-20.57 31.64-29.77 4.947-9.842 6.023-19.12 3.072-26.38-2.721-6.658-9.627-14.24-17.88-19.61-5.007-3.281-9.772-5.114-17.17-6.646-9.385-1.954-8.902-3.1 2.237-5.199 13.73-2.581 33.67 2.183 43.56 10.42 3.157 2.629 6.616 7.358 8.43 11.53 3.011 6.899 1.669 17.59-3.507 28.26-4.596 9.42-14.01 20.63-24.62 29.3-7.499 6.127-23.38 16.14-31.62 19.93-30.55 14.05-68.09 25.37-95.66 28.83-24.52 3.088-76.94 5.066-98.93 3.715zm-503.7-55.81c-6.918-0.9288-14.15-2.629-15.47-3.631-0.4474-0.3619-0.7256-1.375-0.6288-2.292 0.3144-2.581 3.483-3.691 13.8-4.776 5.031-0.5307 9.615-1.327 10.17-1.761 2.564-2.014 4.306-4.909 13.47-22.62 4.233-8.178 9.748-15.21 13.01-16.67 1.415-0.6152 6.204-1.628 10.64-2.231 7.62-1.049 8.636-1.049 18.44-0.0361 16.93 1.737 17.33 2.038 32.57 24.57 2.25 3.317 6.047 7.913 8.466 10.23 4.402 4.246 4.717 4.415 13.56 6.887 3.157 0.8805 2.25 3.631-1.863 5.693-2.298 1.146-11.79 2.28-17.1 2.05-4.535-0.1931-11.9-4.487-19.21-11.17-4.838-4.403-5.721-5.874-5.733-9.384 0-2.955-0.036-2.991-4.717-6.513a57.09 56.93 0 0 0-8.756-5.355c-5.08-2.292-14.51-5.283-15.48-4.909-0.4594 0.1809-0.6288 1.098-0.4594 2.292 0.2418 1.592-0.3024 2.859-2.564 6.248-8.091 11.98-10.58 16.17-12.82 21.59-1.536 3.715-3.314 6.839-4.753 8.323-2.092 2.171-2.854 2.485-8.127 3.438-6.628 1.206-7.704 1.206-16.45 0.0241zm603.1-8.805a6.35 6.332 0 0 1-2.709-2.147c-1.33-2.473-0.762-9.637 1.512-18.76 2.346-9.444 2.262-11.17-0.508-11.17-3.326 0-8.72 7.78-13.5 19.47-1.548 3.787-2.818 7.346-2.83 7.912 0 1.447-1.004 2.087-5.685 3.631-4.499 1.496-6.132 1.689-6.7 0.7599-0.2056-0.3257 1.234-6.248 3.193-13.16 1.959-6.923 3.846-14.08 4.185-15.9 0.7256-3.86-0.02-5.898-2.129-5.898-1.911 0-5.443 2.545-6.18 4.451l-3.507 9.046c-3.265 8.443-4.971 11.4-9.192 15.92-3.507 3.751-6.954 5.476-11.03 5.488-2.467 0.012-3.399-0.3377-5.285-1.978a16.67 16.62 0 0 1-3.217-3.812c-0.508-0.9891-1.161-1.809-1.451-1.809-0.2662 0-1.802 1.242-3.386 2.774-4.705 4.475-12.32 6.176-17.25 3.824-2.927-1.387-3.749-2.955-3.725-7.165l0.02-3.594-2.794 2.617c-7.075 6.562-21.49 10.49-33.4 9.083-9.627-1.122-14.42-1.327-16.7-0.6875-3.459 0.9649-5.842 0.1448-6.096-2.05a10.1 10.07 0 0 1 0.144-3.208c0.4476-1.773 3.907-3.498 7.015-3.498 2.238 0 2.419-0.1568 4.185-3.98 3.967-8.479 6.797-24.68 5.987-34.15l-0.3992-4.801 5.249-3.92c4.076-3.028 5.467-3.763 6.132-3.22 0.617 0.5186 0.8468 2.822 0.8468 8.817 0 11.53-2.588 21.71-8.515 33.52-2.782 5.548-3.943 8.479-3.423 8.612 10.1 2.654 15.49 3.257 20.85 2.292 8.914-1.604 14.03-5.524 16.21-12.42 0.9916-3.136 1.028-4.137 0.3386-8.431-1.572-9.734-4.898-16.31-12.06-23.8-5.6-5.838-7.91-7.297-15.72-9.903-5.382-1.809-6.483-1.954-14.72-1.954-14.03 0-23.1 1.966-34.29 7.442-7.075 3.462-11.53 7.587-14.15 13.07-5.588 11.72-4.693 22.07 2.25 26.45 2.806 1.773 3.447 1.93 8.95 1.93 3.858 0 6.773-0.3498 8.236-0.9649 2.963-1.23 3.399-1.206 3.399 0.2412 0 1.785-5.491 5.03-9.845 5.838-11.08 2.05-21.15-2.822-25.48-12.3-2.54-5.524-3.241-11.46-1.899-16.09 2.516-8.684 9.119-16.28 19.4-22.35 13.52-7.961 20.56-9.758 38.51-9.867 13.56-0.0965 16.42 0.3739 24.19 3.739 5.539 2.412 17.74 10.86 21.4 14.78 3.919 4.222 7.692 11.39 9.579 18.17 0.6894 2.485 1.33 4.583 1.451 4.704 0.096 0.0965 0.9676-1.122 1.899-2.726 2.673-4.559 5.479-7.382 8.938-8.986 3.87-1.809 8.079-1.93 10.4-0.3257 2.891 1.99 3.919 2.099 6.483 0.6513l2.419-1.363 2.455 1.266c3.036 1.568 3.314 3.112 1.209 6.718-2.056 3.498-3.882 8.757-5.128 14.78-0.895 4.258-0.883 4.921 0.06 7.249 1.282 3.184 3.302 3.884 6.41 2.207 4.862-2.605 7.595-6.996 12.63-20.23 3.386-8.95 6.555-12.19 13.35-13.71 2.588-0.579 3.374-0.4945 5.636 0.6031 3.568 1.737 4.415 3.317 4.826 9.155l0.3386 4.994 2.806-3.86c4.463-6.152 9.373-8.902 16.03-8.962 2.951-0.0241 3.786 0.2412 4.995 1.52 1.85 1.966 1.705 3.088-2.104 17.19-1.597 5.934-2.927 11.42-2.927 12.19a2.576 2.569 0 0 0 1.246 2.087c1.028 0.5548 2.177 0.1207 6.41-2.316 4.596-2.666 5.709-3.04 10.06-3.365 5.612-0.398 6.325-0.784 12.17-6.513 4.197-4.101 7.716-9.529 6.773-10.47-0.2782-0.2654-3.145-0.4945-6.337-0.4825-4.935 0-6.446 0.2654-9.797 1.737-4.523 1.978-7.039 2.207-7.62 0.6754-0.6046-1.532 3.326-4.837 7.813-6.586 3.302-1.291 5.322-1.52 16.5-1.882 11.72-0.386 13.06-0.5548 17.09-2.111 5.503-2.135 8.865-2.231 10.23-0.2774 1.27 1.809 1.27 3.944 0 5.211-1.076 1.061-1.379 1.146-8.176 2.171-5.757 0.8564-11.57 3.775-16.41 8.238-3.701 3.426-6.858 8.479-6.87 11.01-0.02 1.978 12.52 5.633 16.18 4.728 2.939-0.7478 5.564-3.812 5.334-6.26-0.182-1.882-0.4112-2.087-2.588-2.268-2.903-0.2412-2.975-0.784-0.4596-2.895 5.624-4.716 12.45-1.11 9.796 5.187-1.185 2.835-5.733 8.455-8.26 10.2-2.479 1.725-8.587 2.859-12.7 2.376a94.78 94.53 0 0 1-9.518-2.014c-6.313-1.64-7.982-1.701-15.38-0.5669-1.572 0.2412-3.181 0.1207-4.015-0.3256-1.209-0.6634-1.717-0.4463-4.148 1.785-4.015 3.703-9.192 4.849-13.49 2.979zm-72.43-8.009c3.737-1.978 5.926-4.258 8.019-8.347 1.983-3.896 3.749-9.83 3.749-12.59 0-3.208-4.088-6.067-7.523-5.271-4.886 1.146-9.869 7.128-12.2 14.66-3.205 10.37 0.3628 15.55 7.97 11.56zm146.3 6.634c-2.818-1.484-3.495-2.654-3.495-6.224 0-9.312 4.681-22.25 10.38-28.73 4.052-4.608 12.34-6.755 15.8-4.101 2.588 1.978 3.713 2.099 6.301 0.6513l2.431-1.363 2.419 1.254c1.355 0.6996 2.552 1.785 2.685 2.412 0.12 0.6272-0.7984 3.172-2.032 5.657-3.241 6.465-5.322 14.76-4.971 19.78 0.12 1.845 2.419 4.089 4.161 4.089 2.056 0 6.434-3.329 8.829-6.743 1.125-1.568 2.758-4.704 3.653-6.936 2.068-5.187 2.939-6.127 4.173-4.463 1.246 1.701 1.161 2.871-0.6288 7.575a35.61 35.51 0 0 1-7.922 12.66c-3.507 3.763-6.954 5.488-11.04 5.5-2.467 0.012-3.399-0.3377-5.273-1.978a16.62 16.57 0 0 1-3.229-3.812c-0.508-0.9891-1.173-1.809-1.451-1.809-0.266 0-1.814 1.242-3.386 2.774-4.681 4.463-12.74 6.224-17.38 3.787zm13.39-6.634c1.391-0.7358 3.35-2.099 4.342-3.015 3.822-3.558 8.684-16.14 7.474-19.32-1.463-3.836-6.894-5.018-11.13-2.412-4.656 2.883-9.929 13.51-9.929 20.02 0 5.548 3.87 7.539 9.24 4.716zm-825.6 6.127c-1.125-1.351-0.4717-2.654 3.266-6.574l2.963-3.112-10.47-9.77c-5.757-5.367-10.89-9.999-11.42-10.29a11.78 11.75 0 0 1-2.516-2.991 18.75 18.7 0 0 0-4.414-4.427c-4.62-3.172-15.12-13.81-14.88-15.08 0.3266-1.689 3.217-1.725 6.362-0.0965a22.65 22.59 0 0 0 6.047 1.882c3.786 0.5307 9.797 4.608 11.44 7.744 0.9917 1.918 4.922 6.948 9.071 11.59 1.258 1.411 4.717 4.463 7.692 6.755 2.975 2.316 6.192 5.078 7.16 6.152 0.9676 1.098 1.971 1.978 2.225 1.978 1.088-0.0361 4.136-5.331 4.463-7.756 0.2782-2.099 1.004-3.257 3.689-5.826 1.838-1.773 3.919-4.39 4.62-5.814 1.33-2.654 4.088-5.199 13.59-12.54a73.29 73.09 0 0 0 9.615-9.179c2.237-2.702 15.15-15.9 28.72-29.35 13.55-13.44 25.75-25.91 27.1-27.72 1.729-2.28 3.096-3.401 4.475-3.715 1.693-0.3619 8.103-5.717 18.61-15.52 1.089-1.025 0.895-1.339-4.342-6.73a174.7 174.2 0 0 1-9.555-10.8c-2.225-2.822-5.14-5.886-6.471-6.803-1.33-0.9288-5.225-4.68-8.672-8.371-7.438-7.961-36.57-34.76-40.66-37.43a4.959 4.945 0 0 1-2.153-3.438 17.69 17.65 0 0 0-1.209-3.908 27.31 27.24 0 0 1-1.524-5.102c-0.6531-3.136-1.209-3.98-5.164-7.84-4.33-4.222-5.588-6.381-4.838-8.323 0.2056-0.5307 1.088-0.9649 1.983-0.9649 1.294 0 6.096 4.463 23.14 21.45a3061 3053 0 0 0 26.99 26.66c3.87 3.691 5.684 5.91 6.12 7.502 0.6048 2.171 3.386 6.429 4.814 7.394 1.85 1.242 16.62 14.96 22.25 20.65 7.305 7.418 8.43 7.828 12.7 4.62 3.338-2.533 6.12-3.389 8.248-2.593 2.758 1.049 2.165 3.015-2.237 7.454l-3.931 3.956 2.975 3.172c3.217 3.438 3.544 4.487 1.923 6.103-1.294 1.291-3.29 0.965-7.886-1.23l-3.314-1.604-3.265 2.171c-6.458 4.282-13.59 11.47-25.2 25.44a47.75 47.62 0 0 1-6.289 6.067c-5.564 4.282-12.82 11.46-14.08 13.92-1.173 2.268-3.604 5.114-14.88 17.44-11.18 12.23-26.61 26.86-30.94 29.36-3.773 2.171-5.733 3.956-5.733 5.247 0 2.05-4.04 7.092-10.73 13.35l-6.773 6.344 1.754 3.172c2.177 3.92 2.383 7.599 0.4233 7.599-0.7257 0-2.588-0.7478-4.16-1.665l-2.83-1.665-3.64 1.616c-4.947 2.195-9.168 2.774-10.28 1.435zm6.168-46.44c-3.653-1.134-4.62-2.485-5.588-7.876-0.8103-4.559-1.33-5.162-3.894-4.656-0.9675 0.1931-3.145 0.012-4.838-0.398-3.749-0.8805-5.563-0.3136-9.313 2.895l-2.624 2.292-5.721-0.3377c-10.59-0.6031-19.86-4.969-32.41-15.32-4.898-4.053-22.83-21.28-24.07-23.13-1.27-1.918-1.451-4.559-0.3628-5.645 1.028-1.037-24.91-26.7-29.7-29.41a28.8 28.72 0 0 1-4.995-3.51l-1.621-1.616-2.104 1.544c-6.712 4.982-11.44 2.123-5.261-3.16l2.903-2.473-2.298-3.015c-2.661-3.45-3.604-6.067-2.745-7.599 0.9676-1.725 2.141-1.254 5.539 2.268l3.217 3.329 2.419-2.256c1.983-1.821 4.04-3.594 6.12-5.319 3.64-3.028 3.701-3.136 3.338-5.681l-0.387-2.617 10.82-11.1a1427 1424 0 0 0 26.03-27.31c2.419-2.617 5.092-5.946 5.926-7.394 0.9192-1.616 4.439-5.078 9.119-8.962 4.185-3.474 8.611-7.659 9.833-9.288 3.169-4.282 5.89-6.152 9.748-6.67 1.814-0.2412 4.052-0.9408 4.959-1.532 2.02-1.327 3.628-0.8443 4.16 1.266 0.5563 2.195-0.4838 4.101-5.031 9.263a111.1 110.8 0 0 1-13.88 13.62l-8.103 6.948c-1.524 1.291-5.08 5.38-7.934 9.07-7.789 10.1-15.54 18.27-20.28 21.4-4.136 2.738-24.7 22.43-28.05 26.9l-1.669 2.207 4.257 3.655c2.334 2.014 7.172 6.284 10.74 9.517 3.568 3.22 10.01 9.01 14.32 12.85 18.34 16.36 28.19 26.31 32.61 32.93 1.197 1.797 3.35 4.403 4.765 5.79 2.104 2.038 2.588 2.943 2.588 4.861 0 2.654 0.508 4.366 1.294 4.366 0.8708 0 7.644-10.75 10.2-16.19 2.733-5.814 4.306-11.01 6.313-20.95 2.697-13.3 3.991-18.43 5.261-20.92 1.209-2.412 1.222-2.955 0.4838-12.36-0.8345-10.77-0.3991-38.79 0.7257-45.45 0.3628-2.268 1.403-5.018 2.54-6.803 4.366-6.827 15.82-15.05 22.83-16.37 5.563-1.049 11.71-0.8081 13.36 0.5307 1.33 1.074 1.427 1.628 1.33 7.454a97.89 97.63 0 0 1-0.4475 8.877c-0.4596 3.136 0.6894 15.9 2.02 22.69 1.838 9.239 5.152 17.84 12.63 32.74 10.66 21.26 13.07 27.6 16.58 43.34 1.294 5.874 2.225 11.76 2.225 14.21 0 4.33-0.1572 4.644-4.076 7.792-0.6047 0.5066-1.016 1.809-1.016 3.317 0 5.066-1.476 6.429-10.59 9.854a42.39 42.28 0 0 0-7.535 3.812c-5.709 3.932-17.97 5.778-24.66 3.727zm176.7-4.825a30.33 30.25 0 0 1-5.818-4.704 17.9 17.85 0 0 1-5.467-13.32c0.06-7.116 4.886-21.59 7.68-23.07 0.9312-0.5066 2.165-0.5186 4.245-0.0602 2.092 0.4704 4.427 0.4463 8.14-0.0965 4.656-0.6754 5.467-0.6272 7.595 0.3739 1.959 0.9288 2.54 1.665 3.241 4.053 0.7256 2.461 1.173 2.991 2.891 3.438 2.77 0.7237 3.265 2.364 3.253 10.83-0.02 10.69-1.693 15.58-6.966 20.34-3.024 2.714-5.926 3.594-11.8 3.57-3.266-0.012-5.14-0.398-6.979-1.363zm514-25.27c-4.112-1.858-5.515-5.343-5.6-13.94-0.036-3.655-0.3266-6.706-0.641-6.803-0.3146-0.0965-3.036 1.894-6.059 4.403-11.27 9.408-19.33 12.44-25.1 9.481-4.596-2.34-6.64-5.573-6.64-10.47v-2.654l-2.903 3.305c-6.337 7.237-21.82 12.23-37.87 12.23-8.224 0-14.02-1.266-20.34-4.463-5.6-2.822-6.338-5.018-3.169-9.384 4.003-5.512 6.41-5.621 7.74-0.3377 1.306 5.162 6.592 7.358 17.72 7.382 12.65 0.0241 23.78-2.943 25.11-6.73 0.9676-2.726-1.863-5.042-12.37-10.13-10.53-5.09-20.27-11.51-22.21-14.66a10.04 10.01 0 0 1-1.33-4.704c0-2.352 0.3266-2.895 3.653-5.826 5.563-4.921 12.22-7.925 23.38-10.51 6.942-1.616 11.03-2.207 14.96-2.207 6.519 0 8.515 0.8082 8.781 3.558 0.363 3.703-5.043 6.61-10.52 5.669-7.015-1.206-11.66-1.134-17.37 0.2774-8.345 2.051-10.88 4.053-9.917 7.876 0.6772 2.69 3.64 4.728 15.86 10.86 17.73 8.865 20.13 10.72 20.2 15.64 0.036 1.93 0.182 1.761 1.476-1.749 2.443-6.574 10.49-20.85 13.87-24.64 6.459-7.225 18.01-13.79 25.06-14.23 3.217-0.2171 4.596 0.0602 7.97 1.532a18.44 18.39 0 0 0 8.587 1.809c5.189 0.0361 6.942 0.9649 6.337 3.341-0.3628 1.447-1.27 3.558-5.854 13.51-2.31 5.042-5.926 16.66-7.233 23.36-0.9676 4.921-0.4596 10.61 1.089 12.34 4.354 4.801 23.55-7.599 27.64-17.85 0.7862-1.954 3.931-8.624 6.991-14.81 3.048-6.188 6.483-14.05 7.62-17.47 2.395-7.225 4.33-9.493 9.482-11.15 4.185-1.351 5.709-1.363 7.583-0.0361 2.298 1.592 1.5 4.776-3.036 12.28-2.141 3.534-3.882 6.634-3.882 6.899 0 0.2412-1.33 2.593-2.927 5.199-1.597 2.605-4.826 8.721-7.136 13.61-4.898 10.34-5.793 14.99-3.386 17.41 1.814 1.797 3.471 1.689 8.188-0.5428 2.794-1.315 5.805-3.631 10.07-7.756 3.362-3.245 6.991-6.176 8.079-6.537 1.766-0.579 2.225-1.315 4.257-6.682 2.866-7.563 6.071-12.25 12.84-18.78 9.119-8.805 15.5-11.63 26.33-11.68 5.697-0.0241 9.893 4.39 10.86 11.46 0.5564 4.017-0.9434 5.717-5.334 6.152-3.967 0.3619-4.777-0.1809-6.132-4.113-1.488-4.39-2.552-5.259-6.35-5.247-3.507 0-7.365 1.484-10.82 4.113-3.072 2.34-8.273 10.11-10.68 15.97-4.79 11.6-1.125 21.83 8.829 24.73 8.926 2.581 18.92-2.195 25.31-12.12 3.386-5.259 5.539-6.574 7.172-4.378 1.33 1.785 0.5322 4.427-2.54 8.443-5.6 7.334-11.41 11.78-18.75 14.41-4.39 1.568-15.26 1.592-19.8 0-4.862-1.677-10.49-7.141-12.51-12.13-0.8466-2.099-1.802-3.812-2.129-3.812s-3.87 3.003-7.874 6.67c-8.587 7.864-13.63 10.8-18.58 10.78-4.233 0-9.071-2.256-11.41-5.283-0.9674-1.291-2.165-2.328-2.661-2.328-0.4836 0-2.637 1.496-4.777 3.329-6.398 5.476-8.382 6.755-12.63 8.081-5.201 1.652-10.98 1.665-14.6 0.012zm-22.69-16.83c11.68-5.85 25.11-21.93 25.11-30.03 0-4.656-1.742-6.357-7.922-7.744-5.672-1.266-10.06 1.279-16.79 9.698-3.278 4.125-8.466 15.15-9.7 20.66-0.6894 3.076-0.3144 6.827 0.8224 8.202 1.064 1.291 5.104 0.9167 8.49-0.784zm-112 11.3c-7.329-1.64-12.38-6.622-14.68-14.51-0.9314-3.196-0.9798-4.463-0.3992-8.274 1.971-12.56 12.57-30.72 20.72-35.49 3.145-1.845 9.712-3.486 13.96-3.498 8.502-0.0241 14.49 8.202 13.59 18.64a54.56 54.41 0 0 1-5.842 19.62c-7.075 13.93-13.64 20.9-21.7 22.99a33.24 33.15 0 0 1-4.04 0.8926zm8.998-9.77c7.015-3.377 14.44-18.3 14.51-29.15 0.024-3.872-0.278-5.428-1.657-8.359-0.9314-1.978-2.443-4.089-3.35-4.68-3.882-2.533-11.72 0.6996-15.3 6.32-6.192 9.71-9.095 25.69-5.817 31.96 2.576 4.945 6.628 6.32 11.62 3.908zm269.8 8.528c-4.04-1.242-10.11-7.104-11.13-10.73-2.104-7.575 1.209-17.85 9.639-29.85 4.971-7.068 8.998-10.61 15.6-13.79 5.128-2.461 5.963-2.654 10.76-2.654 4.717 0 5.43 0.1448 7.946 1.894 3.507 2.412 6.253 7.575 6.253 11.7-0.02 10.25-8.031 26.57-17.68 36.06-4.717 4.62-8.49 6.755-13.8 7.72-4.39 0.8202-3.677 0.8443-7.595-0.3377zm11.56-7.551c1.294-0.5428 3.048-1.616 3.87-2.388 4.91-4.535 11.48-15.68 12.84-21.83 0.8466-3.691-0.2056-10.98-1.971-13.9-2.056-3.377-5.648-4.27-9.93-2.485-3.314 1.375-11.25 9.686-13.45 14.08-2.987 5.946-3.544 8.323-3.386 14.4 0.144 6.537 1.488 9.891 4.717 11.86 2.467 1.496 4.197 1.568 7.317 0.2412zm-666.1-51.13c-9.482-1.194-19.94-4.632-25.37-8.359-5.164-3.546-15.11-12.99-17.57-16.71-5.007-7.514-7.619-22.53-3.761-21.75 0.5564 0.1207 1.754 2.147 2.782 4.776 0.9676 2.509 2.552 5.898 3.507 7.527 2.165 3.667 9.881 11.86 12.98 13.75 1.778 1.122 3.495 2.316 5.176 3.582 1.572 1.206 4.584 2.991 6.676 3.956 4.753 2.219 20.42 6.296 24.19 6.296 1.536 0 4.306 0.3257 6.144 0.7116 4.136 0.8805 14.67-0.5428 24.43-3.317 9.204-2.605 10.73-3.341 17.4-8.407 7.378-5.609 14.77-14.64 19.34-23.64 2.407-4.764 9.724-24.12 11.3-29.88 0.9918-3.582 2.056-7.153 3.193-10.71 3.108-9.637 7.378-25.04 8.901-32.06 0.7862-3.667 2.661-11.37 4.148-17.14 1.5-5.766 3.205-12.76 3.786-15.56 0.5926-2.798 2.008-8.202 3.145-12.06 3.907-13.21 6.265-23.56 5.781-25.47-0.4476-1.809-1.234-2.05-8.478-2.533-6.918-0.4584-8.418-0.965-8.418-2.835 0-2.05 2.721-4.017 8.248-5.922 4.161-1.447 5.83-1.725 8.793-1.447 16.44 1.556 19.31 2.195 19.75 4.463 0.2418 1.242-2.322 10.84-4.693 17.56a225.8 225.2 0 0 0-3.471 11.43c-5.576 20.11-9.796 34.5-11.51 39.36-1.983 5.548-2.757 8.178-6.277 21.26a264.2 263.5 0 0 1-3.217 11.11c-0.641 1.93-2.31 8.081-3.725 13.65-3.568 14.17-5.793 20.63-9.966 28.97-7.922 15.81-18.32 28.76-28.3 35.17-8.696 5.597-24.67 11.7-36.4 13.93-5.515 1.049-21.2 1.206-28.49 0.2774zm-125.1-22.92c-7.595-7.442-9.833-10.75-12.58-18.61-6.096-17.49-8.442-23.71-9.627-25.56-2.624-4.113-16.04-12.73-18.41-11.82-0.4475 0.1568-0.9676 1.447-1.161 2.871-0.1814 1.399-0.5322 2.726-0.7378 2.943-0.2177 0.2171-2.866 0.4463-5.842 0.5066-5.225 0.0965-5.588 0-8.684-2.075-4.608-3.1-11.89-6.332-19.01-8.443-3.386-1.001-6.676-2.171-7.317-2.569-1.863-1.182-9.603-13.28-11.8-18.45-5.08-11.97-8.853-23.92-10.41-33.11-1.137-6.646-1.137-6.791 0.0968-8.154 1.705-1.93 15.52-13.38 18.96-15.75 2.588-1.785 5.503-6.115 5.503-8.214 0-1.351 3.943-11.16 4.959-12.32 1.209-1.399 4.16-1.447 5.297-0.0602 0.5805 0.6875 0.8708 2.69 0.8587 5.874-0.0362 8.612-4.064 16.11-14.44 26.86-6.217 6.453-6.858 7.334-6.858 9.481 0 3.305 2.588 10.13 7.765 20.5 5.309 10.61 7.378 13.42 10.57 14.28 7.982 2.171 11.66 2.822 20.48 3.631 5.43 0.4825 12.15 1.134 14.96 1.387 6.108 0.6031 8.055 1.532 11.79 5.681 5.479 6.103 7.535 8.841 11.3 15.09 3.786 6.296 6.253 12.95 14.42 38.86 1.609 5.09 2.987 8.166 4.802 10.61 2.02 2.726 5.092 8.829 5.092 10.13 0 0.6634-2.117 2.243-2.987 2.243-0.5564 0-3.677-2.629-6.966-5.838zm702.3 1.206c-4.475-2.268-0.158-10.2 6.507-11.98 6.821-1.809 8.901 1.833 4.342 7.599-3.834 4.837-7.208 6.2-10.84 4.378zm-612.4-18.94a22.83 22.77 0 0 1-4.402-3.775c-2.866-3.631-27.08-27.9-27.85-27.9-0.4354 0-3.266-2.497-6.277-5.573-7.934-8.081-23.58-22.65-26.81-24.98-1.524-1.098-6.047-5.319-10.04-9.384-3.991-4.041-8.708-8.226-10.46-9.276-2.564-1.52-3.665-2.738-5.406-6.031-1.73-3.257-2.044-4.342-1.5-5.211 1.113-1.773 0.8103-2.822-1.137-4.077-1.016-0.6513-4.306-3.896-7.329-7.201-7.099-7.816-17.1-16.85-20.74-18.74a24.73 24.67 0 0 1-4.644-3.172l-1.766-1.677-2.999 1.99c-2.201 1.447-3.58 1.93-5.225 1.785-3.169-0.2653-3.084-1.604 0.3507-5.79l2.963-3.57-2.637-2.979c-3.846-4.378-4.402-7.985-1.258-8.347 1.306-0.1568 2.225 0.4945 4.596 3.257l2.963 3.462 5.733-5.488c5.6-5.355 5.721-5.548 5.334-7.84-0.3991-2.34-0.3507-2.4 9.724-12.38 5.563-5.524 11.54-11.87 13.28-14.12 1.742-2.256 6.991-8.106 11.67-13.01 4.668-4.909 9.494-10.43 10.73-12.27 2.878-4.33 5.987-6.851 10.44-8.479 3.145-1.146 4.765-2.497 12.74-10.61 24.07-24.51 36.19-37.81 36.19-39.73 0-0.3618-1.439-2.002-3.193-3.619l-3.205-2.919 0.4234-3.739c0.2418-2.05 0.6772-4.234 0.9916-4.837 0.9676-1.858 3.229-1.242 6.507 1.797 5.721 5.307 6.567 5.488 13.79 2.955 5.563-1.93 6.616 0.4342 2.516 5.621-1.403 1.785-2.552 3.727-2.552 4.354 0 0.6031 1.004 1.809 2.237 2.642 1.234 0.8323 3.991 4.029 6.168 7.104 4.608 6.586 6.688 8.479 9.917 9.058 1.282 0.2412 3.072 0.7961 3.955 1.242 0.8708 0.4463 8.176 7.358 16.23 15.32 8.055 7.961 17.44 17.04 20.85 20.17 3.411 3.112 7.22 7.177 8.442 9.022 1.234 1.858 3.761 4.596 5.624 6.115 9.47 7.695 12.63 10.94 14.39 14.74 2.141 4.644 5.442 8.504 13.3 15.56 7.704 6.948 14.88 14.06 18.55 18.41l2.915 3.45 3.265-2.099c3.665-2.34 5.564-2.256 6.519 0.2774 0.641 1.677-0.096 4.306-1.693 6.055-0.8346 0.9287-0.762 1.303 0.6894 3.426 1.814 2.678 1.887 3.052 0.9676 4.789-0.871 1.616-4.838 1.628-6.93 0.0241-1.536-1.17-1.548-1.17-5.092 1.399-1.959 1.411-5.563 4.825-8.007 7.599-2.443 2.774-11.61 12.28-20.36 21.13-8.756 8.841-18.63 19.44-21.96 23.52-9.313 11.43-13.45 16.22-16.19 18.66-1.379 1.218-6.821 6.405-12.09 11.51-5.261 5.102-11.22 10.32-13.24 11.58-2.54 1.592-3.991 3.04-4.753 4.68-1.21 2.654-3.991 5.91-12.43 14.59-5.237 5.367-5.612 5.91-4.668 6.863 1.814 1.821 1.137 4.33-1.572 5.717-2.504 1.291-3.145 1.206-6.531-1.037zm6.096-17.07c0.266 0 0.4838-1.086 0.4838-2.424 0-2.099 0.4596-2.859 3.507-5.79 2.056-1.978 4.088-4.68 4.862-6.501 1.089-2.509 2.455-3.98 7.136-7.659 5.66-4.415 9.966-8.564 20.44-19.56 4.112-4.33 5.733-5.585 8.393-6.489 3.35-1.134 6.664-4.342 10.45-10.06 4.874-7.37 7.825-10.88 16.61-19.71 5.358-5.38 11.14-11.54 12.87-13.7 2.056-2.617 4.088-4.378 6.035-5.295 1.609-0.7478 4.209-2.509 5.793-3.908 3.677-3.281 13.99-13.29 13.99-13.58a6.229 6.212 0 0 0-1.113-1.399l-10.33-11.16c-5.08-5.488-10.14-10.54-11.26-11.24a12.37 12.34 0 0 1-3.362-3.377 22.99 22.93 0 0 0-4.16-4.439 51.16 51.02 0 0 1-6.325-6.899c-3.665-4.825-11.37-12.42-21.6-21.37-4.741-4.137-6.289-5.886-6.773-7.683-0.4594-1.749-2.153-3.739-6.821-8.009a110.4 110.1 0 0 0-9.567-7.949c-1.862-1.242-8.285-6.923-14.27-12.64a429.7 428.6 0 0 0-13.1-12.15 27.65 27.57 0 0 1-4.209-4.463c-3.35-4.583-8.914-8.479-11.13-7.792-1.596 0.5066-14.19 13.03-16.57 16.45-0.9916 1.447-3.761 4.535-6.168 6.863a266.4 265.7 0 0 0-18.83 19.9c-6.579 7.864-9.276 10.18-12.43 10.67a5.926 5.91 0 0 0-3.931 2.099c-0.7258 0.9288-1.258 1.773-1.137 1.882 0.096 0.0965 1.33-0.2171 2.709-0.6996s3.749-0.9167 5.249-0.9287c1.5-0.012 3.931-0.6393 5.394-1.375 2.358-1.206 3.386-1.327 9.047-1.025 7.487 0.4101 16.55 1.954 23.23 3.98 2.624 0.7961 6.168 1.773 7.861 2.171 1.705 0.4101 4.838 1.592 6.954 2.666 2.104 1.061 5.902 2.593 8.43 3.426 6.966 2.268 15.21 6.393 18.54 9.276l2.999 2.581 4.814-0.386c12.61-1.025 28.03-1.677 30.9-1.303 1.754 0.2171 4.088 0.9649 5.201 1.64 1.113 0.6754 3.834 1.532 6.047 1.93 8.031 1.375 11.67 4.74 7.861 7.237-1.258 0.8202-3.253 1.001-10.29 0.9408l-8.744-0.0965-1.391 1.749c-1.221 1.544-1.971 1.797-6.398 2.195-2.745 0.2412-8.442 0.4825-12.65 0.5066-14.69 0.0965-30.83 2.171-33.73 4.354l-1.403 1.061 2.141 2.798c2.056 2.702 2.624 5.066 1.742 7.358-0.6168 1.604-3.713 2.883-7.039 2.883-5.056 0-10.49 1.122-14.36 2.943-2.02 0.9529-3.653 1.966-3.653 2.243 0 0.2774 4.789 0.5307 10.64 0.5428 13.92 0 21.55 1.086 30.57 4.282 8.853 3.148 9.651 3.667 12.82 8.323 5.709 8.395 10.58 22.41 12.16 34.98 0.9434 7.563 1.306 8.262 4.33 8.262 2.842 0 6.471 1.122 6.471 2.002 0 3.293-5.201 6.779-12.58 8.407a96.15 95.89 0 0 0-9.821 2.931c-8.636 3.148-8.66 3.136-12.52-8.335a106.1 105.8 0 0 0-3.52-9.336c-0.6046-1.146-2.358-6.562-3.919-12.01-1.572-5.476-3.096-10.22-3.423-10.53-1.838-1.833-13.84-0.8081-14.5 1.242-0.122 0.4101 2.008 1.93 4.717 3.426 7.716 4.197 11.88 7.707 12.7 10.71 0.641 2.364-0.8102 5.5-5.926 12.88-7.039 10.17-10.36 13.56-14.5 14.76-3.665 1.061-7.354 4.439-7.354 6.73 0 0.7599 1.367 2.292 3.507 3.944 4.233 3.257 6.338 7.442 4.596 9.167-0.9192 0.9167-1.536 0.9046-6.93-0.0602a107.7 107.4 0 0 1-10.9-2.629c-2.733-0.8443-6.229-1.556-7.777-1.556-5.092 0-9.071-1.206-10.49-3.16-1.802-2.533-1.596-4.077 0.7862-6.055 8.43-6.936 22.75-23.16 22.75-25.74 0-1.532-0.3628-1.713-7.003-3.498a87.87 87.63 0 0 1-12.38-4.704c-7.886-3.763-9.385-5.452-13.98-15.66-3.592-7.985-3.81-10.93-1.004-13.56l1.899-1.749-1.996-0.4101c-3.29-0.6393-16.69-13.87-17.79-17.55-0.8102-2.714 0.6048-11.16 2.612-15.52 1.693-3.691 5.346-7.141 8.466-8.021 1.476-0.4222 2.939-0.9891 3.266-1.266 1.04-0.9046-0.9918-2.461-3.205-2.461-2.262 0-4.693-1.809-4.693-3.486 0-0.5066-0.9312-1.327-2.056-1.809a57.29 57.14 0 0 1-6.809-4.137c-2.588-1.797-5.225-3.257-5.842-3.257-0.6048 0-1.778 0.9167-2.588 2.05-2.298 3.22-10.76 11.63-13.57 13.49-2.298 1.52-22.45 20.92-28.51 27.45l-2.479 2.678 2.056 1.773c1.137 0.965 2.576 2.051 3.205 2.388 1.875 1.049 14.51 12.34 20.44 18.24 3.06 3.064 7.003 6.441 8.768 7.527 1.766 1.086 3.205 2.231 3.205 2.557 0 0.3378 4.221 4.813 9.385 9.951 6.253 6.224 10.84 11.46 13.75 15.69 2.419 3.498 7.136 9.239 10.51 12.79 3.205 3.365 6.374 6.755 9.53 10.17 1.863 2.05 4.596 4.571 6.047 5.597 5.297 3.739 8.744 6.972 10.52 9.854 1.911 3.112 13.87 15.38 21.41 21.98l4.426 3.896 2.54-2.461c1.403-1.351 2.757-2.449 3.024-2.449zm-13.84-176.5c-5.031-1.206-9.095-5.488-11.13-11.71-1.415-4.33-0.5444-13.75 1.838-19.85 1.1-2.847 2.455-5.536 2.987-5.971 0.52-0.4463 3.024-1.001 5.539-1.242 2.516-0.2412 6.156-0.8323 8.091-1.266 6.845-1.592 10.63 0.4222 14.13 7.502 1.875 3.812 2.08 4.789 2.056 9.649-0.036 5.814-1.149 10.13-3.991 15.46-3.374 6.272-11.51 9.384-19.52 7.442zm13.63 22.36c0.7256-0.5066-2.709-2.135-7.595-3.619-12.17-3.691-30.44-6.513-31.46-4.873-0.5684 0.9287 0.9072 3.233 4.596 7.165l2.83 3.015 2.625-1.327c1.451-0.7237 3.507-1.942 4.548-2.726 1.052-0.772 2.443-1.592 3.096-1.833 2.225-0.8202 6.241 0.8443 9.518 3.98l3.193 3.028 4.185-1.315c2.298-0.7237 4.318-1.399 4.475-1.496zm149.2 160.4c-4.886-1.52-7.535-6.634-7.499-14.59 0-5.476 0.122-5.971 7.813-31.75 0.3628-1.218 2.104-7.502 3.87-13.97 1.79-6.453 4.233-14.46 5.443-17.78 2.878-7.961 4.717-15.38 4.717-19.03 0-2.038 0.3628-3.317 1.113-3.98 1.621-1.472 9.155-4.921 10.74-4.921 1.959 0 2.975 1.568 2.588 3.956-0.3144 1.966-6.495 20.09-13.81 40.49a310.8 310 0 0 0-4.838 14.59c-0.8466 2.967-2.104 7.261-2.794 9.529-2.322 7.744-4.124 17.45-4.124 22.12 0.024 4.185 0.182 4.801 1.572 5.934 1.209 0.9891 2.117 1.182 4.027 0.8684 4.91-0.784 12.66-5.657 16.58-10.41l5.382-6.574c7.801-9.565 13.84-14.27 25.06-19.5 9.591-4.487 13.42-5.609 22.77-6.706 15.84-1.833 25.02-1.291 41.48 2.449 2.201 0.5066 5.588 1.242 7.511 1.616 1.935 0.386 6.652 1.544 10.51 2.581 3.846 1.037 11.57 2.895 17.17 4.161 5.6 1.266 12.9 3.088 16.23 4.065 3.314 0.977 7.62 1.99 9.543 2.268a70.39 70.2 0 0 1 8.587 1.99c16.13 4.825 49.13 7.84 72.23 6.61 13.13-0.6996 14.36-0.8564 21.32-2.895 7.777-2.28 17.2-7.961 19.27-11.65 1.633-2.895 1.754-4.571 0.5078-6.948-2.346-4.463-7.91-7.346-19.47-10.07-6.011-1.411-8.95-1.737-16.53-1.809-11.32-0.1207-10.82-0.0361-10.82-1.568 0-1.496 2.177-2.69 7.015-3.86 4.959-1.218 24.46-1.001 30.22 0.3257 4.874 1.134 12.69 5.162 16.3 8.443 4.717 4.234 6.265 10.48 3.785 15.26-2.757 5.295-13.01 12.65-21.35 15.31-17.88 5.693-23.73 6.513-45.96 6.489-8.805-0.012-17.83-0.3257-20.04-0.6996a29.39 29.31 0 0 0-5.612-0.4945c-2.419 0.2412-11.89-0.7478-16.86-1.785-4.052-0.8443-16.4-2.714-27.04-4.101a98.26 97.99 0 0 1-10.18-2.171 617 615.4 0 0 0-33.42-7.659c-2.794-0.4825-9.095-1.64-13.99-2.545-15.9-2.943-21.44-3.57-31.49-3.57-15.24-0.0241-27.85 3.064-40.02 9.77-6.132 3.389-9.458 6.308-14.27 12.51-3.749 4.837-16.88 16.71-20.32 18.37-3.241 1.568-9.966 2.256-12.92 1.339zm-312.6-55.16c-3.157-2.304-4.136-4.029-5.89-10.3-1.899-6.851-1.778-15.95 0.3144-21.83 2.237-6.32 3.193-7.346 8.853-9.42 5.588-2.05 7.232-1.906 8.744 0.7961a4.378 4.366 0 0 0 3.362 2.304c2.661 0.5066 3.532 1.773 3.532 5.187 0 1.508 0.5563 3.257 1.512 4.644 0.8829 1.315 1.959 4.475 2.6 7.707 0.9192 4.644 0.9676 6.067 0.3266 9.203-1.899 9.191-5.926 12.59-15.77 13.33-4.717 0.3377-4.995 0.3016-7.571-1.604z" fill="#fff" stroke-width=".2646"/></g></svg>
